<?xml version="1.0" encoding="UTF-8" standalone="no"?><!DOCTYPE svg PUBLIC "-//W3C//DTD SVG 1.1//EN" "http://www.w3.org/Graphics/SVG/1.1/DTD/svg11.dtd"><svg width="100%" height="100%" viewBox="0 0 2031 2056" version="1.1" xmlns="http://www.w3.org/2000/svg" xmlns:xlink="http://www.w3.org/1999/xlink" xml:space="preserve" xmlns:serif="http://www.serif.com/" style="fill-rule:evenodd;clip-rule:evenodd;stroke-linecap:round;stroke-linejoin:round;stroke-miterlimit:1.5;"><path d="M999.364,72.425c535.835,0 970.866,435.03 970.866,970.866c0,535.835 -435.031,970.866 -970.866,970.866c-535.836,0 -970.867,-435.031 -970.867,-970.866c0,-535.836 435.031,-970.866 970.867,-970.866Zm-17.901,577.316c214.334,0 388.347,174.012 388.347,388.346c0,214.335 -174.013,388.347 -388.347,388.347c-214.334,0 -388.346,-174.012 -388.346,-388.347c0,-214.334 174.012,-388.346 388.346,-388.346Z" style="fill:#f8c41b;stroke:#0d0d0d;stroke-width:6px;"/><g id="ReadyForView"><path id="Shovel-Curve-" serif:id="Shovel(Curve)" d="M1115.4,556.167c-10.422,-3.559 -17.85,-16.034 -1.539,-27.815c76.459,-55.225 304.874,-218.334 413.147,-292.574c7.658,-5.251 29.219,-19.551 54.728,-24.065c27.659,-4.894 59.418,0.3 68.528,2.932c76.872,22.204 205.69,62.652 302.782,94.411c1.581,0.517 51.302,19.583 61.498,49.642c2.614,7.708 4.265,26.367 -1.425,42.77c-4.028,11.613 -15.573,23.348 -16.048,23.709c-124.302,94.241 -333.794,245.557 -393.435,282.942c-9.386,5.883 -26.199,5.481 -31.195,3.908c-82.326,-25.918 -196.283,-61.872 -196.283,-61.872c0,0 -514.643,457.404 -561.195,496.906c-3.749,3.181 -44.89,19.81 -59.296,13.067c-14.406,-6.742 -2.077,-36.856 -1.899,-37.134c12.649,-19.759 223.531,-204.426 388.207,-346.059c87.135,-74.942 182.396,-154.685 182.396,-154.685c-3.336,5.884 -135.906,-41.135 -208.971,-66.083Z" style="fill:#f2f2f2;stroke:#000;stroke-width:6.5px;"/><path id="LeftBoot" d="M344.686,1949.47c0,-4.986 16.745,-32.606 48.041,-46.291c34.313,-15.004 82.354,-24.151 109.432,-18.058c7.731,1.74 12.691,7.763 16.44,11.512c15.296,15.297 17.325,22.608 26.761,43.513c2.978,6.597 -14.075,6.753 -19.368,6.753c-23.859,0 -39.103,-4.034 -61.51,-4.034c-32.788,0 -57.376,5.291 -87.253,5.291" style="fill:#cf3d3d;"/><path id="RighrtBoot" d="M705.386,1947.32c5.638,0 39.565,-23.04 64.645,-38.906c12.344,-7.809 24.51,-12.759 26.265,-14.56c2.285,-2.342 31.68,-16.904 60.121,-26.805c21.198,-7.38 43.064,-11.074 46.364,-11.074c2.757,0 111.525,3.629 117.02,10.307c11.775,14.311 10.284,36.014 10.284,60.641c0,2.001 -0.594,20.906 -1.668,21.505c-15.882,8.857 -164.295,-17.033 -167.209,-13.597c-8.209,9.679 -92.786,17.676 -94.975,17.676c-13.36,0 -54.332,4.532 -60.607,-3.976" style="fill:#cf3d3d;"/><path id="Pants" d="M402.099,1092.19c-0.49,0.481 -4.264,0.432 -6.782,2.846c-2.509,2.404 -3.759,7.261 -6.349,12.765c-9.24,19.634 -20.598,51.279 -24.321,64.961c-3.319,12.196 -21.538,141.563 -28.363,274.941c-6.433,125.723 -1.584,254.777 -1.584,300.065c0,16.547 -4.239,31.18 -8.117,46.62c-4.709,18.749 -1.373,54.525 3.135,71.302c2.186,8.136 -3.656,17.851 -3.656,25.02c0,17.895 -0.084,49.036 11.865,58.111c3.571,2.712 22.358,-22.47 25.779,-25.934c5.212,-5.278 24.115,-18.254 46.129,-26.158c9.918,-3.561 25.979,-8.027 43.254,-9.51c35.374,-3.036 73.564,-2.152 76.838,-6.503c0.658,-0.876 -8.641,-39.154 -12.425,-65.505c-1.811,-12.615 0.852,-23.545 0.445,-24.361c-6.397,-12.793 -9.754,-89.269 -9.754,-113.352c0,-6.925 -0.6,-22.61 3.611,-26.82c4.348,-4.349 1.686,-17.813 6.901,-22.332c2.715,-2.353 3.295,-36.229 5.769,-41.785c3.144,-7.063 0.58,-28.772 -2.926,-32.278c-4.267,-4.267 1.744,-23.959 3.145,-27.653c5.016,-13.219 -13.862,-33.705 -8.419,-50.103c4.989,-15.03 19.229,-28.007 23.255,-43.092c2.069,-7.751 18.682,-47.704 32.47,-34.417c5.164,4.976 0.672,21.221 5.384,25.934c3.646,3.645 0.558,15.796 4.196,19.434c19.239,19.239 4.228,57.7 15.906,80.91c8.727,17.343 2.506,41.064 10.942,57.937c2.41,4.819 -2.385,13.204 0,18.036c7.421,15.033 14.046,26.971 20.98,44.207c6.569,16.333 2.019,33.511 9.698,48.87c1.962,3.923 18.1,78.094 24.554,84.548c7.466,7.465 14.67,32.519 18.717,58.094c4.225,26.697 18.651,87.304 18.113,99.282c-0.802,17.871 43.776,-7.573 44.189,-8.053c1.904,-2.212 31.694,-29.148 69.461,-43.443c18.17,-6.878 37.182,-18.473 54.765,-22.354c27.942,-6.165 47.891,-9.61 46.927,-11.539c-2.201,-4.401 -7.382,-10.474 -10.531,-13.584c-11.216,-11.075 -42.561,-94.948 -52.674,-115.174c-14.214,-28.428 -8.408,-57.482 -20.374,-90.167c-12.936,-35.335 -34.057,-73.984 -43.567,-112.026c-4.474,-17.893 -7.219,-55.293 -19.142,-67.216c-4.317,-4.317 -2.281,-16.295 -6.573,-20.586c-3.484,-3.484 -1.209,-17.627 -4.388,-22.872c-6.715,-11.081 -1.049,-33.422 -12.359,-42.333c-1.892,-1.491 0.894,-11.884 0,-14.334c-5.006,-13.72 2.315,-39.257 -10.512,-48.787c-2.757,-2.048 -0.988,-25.118 -0.988,-29.938c0,-30.678 -3.31,-72.797 -17.946,-98.093c-19.739,-34.115 -182.049,-93.17 -223.649,-93.17c-11.11,0 -65.438,2.929 -91.029,9.589" style="fill:#0d0d0d;stroke:#000;stroke-width:4px;"/><path id="Belt" d="M398.952,1072.98c0,3.124 -2.549,18.77 3.884,19.209c4.051,0.276 21.613,-2.465 26.252,-2.465c28.012,0 50.727,-19.445 41.583,-19.445c-14.355,0 -69.268,-3.165 -70.919,-1.626c-1.578,1.471 -2.857,19.121 -2.857,20.819" style="stroke:#000;stroke-width:5px;"/><path id="Apron" d="M457.118,1084.93c0,6.752 5.84,57.43 -5.188,123.736c-17.985,108.126 -57.837,252.567 -70.148,276.882c-7.112,14.046 -34.671,181.35 -8.863,209.309c4.556,4.935 24.414,-4.176 29.134,-8.955c10.013,-10.14 27.053,-4.225 39.707,-10.65c8.621,-4.376 27.24,-0.524 36.565,-3.062c36.713,-9.99 77.465,-11.911 116.92,-12.278c10.34,-0.096 20.59,-0.085 30.655,-0.085c59.209,0 120.387,-2.194 179.113,-2.194c8.635,0 57.976,4.288 58.172,4.033c14.62,-18.919 -2.141,-46.495 -10.775,-62.252c-1.644,-3.001 -21.205,-76.585 -31.412,-104.142c-11.886,-32.094 -52.294,-204.891 -71.874,-228.624c-7.18,-8.703 1.842,-83.778 -5.655,-98.661c-0.922,-1.831 -14.226,-157.272 -14.226,-195.335c0,-2.953 -14.1,-100.899 -25.81,-106.706c-1.967,-0.976 -18.035,14.937 -33.962,35.966c-17.358,22.918 -32.757,49.615 -36.442,53.563c-27.235,29.181 -118.746,84.499 -119.601,86.217c-3.398,6.828 -15.112,13.892 -22.048,18.661c-8.228,5.657 -23.114,11.899 -30.069,20.224" style="fill:#cf3d3d;stroke:#000;stroke-width:3px;"/><path id="RightArm" d="M860.055,1011.45c-2.608,2.575 -12.954,0.957 -22.552,0.674c-16.699,-0.492 -35.936,-1.428 -42.706,-1.428c-28.804,0 -68.544,13.909 -89.607,24.281c-12.179,5.998 -46.042,-11.456 -54.517,-2.376c-0.458,0.49 -4.2,15.005 -7.124,20.903c-6.165,12.439 -14.963,28.08 -21.988,39.711c-5.841,9.672 -11.112,16.286 -6.585,18.607c7.533,3.861 22.106,10.081 28.007,17.254c6.706,8.15 25.08,4.572 31.286,11.906c16.655,19.684 46.259,9.761 60.321,-4.479c3.292,-3.333 19.395,0.445 21.985,-2.742c6.318,-7.777 27.42,-5.068 35.057,-14.466c5.418,-6.669 22.474,-16.255 33.95,-19.137c5.378,-1.351 40.765,-11.07 42.791,-13.772c1.466,-1.954 19.425,0 22.305,0c4.461,0 11.211,2.938 18.784,4.591c17.895,3.905 40.387,7.751 48.13,-0.112c12.681,-12.876 7.417,-39.544 19.975,-52.261c5.827,-5.901 21.469,-9.199 33.712,-14.501c15.741,-6.816 27.476,-18.735 25.705,-21.794c-1.013,-1.752 -6.709,-12.007 -23.191,-17.339c-10.828,-3.504 -30.701,-1.852 -38.684,-5.686c-14.686,-7.054 -1.999,-32.017 -12.822,-42.184c-2.342,-2.2 -10.958,-2.19 -18.853,0.824c-7.652,2.922 -14.597,8.803 -16.362,9.674c-25.47,12.576 -59.394,49.005 -63.532,57.156c-1.144,2.253 -6.125,6.262 -6.125,8.17" style="fill:#f2f2f2;stroke:#000;stroke-width:1.5px;"/><path id="LeftArmUp" d="M869.121,879.099c1.502,-1.848 38.782,14.706 40.639,17.152c0.331,0.436 18.28,4.49 33.512,2.424c13.439,-1.822 24.185,-9.609 27.089,-11.791c19.238,-14.461 20.938,-63.087 37.75,-65.825c5.946,-0.968 12.909,-2.98 20.472,-2.071c14.502,1.745 29.747,8.248 33.997,11.476c6.758,5.133 18.685,0.001 23.15,8.685c14.003,27.227 -23.527,24.605 -42.248,24.605c-3.269,0 -13.667,-4.288 -15.601,-2.354c-0.585,0.585 -0.362,2.977 -0.999,5.974c-1.168,5.496 -3.29,13.024 -4.899,15.161c-13.126,17.427 -39.523,32.569 -52.263,49.84c-4.148,5.622 -13.784,6.008 -19.464,4.479c-6.021,-1.621 -25.311,12.235 -43.33,25.527c-5.551,4.094 -21.401,16.632 -30.317,25.326c-4.383,4.274 -12.791,13.596 -17.45,19.104c-1.224,1.447 -2.375,1.593 -3.408,1.856c-2.913,0.741 -9.93,-7.014 -18.717,-12.218c-4.22,-2.499 -9.393,0.187 -11.704,-4.729c-2.667,-5.674 1.474,-12.855 2.697,-23.043" style="fill:#f2f2f2;stroke:#000;stroke-width:2px;"/><path id="LeftPalmDown" d="M1046.53,945.028c-3.919,2.426 19.237,16.432 39.807,14.982c20.57,-1.45 33.562,-10.535 37.049,-14.076c5.982,-6.074 13.003,-26.999 13.003,-36.847c0,-2.629 1.43,-13.604 -0.464,-15.167c-9.31,-7.68 -14.079,-18.852 -22.815,-26.06c-10.982,-9.06 -11.811,14.03 -14.307,16.058c-3.146,2.557 -19.011,2.572 -20.887,5.218c-5.799,8.181 -1.292,12.493 -9.629,18.328c-3.831,2.682 1.648,14.465 -2.59,17.643c-7.961,5.971 -11.735,15.32 -19.167,19.921Z" style="fill:#f2f2f2;stroke:#000;stroke-width:0.9px;stroke-linecap:butt;stroke-miterlimit:1.41421;"/><path id="Shirt" d="M396.917,1067.92c0,5.951 27.294,2.674 47.388,1.771c17.47,-0.785 27.78,1.292 31.591,-0.642c9.775,-4.963 23.649,-10.787 26.094,-15.284c0.495,-0.911 10.989,-8.443 13.366,-6.066c16.632,16.631 28.648,33.709 47.776,49.448c4.464,3.672 38.621,25.32 44.806,17.708c7.023,-8.645 52.188,-83.768 47.387,-88.205c-3.797,-3.51 -29.422,-52.507 -35.243,-52.507c-1.785,0 82.997,-116.097 85.376,-113.717c3.866,3.866 21.015,120.757 25.789,125.164c2.372,2.19 50.86,7.933 63.16,7.933c6.506,0 30.565,0.78 32.276,-1.501c1.764,-2.353 0,-13.288 0,-16.389c0,-7.49 34.082,-79.428 44.681,-100.137c0.291,-0.568 -8.892,-3.646 -9.54,-4.244c-5.347,-4.942 -29.195,-9.89 -31.289,-10.937c-10.787,-5.393 -27.953,-4.068 -38.57,-9.376c-3.292,-1.646 -53.416,-8.902 -54.136,-9.775c-4.331,-5.249 -22.754,-6.425 -30.786,-6.425c-1.421,0 -61.634,20.44 -121.749,24.863c-56.915,4.189 -113.935,-7.638 -114.228,-7.273c-4.231,5.289 -74.149,213.974 -74.149,215.591" style="fill:#f2f2f2;stroke:#000;stroke-width:4px;"/><path id="StripeShirt" d="M468.384,975.596c0,5.616 33.416,16.449 63.4,12.896c28.47,-3.374 53.586,-20.915 53.586,-24.311" style="fill:none;stroke:#000;stroke-width:5px;"/><path id="Collar" d="M472.394,850.938c0,0 114.923,30.346 233.061,-17.482c0.727,-0.294 -125.108,-20.27 -182.523,-46.94c-21.666,-10.064 -37.161,-23.082 -39.521,-23.082c-2.203,0 -13.925,87.504 -11.017,87.504Z" style="fill:#262626;stroke:#000;stroke-width:3.5px;"/><g id="face-group"><path id="FaceOval" d="M436.661,464.93c8.017,0 37.62,-15.047 66.243,-21.978c22.273,-5.393 44.281,-4.673 52.942,-6.853c41.974,-10.567 92.187,-3.401 136.233,-3.401c15.118,0 40.345,-3.148 49.638,4.498c1.397,1.149 13.022,38.553 21.247,78.36c6.862,33.21 16.217,67.714 18.544,82.698c2.775,17.865 5.901,41.878 2.478,63.883c-3.68,23.666 -45.664,105.309 -58.48,121.649c-0.801,1.021 -13.405,35.856 -20.985,47.372c-0.382,0.581 -67.19,-9.349 -132.466,-28.978c-26.61,-8.002 -52.345,-21.014 -74.19,-30.278c-2.238,-0.949 -17.489,-64.998 -23.998,-70.367c-1.918,-1.583 -27.647,-44.792 -36.715,-82.045c-7.367,-30.265 1.195,-55.923 2.813,-57.567c2.466,-2.504 -3.304,-96.993 -3.304,-96.993Z" style="fill:#f2f2f2;stroke:#000;stroke-width:0.55px;"/><ellipse id="LeftEye" cx="630.552" cy="565.7" rx="18.097" ry="26.75" style="fill:#0d0d0d;"/><path id="LeftEye1" serif:id="LeftEye" d="M718.848,531.544c9.859,-1.603 19.786,8.926 22.156,23.498c2.37,14.572 -3.71,27.705 -13.569,29.308c-9.858,1.603 -19.786,-8.926 -22.156,-23.498c-2.369,-14.572 3.711,-27.705 13.569,-29.308Z" style="fill:#0d0d0d;"/><path id="NoseDown" d="M681.538,659.732c0,6.571 5.928,26.209 0.554,32.926c-1.334,1.668 -26.656,-5.955 -26.656,27.131" style="fill:none;stroke:#000;stroke-width:4px;"/><path id="Nose" d="M681.465,575.772c-0.105,19.41 39.433,57.339 44.581,71.067c1.715,4.572 -11.618,1.949 -14.516,1.949c-6.987,0 -17.499,0.581 -23.856,2.878c-2.261,0.818 -5.267,2.599 -5.267,4.278c0,0.768 -0.637,3.147 -0.637,1.592" style="fill:none;stroke:#000;stroke-width:4px;"/><path id="MouthUp" d="M634.68,715.624c-9.844,-11.222 -25.167,-50.8 -13.187,-46.804c0.568,0.189 1.143,0.404 1.724,0.64c7.618,3.099 16.468,9.991 27.467,13.914c14.168,5.054 30.403,6.51 31.844,6.579c1.983,0.095 -1.948,12.721 0.257,26.152c1.781,10.851 3.439,22.864 3.402,24.255c-0.118,4.395 -33.108,-3.761 -51.507,-24.736Z" style="fill:#1a1a1a;stroke:#000;stroke-width:2.12px;"/><path id="Hair" d="M456.512,490.993c16.347,0 30.985,-5.089 38.473,-14.306c4.516,-5.558 25.215,-10.218 21.025,-4.411c-14.274,19.784 2.991,68.014 -7.941,78.81c-1.386,1.368 -3.793,-9.724 -4.411,-10.341c-4.403,-4.403 -7.491,-10.649 -11.941,-16.043c-11.103,-13.459 -38.199,-10.618 -38.199,-33.652" style="fill:#262626;stroke:#000;stroke-width:0.15px;"/><path id="Eyebrow" d="M647.721,457.085l0.712,0.295l0.611,0.468l0.47,0.611l0.295,0.711l0.101,0.764l-0.1,0.764l-0.294,0.711l-0.469,0.612l-0.611,0.469l-0.711,0.295l-0.764,0.101l-0.089,0l-0.086,0.001l-0.087,0l-0.086,0.001l-0.088,0l-0.085,0.002l-0.086,0.001l-0.086,0.001l-0.086,0.002l-0.085,0.002l-0.085,0.002l-0.085,0.002l-0.085,0.002l-0.084,0.003l-0.085,0.002l-0.085,0.003l-0.084,0.003l-0.084,0.004l-0.084,0.003l-0.083,0.004l-0.084,0.003l-0.083,0.004l-0.083,0.005l-0.083,0.004l-0.082,0.004l-0.083,0.005l-0.083,0.005l-0.082,0.005l-0.082,0.005l-0.082,0.006l-0.082,0.005l-0.082,0.006l-0.081,0.006l-0.08,0.006l-0.082,0.006l-0.081,0.007l-0.082,0.007l-0.079,0.006l-0.08,0.007l-0.081,0.007l-0.079,0.008l-0.081,0.007l-0.079,0.008l-0.08,0.008l-0.08,0.008l-0.078,0.008l-0.079,0.008l-0.08,0.009l-0.078,0.009l-0.079,0.008l-0.078,0.01l-0.078,0.009l-0.078,0.009l-0.078,0.01l-0.078,0.009l-0.077,0.01l-0.078,0.01l-0.077,0.01l-0.078,0.011l-0.077,0.01l-0.076,0.011l-0.078,0.011l-0.076,0.011l-0.076,0.011l-0.076,0.011l-0.076,0.012l-0.076,0.011l-0.075,0.012l-0.075,0.012l-0.077,0.012l-0.075,0.013l-0.075,0.012l-0.075,0.013l-0.075,0.013l-0.075,0.012l-0.073,0.013l-0.074,0.014l-0.076,0.013l-0.074,0.014l-0.074,0.013l-0.073,0.014l-0.073,0.014l-0.074,0.014l-0.074,0.015l-0.072,0.014l-0.074,0.015l-0.072,0.015l-0.072,0.014l-0.074,0.016l-0.072,0.015l-0.072,0.015l-0.073,0.016l-0.072,0.016l-0.072,0.015l-0.071,0.016l-0.071,0.016l-0.072,0.017l-0.072,0.016l-0.071,0.017l-0.071,0.017l-0.071,0.017l-0.07,0.017l-0.071,0.017l-0.07,0.017l-0.071,0.018l-0.071,0.017l-0.069,0.018l-0.07,0.018l-0.07,0.018l-0.069,0.018l-0.07,0.018l-0.07,0.019l-0.069,0.019l-0.069,0.018l-0.068,0.019l-0.07,0.019l-0.068,0.019l-0.069,0.02l-0.069,0.019l-0.068,0.02l-0.068,0.02l-0.068,0.02l-0.069,0.02l-0.067,0.02l-0.068,0.02l-0.068,0.021l-0.067,0.02l-0.067,0.021l-0.067,0.021l-0.068,0.021l-0.067,0.021l-0.066,0.021l-0.067,0.022l-0.066,0.021l-0.066,0.022l-0.068,0.022l-0.066,0.022l-0.065,0.022l-0.066,0.022l-0.066,0.023l-0.067,0.022l-0.065,0.023l-0.065,0.023l-0.066,0.023l-0.065,0.023l-0.065,0.023l-0.065,0.023l-0.063,0.023l-0.131,0.048l-0.13,0.048l-0.129,0.048l-0.127,0.049l-0.128,0.049l-0.127,0.05l-0.127,0.051l-0.126,0.05l-0.126,0.052l-0.126,0.052l-0.125,0.052l-0.124,0.053l-0.124,0.054l-0.124,0.054l-0.124,0.054l-0.124,0.055l-0.122,0.055l-0.121,0.056l-0.122,0.057l-0.122,0.057l-0.121,0.057l-0.12,0.057l-0.121,0.059l-0.12,0.059l-0.119,0.059l-0.119,0.06l-0.119,0.06l-0.118,0.061l-0.118,0.061l-0.118,0.062l-0.117,0.061l-0.117,0.063l-0.117,0.063l-0.115,0.063l-0.116,0.064l-0.116,0.065l-0.116,0.065l-0.114,0.065l-0.115,0.065l-0.114,0.067l-0.114,0.066l-0.113,0.067l-0.113,0.067l-0.113,0.068l-0.113,0.069l-0.112,0.068l-0.111,0.069l-0.113,0.07l-0.111,0.07l-0.11,0.07l-0.112,0.072l-0.11,0.071l-0.11,0.071l-0.109,0.072l-0.11,0.073l-0.11,0.073l-0.109,0.073l-0.108,0.074l-0.108,0.074l-0.109,0.075l-0.108,0.075l-0.107,0.075l-0.107,0.076l-0.107,0.076l-0.107,0.076l-0.107,0.078l-0.106,0.077l-0.105,0.077l-0.106,0.078l-0.106,0.079l-0.105,0.078l-0.104,0.079l-0.106,0.081l-0.104,0.079l-0.104,0.08l-0.104,0.081l-0.104,0.081l-0.104,0.081l-0.102,0.082l-0.104,0.082l-0.103,0.083l-0.102,0.082l-0.103,0.084l-0.102,0.083l-0.102,0.084l-0.102,0.084l-0.101,0.085l-0.102,0.085l-0.1,0.084l-0.101,0.086l-0.102,0.086l-0.099,0.086l-0.1,0.086l-0.101,0.087l-0.1,0.088l-0.1,0.087l-0.099,0.087l-0.099,0.088l-0.099,0.089l-0.099,0.089l-0.099,0.088l-0.099,0.09l-0.098,0.09l-0.098,0.089l-0.098,0.09l-0.098,0.091l-0.098,0.091l-0.097,0.091l-0.097,0.09l-0.098,0.092l-0.097,0.092l-0.096,0.092l-0.097,0.093l-0.097,0.092l-0.096,0.093l-0.097,0.094l-0.096,0.093l-0.095,0.093l-0.096,0.094l-0.096,0.095l-0.095,0.094l-0.096,0.095l-0.095,0.095l-0.095,0.095l-0.095,0.095l-0.095,0.096l-0.095,0.096l-0.094,0.096l-0.095,0.097l-0.094,0.096l-0.094,0.097l-0.094,0.096l-0.094,0.098l-0.094,0.097l-0.094,0.098l-0.093,0.097l-0.094,0.098l-0.093,0.098l-0.094,0.1l-0.093,0.098l-0.093,0.098l-0.094,0.1l-0.093,0.099l-0.092,0.099l-0.093,0.1l-0.093,0.1l-0.093,0.1l-0.091,0.099l-0.186,0.201l-0.184,0.201l-0.185,0.202l-0.184,0.203l-0.183,0.203l-0.184,0.203l-0.183,0.204l-0.183,0.205l-0.183,0.205l-0.183,0.206l-0.183,0.206l-0.182,0.206l-0.183,0.207l-0.182,0.207l-0.183,0.207l-0.182,0.208l-0.182,0.208l-0.365,0.417l-0.364,0.417l-0.365,0.418l-0.366,0.419l-0.366,0.418l-0.183,0.209l-0.184,0.21l-0.184,0.21l-0.184,0.209l-0.184,0.209l-0.185,0.209l-0.185,0.208l-0.186,0.209l-0.186,0.209l-0.185,0.208l-0.187,0.208l-0.187,0.208l-0.187,0.207l-0.189,0.207l-0.188,0.207l-0.189,0.206l-0.189,0.205l-0.096,0.104l-0.095,0.102l-0.095,0.103l-0.096,0.102l-0.096,0.103l-0.096,0.102l-0.094,0.101l-0.097,0.103l-0.096,0.102l-0.097,0.101l-0.096,0.102l-0.097,0.101l-0.098,0.102l-0.097,0.101l-0.096,0.1l-0.098,0.101l-0.098,0.101l-0.098,0.1l-0.098,0.101l-0.098,0.099l-0.099,0.101l-0.098,0.099l-0.099,0.099l-0.099,0.1l-0.1,0.1l-0.099,0.098l-0.1,0.099l-0.1,0.099l-0.1,0.098l-0.101,0.098l-0.101,0.098l-0.1,0.097l-0.101,0.097l-0.102,0.099l-0.102,0.097l-0.101,0.096l-0.103,0.097l-0.102,0.096l-0.102,0.096l-0.103,0.096l-0.104,0.096l-0.104,0.096l-0.103,0.094l-0.103,0.095l-0.105,0.095l-0.106,0.095l-0.104,0.093l-0.105,0.094l-0.105,0.093l-0.105,0.093l-0.107,0.093l-0.106,0.094l-0.107,0.092l-0.107,0.092l-0.106,0.091l-0.109,0.092l-0.108,0.091l-0.107,0.091l-0.109,0.09l-0.108,0.09l-0.11,0.091l-0.11,0.089l-0.108,0.089l-0.11,0.089l-0.112,0.089l-0.11,0.088l-0.111,0.088l-0.111,0.087l-0.112,0.087l-0.113,0.087l-0.112,0.086l-0.112,0.086l-0.114,0.086l-0.114,0.085l-0.114,0.085l-0.114,0.085l-0.115,0.084l-0.114,0.083l-0.116,0.083l-0.116,0.084l-0.116,0.082l-0.117,0.082l-0.116,0.081l-0.118,0.082l-0.118,0.081l-0.118,0.08l-0.119,0.08l-0.119,0.08l-0.118,0.079l-0.12,0.078l-0.12,0.078l-0.121,0.078l-0.121,0.077l-0.121,0.077l-0.122,0.076l-0.122,0.076l-0.124,0.076l-0.122,0.074l-0.123,0.074l-0.124,0.074l-0.125,0.074l-0.125,0.073l-0.125,0.072l-0.125,0.072l-0.126,0.071l-0.127,0.071l-0.127,0.07l-0.127,0.07l-0.128,0.069l-0.129,0.069l-0.128,0.068l-0.13,0.067l-0.129,0.067l-0.131,0.067l-0.13,0.066l-0.131,0.065l-0.131,0.064l-0.132,0.065l-0.133,0.063l-0.133,0.063l-0.133,0.062l-0.134,0.062l-0.135,0.061l-0.134,0.061l-0.135,0.06l-0.136,0.059l-0.137,0.059l-0.137,0.058l-0.136,0.057l-0.138,0.057l-0.138,0.056l-0.139,0.056l-0.139,0.054l-0.139,0.054l-0.14,0.054l-0.141,0.053l-0.14,0.052l-0.141,0.051l-0.073,0.026l-0.07,0.025l-0.071,0.025l-0.072,0.026l-0.071,0.024l-0.071,0.025l-0.072,0.024l-0.073,0.025l-0.071,0.024l-0.072,0.024l-0.072,0.024l-0.072,0.023l-0.072,0.023l-0.074,0.024l-0.072,0.023l-0.072,0.023l-0.074,0.023l-0.073,0.022l-0.073,0.022l-0.074,0.023l-0.074,0.022l-0.071,0.021l-0.075,0.022l-0.074,0.021l-0.073,0.022l-0.074,0.021l-0.074,0.02l-0.075,0.021l-0.074,0.021l-0.075,0.02l-0.075,0.02l-0.074,0.02l-0.076,0.02l-0.074,0.02l-0.075,0.019l-0.075,0.019l-0.075,0.019l-0.076,0.019l-0.077,0.019l-0.076,0.018l-0.074,0.018l-0.076,0.018l-0.077,0.018l-0.077,0.018l-0.076,0.018l-0.075,0.017l-0.077,0.017l-0.077,0.017l-0.077,0.017l-0.077,0.016l-0.078,0.017l-0.077,0.016l-0.077,0.016l-0.078,0.015l-0.078,0.016l-0.076,0.015l-0.078,0.015l-0.08,0.016l-0.077,0.014l-0.078,0.015l-0.079,0.014l-0.078,0.014l-0.079,0.014l-0.079,0.014l-0.079,0.013l-0.078,0.014l-0.08,0.013l-0.08,0.013l-0.079,0.013l-0.079,0.012l-0.08,0.013l-0.08,0.012l-0.08,0.012l-0.08,0.011l-0.08,0.012l-0.08,0.011l-0.08,0.011l-0.081,0.011l-0.082,0.011l-0.08,0.01l-0.081,0.011l-0.08,0.01l-0.081,0.009l-0.082,0.01l-0.082,0.01l-0.082,0.009l-0.08,0.009l-0.082,0.009l-0.083,0.008l-0.082,0.009l-0.082,0.008l-0.083,0.008l-0.082,0.008l-0.082,0.007l-0.083,0.007l-0.083,0.008l-0.083,0.006l-0.082,0.007l-0.085,0.007l-0.083,0.006l-0.083,0.006l-0.084,0.006l-0.084,0.005l-0.084,0.006l-0.084,0.005l-0.083,0.005l-0.085,0.005l-0.086,0.004l-0.083,0.005l-0.084,0.004l-0.085,0.003l-0.085,0.004l-0.086,0.004l-0.085,0.003l-0.086,0.003l-0.084,0.003l-0.086,0.002l-0.086,0.002l-0.085,0.003l-0.086,0.001l-0.087,0.002l-0.087,0.002l-0.085,0.001l-0.087,0.001l-0.086,0.001l-0.087,0l-0.087,0.001l-0.083,0l-0.764,-0.1l-0.712,-0.293l-0.612,-0.468l-0.469,-0.611l-0.296,-0.711l-0.102,-0.763l0.1,-0.764l0.293,-0.712l0.468,-0.612l0.611,-0.47l0.711,-0.296l0.763,-0.101l0.077,0l0.071,-0.001l0.072,0l0.071,-0.001l0.071,-0.001l0.072,-0.001l0.071,-0.001l0.069,-0.001l0.071,-0.002l0.071,-0.002l0.07,-0.001l0.07,-0.003l0.071,-0.002l0.07,-0.002l0.069,-0.003l0.07,-0.003l0.069,-0.003l0.069,-0.003l0.069,-0.003l0.07,-0.004l0.068,-0.003l0.068,-0.004l0.069,-0.004l0.069,-0.005l0.068,-0.004l0.068,-0.004l0.067,-0.005l0.069,-0.005l0.068,-0.005l0.066,-0.005l0.068,-0.006l0.067,-0.005l0.067,-0.006l0.066,-0.006l0.068,-0.006l0.067,-0.006l0.066,-0.007l0.067,-0.006l0.065,-0.007l0.066,-0.007l0.066,-0.007l0.066,-0.008l0.067,-0.007l0.064,-0.008l0.065,-0.007l0.066,-0.008l0.065,-0.008l0.066,-0.009l0.065,-0.008l0.064,-0.009l0.063,-0.008l0.065,-0.009l0.065,-0.009l0.064,-0.01l0.065,-0.009l0.064,-0.01l0.063,-0.009l0.064,-0.01l0.063,-0.01l0.064,-0.01l0.063,-0.011l0.063,-0.01l0.063,-0.011l0.063,-0.01l0.063,-0.011l0.063,-0.012l0.062,-0.011l0.063,-0.011l0.062,-0.012l0.063,-0.012l0.061,-0.011l0.061,-0.012l0.063,-0.013l0.062,-0.012l0.061,-0.013l0.062,-0.012l0.061,-0.013l0.061,-0.013l0.061,-0.013l0.061,-0.013l0.061,-0.014l0.06,-0.013l0.063,-0.014l0.06,-0.014l0.06,-0.014l0.06,-0.014l0.06,-0.014l0.061,-0.015l0.06,-0.015l0.059,-0.014l0.06,-0.015l0.059,-0.015l0.06,-0.015l0.06,-0.016l0.059,-0.015l0.059,-0.016l0.06,-0.016l0.058,-0.016l0.059,-0.016l0.059,-0.016l0.058,-0.016l0.059,-0.017l0.059,-0.017l0.059,-0.016l0.057,-0.017l0.058,-0.017l0.06,-0.018l0.058,-0.017l0.056,-0.017l0.059,-0.018l0.057,-0.018l0.057,-0.018l0.058,-0.018l0.058,-0.018l0.057,-0.018l0.057,-0.019l0.058,-0.019l0.056,-0.018l0.057,-0.019l0.058,-0.02l0.056,-0.019l0.056,-0.019l0.057,-0.019l0.057,-0.02l0.056,-0.02l0.056,-0.02l0.057,-0.02l0.054,-0.019l0.113,-0.042l0.112,-0.041l0.111,-0.042l0.111,-0.042l0.111,-0.043l0.11,-0.044l0.11,-0.043l0.109,-0.045l0.109,-0.045l0.11,-0.046l0.109,-0.046l0.107,-0.046l0.108,-0.048l0.108,-0.047l0.108,-0.049l0.107,-0.048l0.106,-0.05l0.107,-0.049l0.107,-0.051l0.105,-0.05l0.105,-0.051l0.106,-0.053l0.106,-0.052l0.104,-0.053l0.104,-0.053l0.105,-0.054l0.104,-0.054l0.104,-0.055l0.103,-0.056l0.103,-0.055l0.103,-0.057l0.103,-0.057l0.103,-0.057l0.102,-0.058l0.102,-0.058l0.102,-0.059l0.102,-0.059l0.101,-0.06l0.1,-0.06l0.102,-0.061l0.101,-0.062l0.1,-0.061l0.1,-0.062l0.101,-0.063l0.1,-0.063l0.099,-0.064l0.099,-0.064l0.099,-0.064l0.099,-0.065l0.1,-0.066l0.099,-0.066l0.098,-0.066l0.098,-0.067l0.098,-0.067l0.098,-0.068l0.098,-0.069l0.098,-0.068l0.097,-0.069l0.096,-0.07l0.097,-0.07l0.098,-0.071l0.097,-0.07l0.096,-0.072l0.096,-0.072l0.097,-0.072l0.095,-0.072l0.096,-0.073l0.097,-0.074l0.095,-0.074l0.095,-0.074l0.095,-0.075l0.096,-0.075l0.095,-0.076l0.094,-0.075l0.095,-0.077l0.095,-0.078l0.094,-0.077l0.094,-0.077l0.094,-0.078l0.094,-0.078l0.095,-0.08l0.094,-0.079l0.093,-0.079l0.093,-0.08l0.094,-0.081l0.093,-0.081l0.093,-0.081l0.093,-0.081l0.093,-0.083l0.093,-0.082l0.093,-0.083l0.093,-0.083l0.092,-0.083l0.092,-0.083l0.092,-0.085l0.093,-0.085l0.092,-0.085l0.092,-0.085l0.092,-0.085l0.092,-0.087l0.091,-0.086l0.092,-0.086l0.092,-0.088l0.091,-0.087l0.091,-0.087l0.092,-0.088l0.091,-0.089l0.091,-0.089l0.091,-0.088l0.092,-0.09l0.09,-0.089l0.091,-0.09l0.091,-0.091l0.091,-0.09l0.09,-0.091l0.091,-0.091l0.091,-0.092l0.09,-0.092l0.091,-0.092l0.09,-0.092l0.09,-0.093l0.09,-0.092l0.09,-0.094l0.091,-0.094l0.091,-0.094l0.089,-0.093l0.09,-0.095l0.09,-0.094l0.091,-0.095l0.089,-0.095l0.09,-0.095l0.091,-0.097l0.09,-0.096l0.089,-0.095l0.09,-0.097l0.09,-0.097l0.09,-0.097l0.088,-0.096l0.181,-0.195l0.179,-0.197l0.18,-0.196l0.179,-0.198l0.18,-0.199l0.179,-0.199l0.18,-0.2l0.18,-0.201l0.179,-0.202l0.18,-0.202l0.18,-0.203l0.18,-0.204l0.18,-0.204l0.181,-0.205l0.18,-0.205l0.181,-0.207l0.181,-0.206l0.363,-0.416l0.364,-0.416l0.365,-0.418l0.367,-0.42l0.368,-0.421l0.185,-0.211l0.185,-0.211l0.186,-0.211l0.186,-0.212l0.187,-0.211l0.187,-0.212l0.188,-0.212l0.188,-0.212l0.19,-0.212l0.189,-0.212l0.191,-0.212l0.191,-0.212l0.191,-0.211l0.193,-0.212l0.193,-0.211l0.194,-0.212l0.194,-0.211l0.098,-0.106l0.098,-0.106l0.098,-0.105l0.098,-0.105l0.099,-0.106l0.098,-0.105l0.099,-0.105l0.099,-0.105l0.1,-0.106l0.099,-0.104l0.1,-0.105l0.1,-0.105l0.1,-0.105l0.101,-0.104l0.1,-0.104l0.101,-0.105l0.101,-0.104l0.102,-0.105l0.102,-0.104l0.101,-0.103l0.103,-0.105l0.102,-0.103l0.103,-0.103l0.102,-0.104l0.104,-0.104l0.104,-0.103l0.103,-0.103l0.104,-0.103l0.104,-0.102l0.105,-0.103l0.105,-0.102l0.106,-0.103l0.105,-0.102l0.106,-0.102l0.106,-0.101l0.106,-0.102l0.107,-0.102l0.107,-0.101l0.107,-0.1l0.108,-0.102l0.108,-0.101l0.107,-0.1l0.109,-0.1l0.109,-0.1l0.109,-0.1l0.11,-0.1l0.11,-0.099l0.11,-0.1l0.11,-0.098l0.111,-0.099l0.111,-0.099l0.112,-0.098l0.112,-0.099l0.112,-0.097l0.112,-0.097l0.113,-0.098l0.114,-0.098l0.113,-0.096l0.113,-0.096l0.116,-0.097l0.114,-0.096l0.115,-0.096l0.116,-0.096l0.115,-0.094l0.117,-0.096l0.116,-0.094l0.117,-0.095l0.118,-0.094l0.117,-0.093l0.118,-0.094l0.119,-0.093l0.119,-0.093l0.119,-0.092l0.12,-0.093l0.12,-0.092l0.12,-0.091l0.121,-0.091l0.122,-0.092l0.122,-0.09l0.121,-0.09l0.124,-0.09l0.123,-0.09l0.123,-0.089l0.124,-0.088l0.124,-0.089l0.125,-0.088l0.125,-0.088l0.126,-0.087l0.126,-0.087l0.126,-0.087l0.127,-0.086l0.128,-0.085l0.127,-0.086l0.128,-0.084l0.129,-0.085l0.13,-0.085l0.13,-0.083l0.129,-0.083l0.131,-0.083l0.132,-0.083l0.13,-0.082l0.133,-0.081l0.133,-0.082l0.132,-0.08l0.133,-0.08l0.134,-0.08l0.135,-0.08l0.135,-0.079l0.135,-0.078l0.136,-0.078l0.137,-0.078l0.136,-0.076l0.138,-0.077l0.137,-0.076l0.139,-0.076l0.139,-0.074l0.139,-0.075l0.14,-0.074l0.14,-0.073l0.141,-0.073l0.141,-0.073l0.143,-0.072l0.142,-0.072l0.143,-0.07l0.143,-0.071l0.144,-0.069l0.144,-0.07l0.146,-0.068l0.145,-0.068l0.146,-0.068l0.147,-0.067l0.147,-0.067l0.147,-0.066l0.148,-0.065l0.149,-0.065l0.149,-0.064l0.15,-0.064l0.15,-0.062l0.151,-0.063l0.151,-0.062l0.152,-0.061l0.153,-0.06l0.152,-0.06l0.154,-0.06l0.155,-0.059l0.154,-0.058l0.155,-0.057l0.154,-0.056l0.08,-0.029l0.078,-0.028l0.079,-0.028l0.078,-0.028l0.078,-0.027l0.08,-0.028l0.079,-0.027l0.078,-0.027l0.079,-0.027l0.079,-0.027l0.081,-0.027l0.08,-0.026l0.078,-0.026l0.08,-0.026l0.08,-0.026l0.081,-0.026l0.081,-0.026l0.08,-0.025l0.08,-0.025l0.08,-0.025l0.081,-0.025l0.082,-0.025l0.081,-0.024l0.081,-0.025l0.082,-0.024l0.081,-0.024l0.081,-0.024l0.082,-0.024l0.083,-0.023l0.081,-0.023l0.082,-0.024l0.083,-0.023l0.082,-0.023l0.084,-0.023l0.083,-0.022l0.083,-0.022l0.083,-0.022l0.082,-0.022l0.084,-0.022l0.084,-0.022l0.083,-0.021l0.085,-0.022l0.083,-0.02l0.084,-0.021l0.085,-0.021l0.084,-0.021l0.085,-0.02l0.085,-0.02l0.085,-0.02l0.085,-0.02l0.084,-0.02l0.085,-0.019l0.086,-0.019l0.086,-0.02l0.086,-0.019l0.086,-0.018l0.085,-0.019l0.087,-0.018l0.086,-0.018l0.086,-0.018l0.087,-0.018l0.087,-0.018l0.087,-0.017l0.087,-0.017l0.086,-0.017l0.088,-0.017l0.088,-0.017l0.088,-0.016l0.088,-0.017l0.087,-0.016l0.087,-0.015l0.088,-0.016l0.09,-0.016l0.089,-0.015l0.088,-0.015l0.089,-0.015l0.089,-0.015l0.089,-0.015l0.089,-0.014l0.089,-0.014l0.091,-0.014l0.089,-0.014l0.09,-0.013l0.09,-0.014l0.091,-0.013l0.09,-0.013l0.089,-0.013l0.092,-0.012l0.091,-0.013l0.09,-0.012l0.091,-0.012l0.091,-0.012l0.092,-0.011l0.091,-0.012l0.092,-0.011l0.092,-0.011l0.092,-0.011l0.092,-0.01l0.092,-0.011l0.093,-0.01l0.092,-0.01l0.093,-0.01l0.093,-0.01l0.093,-0.009l0.093,-0.009l0.094,-0.009l0.093,-0.009l0.094,-0.008l0.093,-0.009l0.094,-0.008l0.096,-0.008l0.094,-0.008l0.094,-0.007l0.094,-0.008l0.095,-0.007l0.095,-0.007l0.095,-0.006l0.095,-0.007l0.095,-0.006l0.096,-0.006l0.096,-0.006l0.095,-0.006l0.096,-0.005l0.096,-0.006l0.097,-0.005l0.097,-0.005l0.097,-0.004l0.096,-0.004l0.097,-0.005l0.097,-0.004l0.097,-0.003l0.097,-0.004l0.098,-0.003l0.097,-0.003l0.098,-0.003l0.098,-0.003l0.099,-0.003l0.098,-0.002l0.099,-0.002l0.099,-0.002l0.098,-0.001l0.099,-0.002l0.1,-0.001l0.098,-0.001l0.1,-0.001l0.1,0l0.099,-0.001l0.099,0l0.763,0.1Z"/><path id="Ear" d="M442.889,559.156c30.066,0 47.19,13.247 48.285,34.882c0.453,8.964 -1.845,19.368 -7.115,30.867c-3.067,6.692 5.862,15.815 5.862,24.647c0,6.542 -6.079,-12.118 -6.079,-18.659" style="fill:none;stroke:#000;stroke-width:3px;"/></g><path id="Hat" d="M437.126,465.395c5.943,0 36.589,-13.62 44.736,-17.745c30.19,-15.286 150.539,-18.579 156.866,-17.742c5.596,0.742 74.855,1.846 81.689,2.774c7.745,1.051 12.833,5.385 19.529,3.338c8.782,-2.684 0.676,-95.433 -0.097,-100.77c-0.768,-5.302 18.832,-2.131 38.825,-5.047c9.79,-1.428 33.66,-9.593 52.563,-28.317c21.869,-21.662 44.281,-55.58 54.812,-81.935c0.618,-1.549 6.521,-14.101 9.985,-27.802c2.915,-11.534 2.086,-23.987 2.298,-31.66c0.693,-25.075 -10.86,-71.27 -40.822,-88.351c-2.704,-1.541 -20.624,-8.689 -35.872,-11.932c-9.617,-2.045 -18.171,-0.966 -21.174,-0.901c-11.159,0.245 -27.291,4.142 -45.003,7.936c-41.799,8.954 -95.214,26.14 -128.96,22.485c-38.9,-4.212 -79.131,-19.275 -106.134,-32.446c-13.557,-6.612 -23.85,-11.252 -30.49,-12.889c-0.956,-0.236 -9.08,-4.441 -19.871,-4.7c-9.941,-0.239 -22.088,3.272 -34.287,7.305c-39.034,12.905 -82.142,42.063 -84.506,44.893c-10.913,13.062 -26.599,30.795 -37.326,48.535c-6.5,10.748 -9.35,21.911 -13.451,30.859c-5.641,12.307 -11.738,70.57 11.401,122.865c0.549,1.239 12.84,18.353 29.167,30.949c13.028,10.05 28.96,16.191 41.111,16.629c9.629,0.347 26.692,-1.256 40.407,-4.169c8.815,-1.872 27.592,-4.36 28.328,-3.36c4.7,6.383 0.793,10.781 -1.42,17.532c-3.189,9.727 -6.561,20.223 -8.168,32.601c-4.955,38.182 -4.136,81.065 -4.136,81.065Z" style="fill:#f2f2f2;stroke:#000;stroke-width:4px;"/><path id="HatStripe" d="M472.429,264.118c0,-9.967 27.41,-13.232 34.989,-13.232c21.736,0 52.277,0.651 72.502,9.781c6.853,3.093 19.573,12.443 23.413,12.443"/><path d="M507.929,249.121l0.516,0l0.518,0.001l0.521,0.001l0.525,0.001l0.527,0.002l0.531,0.002l0.533,0.002l0.537,0.003l0.539,0.003l0.541,0.004l0.545,0.004l0.547,0.005l0.55,0.005l0.552,0.006l0.554,0.006l0.557,0.007l0.56,0.008l0.561,0.008l0.564,0.009l0.567,0.01l0.568,0.01l0.57,0.011l0.572,0.012l0.575,0.013l0.576,0.013l0.578,0.014l0.58,0.016l0.582,0.016l0.583,0.016l0.585,0.018l0.586,0.019l0.294,0.01l0.589,0.02l0.295,0.01l0.591,0.022l0.296,0.011l0.297,0.012l0.296,0.011l0.297,0.012l0.298,0.013l0.297,0.012l0.298,0.013l0.298,0.013l0.299,0.013l0.299,0.014l0.299,0.014l0.299,0.014l0.3,0.015l0.299,0.015l0.301,0.015l0.3,0.015l0.301,0.016l0.3,0.016l0.301,0.016l0.302,0.017l0.301,0.017l0.302,0.017l0.301,0.018l0.303,0.018l0.302,0.018l0.302,0.019l0.303,0.018l0.302,0.02l0.303,0.019l0.303,0.02l0.303,0.02l0.304,0.021l0.303,0.021l0.304,0.021l0.303,0.022l0.304,0.022l0.304,0.022l0.304,0.023l0.304,0.023l0.304,0.024l0.304,0.023l0.304,0.025l0.304,0.024l0.305,0.025l0.304,0.026l0.304,0.025l0.305,0.027l0.304,0.026l0.305,0.027l0.304,0.027l0.305,0.028l0.304,0.028l0.305,0.029l0.304,0.029l0.305,0.029l0.304,0.03l0.305,0.03l0.304,0.03l0.304,0.032l0.305,0.031l0.304,0.032l0.304,0.032l0.304,0.033l0.304,0.033l0.304,0.034l0.304,0.034l0.303,0.034l0.304,0.035l0.303,0.036l0.304,0.036l0.303,0.036l0.303,0.037l0.303,0.037l0.302,0.038l0.303,0.038l0.303,0.039l0.302,0.039l0.302,0.039l0.302,0.04l0.302,0.041l0.301,0.041l0.302,0.042l0.301,0.042l0.3,0.042l0.301,0.043l0.301,0.044l0.3,0.044l0.3,0.045l0.299,0.045l0.3,0.045l0.299,0.046l0.299,0.047l0.299,0.047l0.298,0.048l0.298,0.048l0.298,0.049l0.298,0.049l0.297,0.05l0.297,0.05l0.296,0.051l0.296,0.052l0.296,0.052l0.296,0.052l0.295,0.053l0.295,0.054l0.294,0.054l0.294,0.055l0.294,0.055l0.294,0.056l0.293,0.057l0.292,0.057l0.292,0.058l0.292,0.058l0.291,0.059l0.292,0.059l0.29,0.06l0.29,0.061l0.29,0.061l0.289,0.062l0.289,0.062l0.288,0.063l0.288,0.064l0.287,0.064l0.287,0.065l0.286,0.066l0.286,0.066l0.285,0.066l0.285,0.068l0.284,0.068l0.284,0.069l0.284,0.069l0.282,0.07l0.283,0.07l0.281,0.072l0.282,0.072l0.28,0.072l0.28,0.073l0.279,0.074l0.279,0.075l0.278,0.075l0.278,0.076l0.277,0.076l0.277,0.078l0.276,0.077l0.275,0.079l0.275,0.079l0.274,0.08l0.273,0.081l0.273,0.081l0.272,0.082l0.271,0.083l0.271,0.084l0.27,0.084l0.269,0.085l0.269,0.085l0.268,0.087l0.267,0.087l0.267,0.088l0.266,0.088l0.265,0.089l0.264,0.09l0.264,0.091l0.263,0.092l0.262,0.092l0.262,0.093l0.261,0.094l0.26,0.094l0.259,0.095l0.258,0.096l0.258,0.097l0.257,0.098l0.256,0.098l0.255,0.099l0.255,0.1l0.253,0.101l0.253,0.102l0.252,0.102l0.251,0.103l0.25,0.104l0.25,0.105l0.248,0.105l0.249,0.106l0.246,0.108l0.246,0.107l0.246,0.109l0.244,0.11l0.172,0.078l0.174,0.081l0.176,0.083l0.176,0.084l0.179,0.087l0.18,0.088l0.182,0.091l0.182,0.092l0.185,0.094l0.279,0.144l0.283,0.148l0.285,0.151l0.289,0.156l0.193,0.105l0.195,0.107l0.196,0.108l0.198,0.11l0.199,0.111l0.199,0.112l0.201,0.114l0.202,0.114l0.203,0.116l0.204,0.118l0.204,0.118l0.206,0.119l0.206,0.12l0.208,0.121l0.417,0.245l0.209,0.124l0.21,0.125l0.423,0.251l0.212,0.127l0.425,0.255l0.214,0.129l0.427,0.258l0.215,0.13l0.43,0.26l0.43,0.262l0.431,0.262l1.292,0.788l0.429,0.261l0.429,0.261l0.426,0.259l0.425,0.257l0.422,0.255l0.21,0.127l0.418,0.251l0.208,0.124l0.413,0.247l0.41,0.243l0.203,0.12l0.202,0.119l0.201,0.117l0.2,0.117l0.199,0.116l0.198,0.114l0.195,0.113l0.195,0.111l0.194,0.111l0.192,0.109l0.19,0.107l0.189,0.106l0.187,0.104l0.186,0.103l0.184,0.101l0.182,0.099l0.27,0.146l0.265,0.142l0.262,0.137l0.256,0.133l0.251,0.128l0.247,0.124l0.241,0.119l0.235,0.113l0.154,0.073l0.151,0.07l0.222,0.101l0.215,0.095l0.208,0.089l0.202,0.084l0.13,0.052l0.188,0.073l0.181,0.066l0.171,0.06l0.163,0.054l0.152,0.046l0.142,0.04l0.131,0.033l0.118,0.026l0.105,0.019l0.091,0.014l0.145,0.012l0.022,0l0.603,0.11l0.529,0.309l0.392,0.472l0.207,0.577l-0.004,0.613l-0.212,0.575l-0.397,0.467l-0.532,0.304l-0.604,0.104l-0.031,-0.001l-0.038,0l-0.04,-0.001l-0.038,-0.001l-0.039,-0.002l-0.039,-0.002l-0.038,-0.002l-0.038,-0.003l-0.039,-0.002l-0.038,-0.004l-0.036,-0.003l-0.04,-0.004l-0.037,-0.004l-0.041,-0.004l-0.073,-0.009l-0.075,-0.01l-0.074,-0.012l-0.075,-0.012l-0.075,-0.013l-0.074,-0.014l-0.074,-0.015l-0.075,-0.015l-0.075,-0.017l-0.074,-0.017l-0.075,-0.018l-0.074,-0.019l-0.075,-0.019l-0.076,-0.021l-0.075,-0.021l-0.074,-0.021l-0.077,-0.023l-0.076,-0.023l-0.076,-0.024l-0.076,-0.024l-0.076,-0.025l-0.077,-0.026l-0.078,-0.027l-0.077,-0.026l-0.077,-0.028l-0.079,-0.029l-0.078,-0.028l-0.078,-0.03l-0.08,-0.03l-0.079,-0.031l-0.08,-0.031l-0.08,-0.032l-0.081,-0.032l-0.081,-0.034l-0.081,-0.033l-0.081,-0.034l-0.083,-0.035l-0.082,-0.036l-0.083,-0.036l-0.083,-0.036l-0.084,-0.037l-0.084,-0.038l-0.084,-0.038l-0.085,-0.038l-0.085,-0.039l-0.086,-0.04l-0.086,-0.04l-0.086,-0.041l-0.087,-0.041l-0.087,-0.042l-0.088,-0.042l-0.088,-0.043l-0.088,-0.042l-0.088,-0.044l-0.089,-0.044l-0.09,-0.045l-0.09,-0.045l-0.09,-0.045l-0.091,-0.046l-0.09,-0.047l-0.092,-0.046l-0.092,-0.048l-0.092,-0.048l-0.092,-0.048l-0.092,-0.048l-0.094,-0.049l-0.093,-0.05l-0.094,-0.049l-0.094,-0.051l-0.095,-0.051l-0.096,-0.051l-0.189,-0.103l-0.193,-0.104l-0.193,-0.107l-0.194,-0.107l-0.196,-0.109l-0.197,-0.111l-0.198,-0.111l-0.2,-0.114l-0.2,-0.114l-0.201,-0.115l-0.203,-0.117l-0.203,-0.117l-0.204,-0.119l-0.206,-0.12l-0.206,-0.121l-0.207,-0.122l-0.208,-0.122l-0.208,-0.123l-0.209,-0.125l-0.21,-0.125l-0.211,-0.125l-0.211,-0.127l-0.211,-0.127l-0.213,-0.128l-0.213,-0.128l-0.213,-0.128l-0.213,-0.13l-0.428,-0.259l-0.429,-0.261l-0.431,-0.261l-0.43,-0.263l-0.431,-0.262l-0.86,-0.525l-0.429,-0.261l-0.428,-0.26l-0.427,-0.259l-0.212,-0.128l-0.212,-0.128l-0.211,-0.127l-0.211,-0.127l-0.21,-0.126l-0.209,-0.126l-0.209,-0.125l-0.208,-0.124l-0.207,-0.123l-0.206,-0.122l-0.205,-0.121l-0.204,-0.12l-0.203,-0.119l-0.202,-0.119l-0.202,-0.117l-0.199,-0.115l-0.199,-0.115l-0.197,-0.114l-0.197,-0.112l-0.194,-0.11l-0.194,-0.11l-0.192,-0.108l-0.19,-0.106l-0.189,-0.105l-0.187,-0.103l-0.186,-0.102l-0.184,-0.1l-0.091,-0.049l-0.091,-0.049l-0.09,-0.048l-0.09,-0.048l-0.09,-0.048l-0.088,-0.047l-0.089,-0.046l-0.088,-0.047l-0.087,-0.045l-0.087,-0.045l-0.087,-0.045l-0.086,-0.044l-0.085,-0.044l-0.085,-0.043l-0.084,-0.043l-0.084,-0.042l-0.084,-0.041l-0.082,-0.041l-0.082,-0.041l-0.082,-0.04l-0.081,-0.039l-0.08,-0.039l-0.08,-0.038l-0.079,-0.038l-0.078,-0.037l-0.078,-0.036l-0.077,-0.036l-0.077,-0.036l-0.076,-0.034l-0.075,-0.035l-0.115,-0.051l-0.116,-0.052l-0.115,-0.051l-0.116,-0.052l-0.117,-0.051l-0.116,-0.051l-0.117,-0.051l-0.117,-0.05l-0.116,-0.051l-0.118,-0.05l-0.118,-0.05l-0.118,-0.05l-0.118,-0.05l-0.118,-0.049l-0.119,-0.05l-0.119,-0.049l-0.119,-0.049l-0.119,-0.049l-0.12,-0.048l-0.12,-0.049l-0.12,-0.048l-0.12,-0.048l-0.12,-0.048l-0.121,-0.048l-0.121,-0.048l-0.121,-0.047l-0.121,-0.047l-0.122,-0.048l-0.122,-0.047l-0.122,-0.046l-0.122,-0.047l-0.123,-0.046l-0.122,-0.046l-0.123,-0.047l-0.124,-0.046l-0.123,-0.045l-0.123,-0.046l-0.124,-0.045l-0.124,-0.045l-0.125,-0.045l-0.124,-0.045l-0.125,-0.045l-0.125,-0.045l-0.125,-0.044l-0.125,-0.044l-0.126,-0.044l-0.125,-0.044l-0.126,-0.044l-0.126,-0.043l-0.127,-0.044l-0.126,-0.043l-0.127,-0.043l-0.127,-0.043l-0.127,-0.042l-0.127,-0.043l-0.128,-0.042l-0.127,-0.042l-0.129,-0.042l-0.128,-0.042l-0.128,-0.042l-0.129,-0.041l-0.128,-0.042l-0.129,-0.041l-0.129,-0.041l-0.13,-0.041l-0.129,-0.041l-0.13,-0.04l-0.13,-0.04l-0.13,-0.041l-0.13,-0.04l-0.13,-0.04l-0.131,-0.039l-0.131,-0.04l-0.131,-0.039l-0.131,-0.04l-0.131,-0.039l-0.132,-0.039l-0.132,-0.038l-0.131,-0.039l-0.133,-0.038l-0.132,-0.039l-0.132,-0.038l-0.133,-0.038l-0.133,-0.037l-0.133,-0.038l-0.133,-0.038l-0.133,-0.037l-0.134,-0.037l-0.133,-0.037l-0.134,-0.037l-0.134,-0.037l-0.134,-0.036l-0.134,-0.037l-0.135,-0.036l-0.135,-0.036l-0.134,-0.036l-0.135,-0.036l-0.136,-0.035l-0.135,-0.036l-0.135,-0.035l-0.136,-0.035l-0.136,-0.035l-0.136,-0.035l-0.136,-0.035l-0.136,-0.035l-0.136,-0.034l-0.137,-0.034l-0.137,-0.034l-0.137,-0.034l-0.137,-0.034l-0.137,-0.034l-0.137,-0.033l-0.138,-0.033l-0.137,-0.034l-0.138,-0.033l-0.138,-0.033l-0.138,-0.032l-0.138,-0.033l-0.277,-0.065l-0.277,-0.064l-0.278,-0.063l-0.279,-0.063l-0.279,-0.063l-0.28,-0.062l-0.28,-0.061l-0.28,-0.061l-0.281,-0.06l-0.282,-0.059l-0.283,-0.059l-0.282,-0.059l-0.283,-0.058l-0.284,-0.057l-0.284,-0.057l-0.285,-0.056l-0.285,-0.055l-0.285,-0.056l-0.286,-0.054l-0.287,-0.054l-0.287,-0.054l-0.287,-0.052l-0.288,-0.053l-0.288,-0.052l-0.288,-0.051l-0.289,-0.051l-0.289,-0.05l-0.29,-0.05l-0.29,-0.049l-0.291,-0.049l-0.291,-0.048l-0.291,-0.047l-0.291,-0.048l-0.292,-0.046l-0.292,-0.046l-0.293,-0.046l-0.293,-0.045l-0.293,-0.045l-0.293,-0.044l-0.294,-0.044l-0.294,-0.043l-0.294,-0.042l-0.295,-0.043l-0.295,-0.041l-0.295,-0.042l-0.295,-0.04l-0.296,-0.041l-0.296,-0.039l-0.296,-0.04l-0.296,-0.039l-0.297,-0.038l-0.297,-0.038l-0.297,-0.037l-0.297,-0.037l-0.297,-0.037l-0.298,-0.036l-0.298,-0.036l-0.298,-0.035l-0.298,-0.035l-0.298,-0.034l-0.299,-0.034l-0.298,-0.034l-0.299,-0.033l-0.299,-0.032l-0.299,-0.033l-0.299,-0.031l-0.299,-0.032l-0.299,-0.031l-0.3,-0.03l-0.299,-0.03l-0.3,-0.03l-0.299,-0.029l-0.3,-0.029l-0.3,-0.029l-0.3,-0.028l-0.299,-0.027l-0.3,-0.028l-0.3,-0.027l-0.3,-0.026l-0.3,-0.026l-0.3,-0.026l-0.3,-0.025l-0.3,-0.025l-0.3,-0.025l-0.3,-0.024l-0.3,-0.024l-0.3,-0.024l-0.3,-0.023l-0.3,-0.023l-0.3,-0.022l-0.299,-0.022l-0.3,-0.022l-0.3,-0.021l-0.299,-0.021l-0.3,-0.021l-0.299,-0.02l-0.299,-0.02l-0.299,-0.02l-0.3,-0.019l-0.298,-0.019l-0.299,-0.019l-0.299,-0.018l-0.298,-0.018l-0.299,-0.018l-0.298,-0.017l-0.298,-0.017l-0.298,-0.017l-0.298,-0.017l-0.297,-0.016l-0.298,-0.016l-0.297,-0.015l-0.297,-0.015l-0.296,-0.015l-0.297,-0.015l-0.296,-0.014l-0.296,-0.015l-0.296,-0.013l-0.296,-0.014l-0.295,-0.013l-0.295,-0.013l-0.295,-0.013l-0.295,-0.012l-0.294,-0.012l-0.294,-0.012l-0.294,-0.012l-0.293,-0.011l-0.293,-0.011l-0.293,-0.011l-0.292,-0.011l-0.292,-0.01l-0.292,-0.01l-0.292,-0.01l-0.291,-0.01l-0.291,-0.009l-0.29,-0.009l-0.29,-0.009l-0.29,-0.009l-0.289,-0.008l-0.289,-0.009l-0.288,-0.008l-0.288,-0.007l-0.288,-0.008l-0.287,-0.007l-0.287,-0.008l-0.287,-0.006l-0.286,-0.007l-0.285,-0.007l-0.285,-0.006l-0.285,-0.006l-0.284,-0.006l-0.283,-0.006l-0.567,-0.011l-0.564,-0.01l-0.562,-0.01l-0.559,-0.009l-0.558,-0.008l-0.556,-0.008l-0.553,-0.007l-0.551,-0.006l-0.549,-0.006l-0.546,-0.005l-0.544,-0.005l-0.542,-0.004l-0.538,-0.004l-0.537,-0.003l-0.533,-0.003l-0.531,-0.002l-0.528,-0.002l-0.525,-0.002l-0.522,-0.001l-0.52,-0.001l-0.516,-0.001l-0.513,0l-0.509,0l-0.085,0l-0.086,0l-0.088,0.001l-0.09,0.001l-0.092,0.001l-0.093,0.002l-0.096,0.002l-0.097,0.002l-0.099,0.002l-0.101,0.003l-0.102,0.003l-0.105,0.004l-0.106,0.003l-0.108,0.004l-0.109,0.005l-0.111,0.004l-0.112,0.005l-0.115,0.005l-0.116,0.006l-0.117,0.006l-0.119,0.006l-0.12,0.007l-0.122,0.006l-0.124,0.008l-0.124,0.007l-0.127,0.008l-0.128,0.008l-0.129,0.009l-0.13,0.008l-0.132,0.009l-0.133,0.01l-0.135,0.01l-0.136,0.01l-0.136,0.01l-0.139,0.011l-0.14,0.011l-0.14,0.012l-0.143,0.012l-0.143,0.012l-0.144,0.012l-0.146,0.013l-0.146,0.013l-0.148,0.014l-0.149,0.014l-0.15,0.014l-0.151,0.015l-0.152,0.015l-0.153,0.015l-0.155,0.016l-0.155,0.016l-0.156,0.016l-0.157,0.017l-0.158,0.017l-0.159,0.017l-0.16,0.018l-0.161,0.018l-0.161,0.019l-0.162,0.019l-0.164,0.019l-0.164,0.019l-0.165,0.02l-0.165,0.021l-0.167,0.021l-0.167,0.021l-0.168,0.021l-0.168,0.022l-0.17,0.022l-0.17,0.023l-0.17,0.023l-0.172,0.023l-0.172,0.024l-0.172,0.024l-0.173,0.024l-0.174,0.025l-0.174,0.025l-0.175,0.026l-0.175,0.026l-0.176,0.027l-0.176,0.026l-0.176,0.027l-0.178,0.028l-0.177,0.028l-0.178,0.028l-0.178,0.029l-0.179,0.029l-0.179,0.03l-0.18,0.03l-0.18,0.03l-0.18,0.031l-0.18,0.031l-0.181,0.031l-0.181,0.032l-0.181,0.033l-0.181,0.032l-0.181,0.033l-0.182,0.034l-0.182,0.034l-0.182,0.034l-0.183,0.035l-0.182,0.035l-0.182,0.036l-0.183,0.036l-0.182,0.036l-0.183,0.037l-0.182,0.037l-0.183,0.037l-0.182,0.039l-0.183,0.038l-0.182,0.039l-0.183,0.039l-0.182,0.04l-0.182,0.04l-0.182,0.04l-0.183,0.041l-0.181,0.042l-0.182,0.041l-0.182,0.043l-0.181,0.042l-0.181,0.043l-0.181,0.044l-0.18,0.044l-0.181,0.044l-0.179,0.045l-0.18,0.045l-0.179,0.045l-0.179,0.046l-0.179,0.047l-0.178,0.047l-0.178,0.047l-0.177,0.048l-0.177,0.048l-0.177,0.048l-0.176,0.049l-0.175,0.05l-0.175,0.05l-0.175,0.05l-0.174,0.051l-0.173,0.051l-0.173,0.051l-0.172,0.052l-0.172,0.053l-0.171,0.053l-0.17,0.053l-0.169,0.054l-0.169,0.054l-0.169,0.054l-0.167,0.055l-0.167,0.056l-0.166,0.055l-0.165,0.057l-0.164,0.056l-0.164,0.058l-0.163,0.057l-0.08,0.029l-0.081,0.029l-0.08,0.029l-0.08,0.029l-0.081,0.03l-0.08,0.029l-0.08,0.03l-0.079,0.029l-0.079,0.03l-0.079,0.03l-0.079,0.03l-0.078,0.03l-0.078,0.03l-0.078,0.031l-0.078,0.03l-0.078,0.031l-0.077,0.03l-0.077,0.031l-0.076,0.031l-0.077,0.031l-0.076,0.031l-0.076,0.031l-0.076,0.031l-0.075,0.031l-0.075,0.032l-0.075,0.031l-0.074,0.032l-0.075,0.032l-0.074,0.032l-0.073,0.031l-0.074,0.032l-0.072,0.032l-0.074,0.033l-0.072,0.032l-0.072,0.032l-0.072,0.033l-0.071,0.032l-0.072,0.033l-0.071,0.033l-0.071,0.033l-0.07,0.033l-0.07,0.033l-0.07,0.033l-0.07,0.034l-0.069,0.033l-0.069,0.033l-0.068,0.034l-0.067,0.033l-0.069,0.034l-0.068,0.034l-0.066,0.034l-0.067,0.034l-0.067,0.034l-0.066,0.034l-0.065,0.035l-0.066,0.034l-0.065,0.035l-0.065,0.034l-0.064,0.035l-0.064,0.034l-0.064,0.036l-0.063,0.034l-0.062,0.035l-0.063,0.035l-0.063,0.036l-0.062,0.035l-0.061,0.035l-0.061,0.035l-0.06,0.036l-0.06,0.035l-0.061,0.036l-0.06,0.036l-0.059,0.036l-0.058,0.035l-0.058,0.036l-0.058,0.036l-0.058,0.036l-0.057,0.036l-0.057,0.037l-0.056,0.036l-0.056,0.036l-0.056,0.037l-0.055,0.036l-0.054,0.037l-0.054,0.036l-0.054,0.037l-0.054,0.037l-0.053,0.037l-0.052,0.036l-0.052,0.037l-0.052,0.037l-0.052,0.037l-0.05,0.037l-0.051,0.037l-0.049,0.037l-0.05,0.037l-0.049,0.038l-0.049,0.037l-0.049,0.038l-0.047,0.037l-0.047,0.037l-0.047,0.038l-0.046,0.037l-0.046,0.037l-0.045,0.038l-0.046,0.038l-0.045,0.038l-0.043,0.037l-0.044,0.037l-0.043,0.038l-0.042,0.038l-0.043,0.038l-0.042,0.038l-0.041,0.038l-0.041,0.037l-0.039,0.037l-0.041,0.039l-0.039,0.038l-0.039,0.038l-0.039,0.038l-0.038,0.037l-0.037,0.038l-0.036,0.038l-0.038,0.038l-0.035,0.038l-0.036,0.037l-0.035,0.038l-0.034,0.038l-0.035,0.039l-0.033,0.037l-0.033,0.038l-0.033,0.038l-0.032,0.037l-0.031,0.038l-0.032,0.039l-0.03,0.037l-0.031,0.038l-0.03,0.038l-0.028,0.037l-0.029,0.037l-0.029,0.038l-0.028,0.038l-0.027,0.038l-0.026,0.036l-0.027,0.038l-0.026,0.038l-0.025,0.037l-0.025,0.037l-0.024,0.038l-0.024,0.037l-0.023,0.037l-0.024,0.039l-0.022,0.036l-0.022,0.037l-0.022,0.037l-0.021,0.037l-0.021,0.039l-0.02,0.035l-0.019,0.037l-0.021,0.039l-0.018,0.035l-0.018,0.037l-0.018,0.037l-0.018,0.037l-0.017,0.037l-0.016,0.036l-0.017,0.037l-0.016,0.038l-0.015,0.037l-0.015,0.036l-0.014,0.035l-0.015,0.039l-0.013,0.036l-0.013,0.036l-0.013,0.038l-0.013,0.036l-0.011,0.036l-0.012,0.036l-0.011,0.038l-0.011,0.038l-0.01,0.035l-0.01,0.036l-0.01,0.039l-0.009,0.036l-0.009,0.037l-0.008,0.037l-0.008,0.037l-0.007,0.037l-0.007,0.037l-0.007,0.036l-0.006,0.038l-0.006,0.039l-0.006,0.036l-0.005,0.038l-0.005,0.038l-0.004,0.037l-0.004,0.039l-0.003,0.037l-0.003,0.039l-0.003,0.039l-0.002,0.038l-0.002,0.039l-0.002,0.038l-0.001,0.039l0,0.04l-0.001,0.049l-0.11,0.603l-0.309,0.529l-0.472,0.392l-0.578,0.206l-0.613,-0.004l-0.575,-0.213l-0.467,-0.397l-0.303,-0.533l-0.103,-0.604l0,-0.067l0.002,-0.076l0.002,-0.078l0.003,-0.078l0.003,-0.075l0.005,-0.078l0.005,-0.076l0.006,-0.075l0.008,-0.077l0.007,-0.076l0.009,-0.076l0.01,-0.076l0.01,-0.075l0.011,-0.076l0.011,-0.073l0.013,-0.075l0.014,-0.076l0.014,-0.074l0.015,-0.074l0.016,-0.074l0.016,-0.073l0.018,-0.074l0.018,-0.073l0.018,-0.071l0.02,-0.073l0.021,-0.075l0.02,-0.071l0.022,-0.07l0.022,-0.072l0.024,-0.072l0.024,-0.071l0.024,-0.07l0.026,-0.071l0.026,-0.071l0.026,-0.067l0.028,-0.071l0.028,-0.07l0.029,-0.068l0.029,-0.068l0.03,-0.067l0.031,-0.07l0.031,-0.067l0.032,-0.067l0.033,-0.066l0.033,-0.067l0.034,-0.067l0.034,-0.065l0.035,-0.065l0.036,-0.067l0.036,-0.064l0.037,-0.065l0.037,-0.064l0.038,-0.064l0.039,-0.064l0.039,-0.062l0.039,-0.064l0.041,-0.063l0.04,-0.061l0.042,-0.063l0.042,-0.062l0.042,-0.06l0.042,-0.061l0.044,-0.061l0.044,-0.061l0.044,-0.06l0.045,-0.059l0.045,-0.06l0.047,-0.059l0.046,-0.059l0.046,-0.058l0.048,-0.059l0.047,-0.057l0.048,-0.058l0.05,-0.058l0.049,-0.057l0.05,-0.056l0.05,-0.057l0.049,-0.055l0.051,-0.056l0.052,-0.055l0.052,-0.056l0.052,-0.055l0.052,-0.054l0.054,-0.055l0.053,-0.054l0.055,-0.054l0.054,-0.053l0.054,-0.054l0.056,-0.053l0.054,-0.052l0.057,-0.053l0.057,-0.053l0.056,-0.051l0.057,-0.052l0.057,-0.051l0.059,-0.051l0.058,-0.051l0.058,-0.051l0.06,-0.051l0.059,-0.05l0.059,-0.049l0.06,-0.05l0.061,-0.05l0.061,-0.049l0.061,-0.048l0.062,-0.049l0.062,-0.049l0.062,-0.048l0.063,-0.048l0.063,-0.048l0.063,-0.047l0.064,-0.048l0.064,-0.047l0.065,-0.047l0.064,-0.047l0.065,-0.046l0.065,-0.047l0.066,-0.046l0.066,-0.045l0.066,-0.046l0.067,-0.045l0.067,-0.046l0.068,-0.045l0.067,-0.045l0.068,-0.044l0.069,-0.044l0.069,-0.045l0.068,-0.043l0.069,-0.044l0.07,-0.044l0.069,-0.043l0.07,-0.043l0.072,-0.044l0.071,-0.043l0.07,-0.042l0.071,-0.042l0.072,-0.042l0.072,-0.043l0.072,-0.041l0.073,-0.042l0.073,-0.042l0.073,-0.041l0.073,-0.041l0.074,-0.041l0.074,-0.041l0.074,-0.04l0.074,-0.041l0.075,-0.04l0.076,-0.04l0.074,-0.04l0.076,-0.04l0.076,-0.039l0.076,-0.04l0.077,-0.039l0.076,-0.039l0.077,-0.039l0.077,-0.039l0.077,-0.038l0.078,-0.039l0.078,-0.038l0.079,-0.038l0.078,-0.038l0.078,-0.037l0.079,-0.038l0.08,-0.037l0.079,-0.038l0.08,-0.037l0.08,-0.037l0.079,-0.036l0.081,-0.037l0.081,-0.036l0.081,-0.037l0.081,-0.036l0.081,-0.036l0.082,-0.036l0.081,-0.035l0.083,-0.036l0.082,-0.035l0.082,-0.035l0.083,-0.036l0.082,-0.034l0.083,-0.035l0.084,-0.035l0.083,-0.034l0.084,-0.035l0.084,-0.034l0.084,-0.034l0.084,-0.034l0.085,-0.033l0.085,-0.034l0.085,-0.033l0.085,-0.034l0.085,-0.033l0.085,-0.033l0.086,-0.033l0.086,-0.032l0.086,-0.033l0.086,-0.032l0.087,-0.033l0.087,-0.032l0.086,-0.032l0.087,-0.032l0.087,-0.031l0.087,-0.032l0.088,-0.031l0.089,-0.032l0.175,-0.062l0.176,-0.062l0.177,-0.061l0.178,-0.06l0.178,-0.06l0.179,-0.06l0.18,-0.059l0.18,-0.058l0.181,-0.058l0.181,-0.058l0.182,-0.056l0.182,-0.057l0.183,-0.056l0.183,-0.055l0.183,-0.055l0.185,-0.054l0.184,-0.054l0.185,-0.053l0.186,-0.053l0.186,-0.052l0.186,-0.052l0.186,-0.051l0.187,-0.051l0.187,-0.051l0.188,-0.049l0.187,-0.05l0.188,-0.049l0.188,-0.048l0.189,-0.048l0.188,-0.047l0.19,-0.047l0.189,-0.047l0.189,-0.046l0.189,-0.045l0.19,-0.045l0.19,-0.045l0.19,-0.044l0.19,-0.044l0.19,-0.043l0.19,-0.043l0.19,-0.042l0.19,-0.042l0.191,-0.041l0.19,-0.041l0.19,-0.041l0.19,-0.04l0.19,-0.039l0.19,-0.04l0.19,-0.038l0.19,-0.039l0.19,-0.037l0.19,-0.038l0.189,-0.037l0.19,-0.036l0.189,-0.036l0.189,-0.036l0.189,-0.035l0.188,-0.035l0.189,-0.034l0.188,-0.034l0.188,-0.034l0.187,-0.033l0.188,-0.033l0.186,-0.032l0.187,-0.032l0.186,-0.031l0.186,-0.031l0.186,-0.031l0.185,-0.03l0.184,-0.03l0.185,-0.029l0.183,-0.029l0.184,-0.028l0.182,-0.028l0.183,-0.028l0.182,-0.027l0.181,-0.027l0.181,-0.027l0.18,-0.026l0.179,-0.026l0.179,-0.025l0.179,-0.025l0.178,-0.025l0.177,-0.024l0.176,-0.023l0.176,-0.024l0.175,-0.023l0.174,-0.022l0.174,-0.023l0.173,-0.021l0.172,-0.022l0.172,-0.021l0.17,-0.021l0.17,-0.02l0.169,-0.02l0.168,-0.019l0.167,-0.02l0.167,-0.018l0.165,-0.019l0.165,-0.018l0.164,-0.018l0.162,-0.017l0.162,-0.017l0.161,-0.016l0.16,-0.017l0.158,-0.016l0.158,-0.015l0.157,-0.015l0.156,-0.015l0.155,-0.014l0.153,-0.014l0.153,-0.014l0.151,-0.014l0.151,-0.013l0.149,-0.012l0.148,-0.013l0.146,-0.012l0.146,-0.011l0.144,-0.011l0.144,-0.011l0.142,-0.011l0.14,-0.01l0.14,-0.01l0.138,-0.01l0.137,-0.009l0.136,-0.009l0.134,-0.008l0.133,-0.009l0.131,-0.008l0.131,-0.007l0.128,-0.007l0.127,-0.007l0.127,-0.007l0.125,-0.006l0.123,-0.006l0.121,-0.006l0.12,-0.005l0.119,-0.005l0.118,-0.004l0.115,-0.005l0.115,-0.004l0.113,-0.003l0.111,-0.004l0.11,-0.003l0.108,-0.002l0.106,-0.003l0.105,-0.002l0.104,-0.002l0.102,-0.001l0.1,-0.001l0.099,-0.001l0.097,0l0.094,-0.001l0.513,0.001Z"/><g id="text2" transform="matrix(0.192847,-0.142863,0.142863,0.192847,1361.86,571.997)"><text x="627.174px" y="377.232px" style="font-family:'ArialRoundedMTBold', 'Arial Rounded MT Bold', sans-serif;font-size:395.833px;">FRESH</text><text x="498.451px" y="773.065px" style="font-family:'ArialRoundedMTBold', 'Arial Rounded MT Bold', sans-serif;font-size:395.833px;">B<tspan x="768.074px 1042.91px 1356.41px 1620.43px 1844.44px " y="773.065px 773.065px 773.065px 773.065px 773.065px ">AGELS</tspan></text></g><g id="text1" transform="matrix(0.24,0,0,0.24,201.766,1250.43)"><text x="1385.88px" y="380.265px" style="font-family:'ArialRoundedMTBold', 'Arial Rounded MT Bold', sans-serif;font-size:400px;fill:#ede5e5;">NY</text><text x="1025.24px" y="780.265px" style="font-family:'ArialRoundedMTBold', 'Arial Rounded MT Bold', sans-serif;font-size:400px;fill:#ede5e5;">STYLE</text></g></g></svg>