<?xml version="1.0" encoding="UTF-8" standalone="no"?><!DOCTYPE svg PUBLIC "-//W3C//DTD SVG 1.1//EN" "http://www.w3.org/Graphics/SVG/1.1/DTD/svg11.dtd"><svg width="100%" height="100%" viewBox="0 0 1748 1931" version="1.1" xmlns="http://www.w3.org/2000/svg" xmlns:xlink="http://www.w3.org/1999/xlink" xml:space="preserve" xmlns:serif="http://www.serif.com/" style="fill-rule:evenodd;clip-rule:evenodd;stroke-linecap:round;stroke-linejoin:round;stroke-miterlimit:1.5;"><g id="Modi"><path id="SHowel--Curve-" serif:id="SHowel (Curve)" d="M832.682,525.687c-10.422,-3.559 -17.85,-16.034 -1.539,-27.815c76.459,-55.225 304.874,-218.334 413.147,-292.574c7.658,-5.251 29.219,-19.551 54.728,-24.065c27.659,-4.894 59.418,0.3 68.528,2.932c76.872,22.204 205.69,62.652 302.782,94.411c1.581,0.517 51.302,19.583 61.498,49.642c2.614,7.708 4.265,26.367 -1.425,42.77c-4.028,11.613 -15.573,23.348 -16.048,23.709c-124.302,94.241 -333.794,245.557 -393.435,282.942c-9.386,5.883 -26.199,5.481 -31.195,3.908c-82.326,-25.918 -196.283,-61.872 -196.283,-61.872c0,0 -514.643,457.404 -561.195,496.906c-3.749,3.181 -44.89,19.81 -59.296,13.067c-14.406,-6.742 -2.077,-36.856 -1.899,-37.134c12.649,-19.759 223.531,-204.426 388.207,-346.059c87.135,-74.942 182.396,-154.685 182.396,-154.685c-3.336,5.884 -135.906,-41.135 -208.971,-66.083Z" style="fill:none;stroke:#000;stroke-width:6.5px;"/><path id="LeftBoot" d="M61.966,1918.99c0,-4.986 16.745,-32.606 48.041,-46.291c34.313,-15.004 82.354,-24.151 109.432,-18.058c7.731,1.74 12.691,7.763 16.44,11.512c15.296,15.297 17.325,22.608 26.761,43.513c2.978,6.597 -14.075,6.753 -19.368,6.753c-23.859,0 -39.103,-4.034 -61.51,-4.034c-32.788,0 -57.376,5.291 -87.253,5.291"/><path id="RighrtBoot" d="M422.666,1916.84c5.638,0 39.565,-23.04 64.645,-38.906c12.344,-7.809 24.51,-12.759 26.265,-14.56c2.285,-2.342 31.68,-16.904 60.121,-26.805c21.198,-7.38 43.064,-11.074 46.364,-11.074c2.757,0 111.525,3.629 117.02,10.307c11.775,14.311 10.284,36.014 10.284,60.641c0,2.001 -0.594,20.906 -1.668,21.505c-15.882,8.857 -164.295,-17.033 -167.209,-13.597c-8.209,9.679 -92.786,17.676 -94.975,17.676c-13.36,0 -54.332,4.532 -60.607,-3.976"/><path id="Pants" d="M171.423,1064.66c-26.606,-3.192 -48.575,-3.316 -52.044,-2.952c-2.743,0.288 -129.567,600.722 -63.967,791.023c11.801,34.234 0.876,58.746 2.75,60.169c3.57,2.712 19.403,-17.031 22.824,-20.495c5.212,-5.278 24.115,-18.254 46.129,-26.158c9.918,-3.561 25.979,-8.027 43.254,-9.51c35.374,-3.036 73.564,-2.152 76.838,-6.503c0.658,-0.876 -8.641,-39.154 -12.425,-65.505c-1.811,-12.615 0.852,-23.545 0.445,-24.361c-6.397,-12.793 -9.754,-89.269 -9.754,-113.352c0,-6.925 -0.6,-22.61 3.611,-26.82c4.348,-4.349 1.686,-17.813 6.901,-22.332c2.715,-2.353 3.295,-36.229 5.769,-41.785c3.144,-7.063 0.58,-28.772 -2.926,-32.278c-4.267,-4.267 1.744,-23.959 3.145,-27.653c5.016,-13.219 -13.862,-33.705 -8.419,-50.103c4.989,-15.03 19.229,-28.007 23.255,-43.092c2.069,-7.751 18.682,-47.704 32.47,-34.417c5.164,4.976 0.672,21.221 5.384,25.934c3.646,3.645 0.558,15.796 4.196,19.434c19.239,19.239 4.228,57.7 15.906,80.91c8.727,17.343 2.506,41.064 10.942,57.937c2.41,4.819 -2.385,13.204 0,18.036c7.421,15.033 14.046,26.971 20.98,44.207c6.569,16.333 2.019,33.511 9.698,48.87c1.962,3.923 18.1,78.094 24.554,84.548c7.466,7.465 14.67,32.519 18.717,58.094c4.225,26.697 23.337,91.342 22.799,103.32c-0.802,17.871 39.09,-11.611 39.503,-12.091c1.904,-2.212 31.694,-29.148 69.461,-43.443c18.17,-6.878 37.182,-18.473 54.765,-22.354c27.942,-6.165 47.891,-9.61 46.927,-11.539c-2.201,-4.401 -7.382,-10.474 -10.531,-13.584c-11.216,-11.075 -42.561,-94.948 -52.674,-115.174c-14.214,-28.428 -8.408,-57.482 -20.374,-90.167c-12.936,-35.335 -34.057,-73.984 -43.567,-112.026c-4.474,-17.893 -7.219,-55.293 -19.142,-67.216c-4.317,-4.317 -2.281,-16.295 -6.573,-20.586c-3.484,-3.484 -1.209,-17.627 -4.388,-22.872c-6.715,-11.081 -1.049,-33.422 -12.359,-42.333c-1.892,-1.491 0.894,-11.884 0,-14.334c-5.006,-13.72 2.315,-39.257 -10.512,-48.787c-2.757,-2.048 -0.988,-25.118 -0.988,-29.938c0,-30.678 -2.27,-94.772 -16.907,-120.068c-9.765,-16.877 -175.629,-48.092 -263.673,-58.654Z" style="fill:none;stroke:#000;stroke-width:4px;"/><path id="Belt" d="M112.456,1111.75c-1.304,6.334 -11.003,26.63 -10.571,36.371c0.214,4.835 7.398,3.115 10.493,3.62c7.872,1.283 39.715,3.886 61.418,1.163c4.079,-0.512 7.881,-41.534 7.604,-41.534c-14.356,0 -68.489,-1.83 -68.944,0.38Z" style="stroke:#000;stroke-width:5px;"/><path id="Apron" d="M174.398,1054.45c0,1.862 -1.206,41.469 -22.915,99.628c-9.784,26.214 -40.043,52.584 -47.861,87.253c-37.733,167.328 -58.531,397.704 -43.049,414.477c4.556,4.936 125.707,-11.56 135.032,-14.098c20.095,-5.468 123.609,-24.845 218.074,-26.069c78.116,-1.012 148.384,15.698 174.965,15.698c8.636,0 -25.023,-158.007 -54.933,-269.383c-15.858,-59.05 -55.369,-113.681 -67.742,-181.659c-19.394,-106.547 -22.289,-218.21 -27.594,-291.247c-5.598,-77.071 -8.598,-83.604 -10.973,-84.782c-0.524,-0.259 -35.861,14.075 -68.199,23.502c-13.536,3.946 6.249,45.991 -3.481,57.243c-2.21,2.557 -19.754,35.492 -45.298,59.951c-12.65,12.113 -18.695,26.554 -19.165,36.466c-3.208,67.683 -110.724,66.339 -112.668,68.667" style="fill:#f8c41b;stroke:#000;stroke-width:3px;"/><path id="RightArm" d="M577.335,980.973c-2.608,2.575 -12.954,0.957 -22.552,0.674c-16.699,-0.492 -35.936,-1.428 -42.706,-1.428c-28.804,0 -68.544,13.909 -89.607,24.281c-12.179,5.998 -46.042,-11.456 -54.517,-2.376c-0.458,0.49 -4.2,15.005 -7.124,20.903c-6.165,12.439 -14.963,28.08 -21.988,39.711c-5.841,9.672 -11.112,16.286 -6.585,18.607c7.533,3.861 22.106,10.081 28.007,17.254c6.706,8.15 25.08,4.572 31.286,11.906c16.655,19.684 46.259,9.761 60.321,-4.479c3.292,-3.333 18.664,-0.325 21.985,-2.742c5.684,-4.137 45.955,-9.223 53.371,-14.687c4.463,-3.289 56.401,-29.986 58.427,-32.688c1.466,-1.954 19.425,0 22.305,0c4.461,0 11.211,2.938 18.784,4.591c17.895,3.905 40.387,7.751 48.13,-0.112c12.681,-12.876 7.417,-39.544 19.975,-52.261c5.827,-5.901 21.469,-9.199 33.712,-14.501c15.741,-6.816 27.476,-18.735 25.705,-21.794c-1.013,-1.752 -6.709,-12.007 -23.191,-17.339c-10.828,-3.504 -30.701,-1.852 -38.684,-5.686c-14.686,-7.054 -1.999,-32.017 -12.822,-42.184c-2.342,-2.2 -10.958,-2.19 -18.853,0.824c-7.652,2.922 -14.597,8.803 -16.362,9.674c-25.47,12.576 -59.394,49.005 -63.532,57.156c-1.144,2.253 -6.125,6.262 -6.125,8.17" style="fill:#f2f2f2;stroke:#000;stroke-width:1.5px;"/><path id="LeftArmUp" d="M545.307,938.197c1.08,-8.997 12.391,-67.411 40.926,-74.109c0.532,-0.125 59.087,6.173 74.319,4.107c13.439,-1.822 24.185,-9.609 27.089,-11.791c19.238,-14.461 20.938,-63.087 37.75,-65.825c5.946,-0.968 12.909,-2.98 20.472,-2.071c14.502,1.745 29.747,8.248 33.997,11.476c6.758,5.133 18.685,0.001 23.15,8.685c14.003,27.227 -23.527,24.605 -42.248,24.605c-3.269,0 -13.667,-4.288 -15.601,-2.354c-0.585,0.585 -0.362,2.977 -0.999,5.974c-1.168,5.496 -3.29,13.024 -4.899,15.161c-13.126,17.427 -39.523,32.569 -52.263,49.84c-4.148,5.622 -13.784,6.008 -19.464,4.479c-6.021,-1.621 -25.311,12.235 -43.33,25.527c-1.86,1.372 -7.91,9.212 -19.83,14.137c-23.651,9.773 -60.229,18.471 -61.766,15.202c-2.667,-5.674 1.474,-12.855 2.697,-23.043Z" style="fill:#f2f2f2;stroke:#000;stroke-width:2px;"/><path id="LeftPalmDown" d="M763.809,914.548c-3.919,2.426 19.237,16.432 39.807,14.982c20.57,-1.45 33.562,-10.535 37.049,-14.076c5.982,-6.074 13.003,-26.999 13.003,-36.847c0,-2.629 1.43,-13.604 -0.464,-15.167c-9.31,-7.68 -14.079,-18.852 -22.815,-26.06c-10.982,-9.06 -11.811,14.03 -14.307,16.058c-3.146,2.557 -19.011,2.572 -20.887,5.218c-5.799,8.181 -1.292,12.493 -9.629,18.328c-3.831,2.682 1.648,14.465 -2.59,17.643c-7.961,5.971 -11.735,15.32 -19.167,19.921Z" style="fill:#f2f2f2;stroke:#000;stroke-width:0.9px;stroke-linecap:butt;stroke-miterlimit:1.41421;"/><path id="Shirt" d="M114.197,1037.44c1.068,13.325 -13.588,43.204 -12.222,59.255c1.051,12.361 17.048,12.831 23.514,13.956c17.921,3.12 86.507,12.319 98.8,11.234c5.901,-0.522 131.852,10.043 148.677,-0.356c10.662,-6.59 25.778,-74.663 35.323,-108.233c6.507,-22.883 -71.918,-53.616 -77.739,-53.616c-1.785,0 89.809,-132.114 92.188,-129.734c3.866,3.866 21.015,120.757 25.789,125.164c2.372,2.19 50.86,7.933 63.16,7.933c6.506,0 30.565,0.78 32.276,-1.501c1.764,-2.353 0,-13.288 0,-16.389c0,-7.49 34.082,-79.428 44.681,-100.137c0.291,-0.568 -8.892,-3.646 -9.54,-4.244c-5.347,-4.942 -29.195,-9.89 -31.289,-10.937c-10.787,-5.393 -27.953,-4.068 -38.57,-9.376c-3.292,-1.646 -53.416,-8.902 -54.136,-9.775c-4.331,-5.249 -22.754,-6.425 -30.786,-6.425c-1.421,0 -61.634,20.557 -121.749,24.981c-56.915,4.188 -123.403,-26.575 -123.695,-26.21c-4.231,5.289 -64.682,232.793 -64.682,234.41" style="fill:#f2f2f2;stroke:#000;stroke-width:4px;"/><g id="face-group"><path id="FaceOval" d="M153.941,434.45c8.017,0 37.62,-15.047 66.243,-21.978c22.273,-5.393 38.412,-16.263 47.073,-18.443c23.051,-5.803 65.006,-3.324 85.863,-18.248c23.612,-16.895 96.584,23.289 105.877,30.935c0.672,0.553 35.239,104.753 29.517,197.956c-0.526,8.572 -11.795,59.093 -28.013,90.112c-14.867,28.432 -34.668,37.901 -37.763,38.17c-17.86,1.554 8.421,71.662 0,71.309c-22.948,-0.963 -68.127,-12.934 -133.403,-32.563c-26.61,-8.002 -65.897,-20.229 -87.742,-29.493c-2.239,-0.949 -3.937,-65.783 -10.446,-71.152c-1.918,-1.583 -24.861,-45.583 -36.715,-82.045c-9.327,-28.689 -9.284,-53.727 0.506,-60.061c1.457,-0.943 -4.426,-23.888 -5.027,-46.99c-0.617,-23.675 4.03,-47.509 4.03,-47.509Z" style="fill:#f2f2f2;stroke:#000;stroke-width:3.5px;"/><ellipse id="LeftEye" cx="347.832" cy="535.22" rx="18.097" ry="26.75" style="fill:#0d0d0d;"/><path id="Collar" d="M201.564,738.7c-0.269,0.019 -16.833,37.492 -22.973,64.33c-3.425,14.971 -6.667,23.96 2.823,27.289c42.541,14.924 155.89,13.045 216.079,-16.499c2.918,-1.432 32.095,-9.333 23.324,-10.79c-31.815,-5.281 -217.152,-64.473 -219.253,-64.33Z" style="fill:#262626;stroke:#000;stroke-width:3.5px;"/><path id="LeftEye1" serif:id="LeftEye" d="M436.128,501.064c9.859,-1.603 19.786,8.926 22.156,23.498c2.37,14.572 -3.71,27.705 -13.569,29.308c-9.858,1.603 -19.786,-8.926 -22.156,-23.498c-2.369,-14.572 3.711,-27.705 13.569,-29.308Z" style="fill:#0d0d0d;"/><path id="NoseDown" d="M398.818,629.252c0,6.571 5.928,26.209 0.554,32.926c-1.334,1.668 -26.656,-5.955 -26.656,27.131" style="fill:none;stroke:#000;stroke-width:4px;"/><path id="Nose" d="M398.745,545.292c-0.105,19.41 39.433,57.339 44.581,71.067c1.715,4.572 -11.618,1.949 -14.516,1.949c-6.987,0 -17.499,0.581 -23.856,2.878c-2.261,0.818 -5.267,2.599 -5.267,4.278c0,0.768 -0.637,3.147 -0.637,1.592" style="fill:none;stroke:#000;stroke-width:6px;"/><path id="MouthUp" d="M406.31,701.873c1.423,1.533 -23.542,-2.878 -40.424,-18.539c-7.665,-7.11 -14.956,-15.012 -19.495,-23.304c-6.473,-11.822 -8.366,-23.084 -6.447,-22.4c6.454,2.303 18.507,15.669 30.871,19.094c14.777,4.094 29.629,-0.871 30.87,0.517c1.323,1.481 0.241,39.909 4.625,44.632Z" style="fill:#f2f2f2;stroke:#000;stroke-width:6px;"/><path id="Hair" d="M154.524,439.332c16.347,0 74.872,-24.524 70.682,-18.717c-6.928,9.602 -17.61,25.906 -16.508,41.378c1.168,16.405 7.243,43.744 2.482,37.431c-0.68,-0.902 -21.06,-26.553 -41.423,-23.723c-15.189,2.112 -20.865,-14.059 -15.524,-33.751" style="fill:none;stroke:#000;stroke-width:3px;"/><path id="Eyebrow" d="M303.393,465.198c27.14,0 28.899,-35.742 60.847,-35.742" style="fill:none;stroke:#000;stroke-width:6px;"/><path id="Ear" d="M159.691,528.949c29.578,0 46.901,10.32 47.979,27.619c0.446,7.168 -4.46,10.872 -9.644,20.067c-3.018,5.35 5.784,11.226 5.784,18.289c0,5.231 -3.353,-3.655 -3.353,-8.886" style="fill:none;stroke:#000;stroke-width:6px;"/><path d="M331.51,960.501c-5.057,-5.021 -37.685,-13.345 -29.61,-35.396" style="fill:none;stroke:#000;stroke-width:3.5px;"/></g><path id="Hat" d="M153.165,437.278c2.173,0 37.175,-12.657 86.259,-22.339c30.087,-5.934 68.368,-7.183 99.695,-13.681c65.671,-13.62 118.479,-4.61 118.107,4.282c-0.384,9.176 0.676,-95.433 -0.097,-100.77c-0.768,-5.302 18.832,-2.131 38.825,-5.047c9.79,-1.428 33.66,-9.593 52.563,-28.317c21.869,-21.662 44.281,-55.58 54.812,-81.935c0.618,-1.549 6.521,-14.101 9.985,-27.802c2.915,-11.534 2.086,-23.987 2.298,-31.66c0.693,-25.075 -10.86,-71.27 -40.822,-88.351c-2.704,-1.541 -20.624,-8.689 -35.872,-11.932c-9.617,-2.045 -18.171,-0.966 -21.174,-0.901c-11.159,0.245 -27.291,4.142 -45.003,7.936c-41.799,8.954 -95.214,26.14 -128.96,22.485c-38.9,-4.212 -79.131,-19.275 -106.134,-32.446c-13.557,-6.612 -23.85,-11.252 -30.49,-12.889c-0.956,-0.236 -9.08,-4.441 -19.871,-4.7c-9.941,-0.239 -22.088,3.272 -34.287,7.305c-39.034,12.905 -82.142,42.063 -84.506,44.893c-10.913,13.062 -26.599,30.795 -37.326,48.535c-6.5,10.748 -9.35,21.911 -13.451,30.859c-5.641,12.307 -11.738,70.57 11.401,122.865c0.549,1.239 12.84,18.353 29.167,30.949c13.028,10.05 28.96,16.191 41.111,16.629c9.629,0.347 26.692,-1.256 40.407,-4.169c8.815,-1.872 27.592,-4.36 28.328,-3.36c4.7,6.383 0.793,10.781 -1.42,17.532c-3.189,9.727 -6.561,20.223 -8.168,32.601c-4.955,38.182 -5.377,83.428 -5.377,83.428Z" style="fill:#f8c41b;stroke:#000;stroke-width:4px;"/><path id="HatStripe" d="M243.275,274.931c0,-9.966 27.41,-13.232 34.988,-13.232c21.736,0 52.277,0.652 72.502,9.781c6.853,3.094 19.573,12.444 23.413,12.444"/><path d="M278.775,259.934l0.515,0.001l0.518,0l0.522,0.001l0.524,0.002l0.528,0.001l0.53,0.002l0.534,0.003l0.536,0.002l0.539,0.004l0.542,0.004l0.544,0.004l0.547,0.004l0.55,0.006l0.552,0.006l0.554,0.006l0.558,0.007l0.559,0.008l0.562,0.008l0.564,0.009l0.566,0.009l0.568,0.011l0.57,0.011l0.573,0.012l0.574,0.012l0.576,0.014l0.578,0.014l0.58,0.015l0.582,0.016l0.291,0.008l0.584,0.018l0.586,0.018l0.588,0.019l0.294,0.01l0.589,0.021l0.591,0.021l0.296,0.012l0.593,0.023l0.298,0.012l0.297,0.012l0.297,0.013l0.298,0.013l0.299,0.013l0.298,0.013l0.299,0.014l0.299,0.014l0.299,0.014l0.3,0.014l0.3,0.015l0.3,0.015l0.3,0.016l0.301,0.015l0.301,0.017l0.301,0.016l0.301,0.017l0.301,0.016l0.302,0.018l0.302,0.017l0.302,0.018l0.302,0.019l0.302,0.018l0.303,0.019l0.303,0.019l0.302,0.02l0.303,0.02l0.304,0.02l0.303,0.021l0.303,0.021l0.304,0.021l0.303,0.022l0.304,0.022l0.304,0.022l0.304,0.023l0.304,0.023l0.304,0.023l0.304,0.024l0.304,0.024l0.305,0.025l0.304,0.025l0.304,0.025l0.305,0.026l0.304,0.026l0.305,0.027l0.304,0.027l0.305,0.027l0.304,0.028l0.305,0.028l0.304,0.028l0.305,0.029l0.304,0.03l0.305,0.029l0.304,0.031l0.304,0.03l0.305,0.031l0.304,0.032l0.304,0.031l0.304,0.033l0.304,0.033l0.304,0.033l0.304,0.033l0.304,0.034l0.303,0.035l0.304,0.035l0.303,0.035l0.304,0.036l0.303,0.037l0.303,0.036l0.303,0.038l0.303,0.037l0.302,0.038l0.303,0.039l0.302,0.039l0.302,0.04l0.302,0.04l0.302,0.041l0.301,0.041l0.302,0.041l0.301,0.042l0.301,0.043l0.3,0.043l0.301,0.044l0.3,0.044l0.3,0.044l0.3,0.045l0.299,0.046l0.299,0.046l0.299,0.047l0.299,0.047l0.299,0.047l0.298,0.049l0.297,0.048l0.298,0.05l0.297,0.05l0.297,0.05l0.296,0.051l0.297,0.051l0.296,0.052l0.295,0.053l0.295,0.053l0.295,0.054l0.295,0.054l0.294,0.055l0.293,0.055l0.294,0.056l0.293,0.056l0.292,0.058l0.293,0.057l0.291,0.058l0.292,0.059l0.291,0.06l0.29,0.06l0.29,0.06l0.29,0.062l0.289,0.061l0.289,0.063l0.288,0.063l0.288,0.064l0.287,0.064l0.287,0.065l0.286,0.065l0.286,0.066l0.285,0.067l0.285,0.067l0.285,0.069l0.284,0.068l0.283,0.069l0.283,0.07l0.282,0.071l0.282,0.071l0.281,0.072l0.28,0.073l0.28,0.073l0.28,0.074l0.279,0.074l0.278,0.075l0.277,0.076l0.278,0.077l0.276,0.077l0.276,0.078l0.275,0.079l0.275,0.079l0.274,0.08l0.273,0.08l0.273,0.082l0.272,0.082l0.271,0.083l0.271,0.083l0.27,0.084l0.27,0.085l0.268,0.086l0.268,0.086l0.268,0.087l0.266,0.088l0.266,0.089l0.265,0.089l0.264,0.09l0.264,0.091l0.264,0.091l0.262,0.092l0.261,0.093l0.261,0.094l0.26,0.095l0.259,0.095l0.259,0.096l0.257,0.097l0.257,0.097l0.256,0.099l0.255,0.099l0.255,0.1l0.254,0.101l0.252,0.101l0.252,0.102l0.252,0.104l0.25,0.103l0.25,0.105l0.248,0.106l0.248,0.106l0.247,0.107l0.245,0.108l0.246,0.109l0.245,0.11l0.171,0.078l0.174,0.081l0.176,0.082l0.177,0.085l0.178,0.086l0.18,0.089l0.182,0.09l0.183,0.092l0.184,0.094l0.279,0.144l0.188,0.099l0.19,0.1l0.286,0.153l0.193,0.104l0.193,0.105l0.196,0.107l0.196,0.108l0.197,0.109l0.199,0.112l0.199,0.112l0.201,0.113l0.202,0.115l0.203,0.116l0.204,0.117l0.205,0.118l0.205,0.119l0.207,0.121l0.207,0.121l0.208,0.122l0.209,0.123l0.42,0.248l0.422,0.252l0.212,0.126l0.425,0.256l0.428,0.257l0.428,0.259l0.43,0.261l0.43,0.261l0.431,0.263l1.292,0.787l0.43,0.262l0.428,0.26l0.426,0.259l0.425,0.258l0.422,0.255l0.42,0.252l0.208,0.126l0.415,0.248l0.206,0.123l0.206,0.121l0.407,0.241l0.202,0.119l0.202,0.118l0.199,0.117l0.199,0.115l0.198,0.115l0.196,0.112l0.194,0.112l0.194,0.11l0.192,0.109l0.19,0.108l0.189,0.106l0.187,0.104l0.186,0.103l0.184,0.101l0.182,0.099l0.27,0.146l0.266,0.141l0.261,0.138l0.256,0.133l0.252,0.128l0.246,0.124l0.241,0.118l0.158,0.076l0.231,0.11l0.151,0.07l0.223,0.102l0.143,0.063l0.142,0.062l0.138,0.059l0.201,0.083l0.13,0.052l0.127,0.05l0.183,0.069l0.175,0.062l0.165,0.055l0.156,0.049l0.146,0.042l0.134,0.035l0.123,0.028l0.109,0.022l0.095,0.016l0.143,0.015l0.053,0.001l0.603,0.109l0.53,0.31l0.391,0.471l0.207,0.577l-0.003,0.614l-0.213,0.574l-0.396,0.468l-0.533,0.304l-0.604,0.103l-0.031,0l-0.038,-0.001l-0.039,0l-0.039,-0.002l-0.039,-0.001l-0.039,-0.002l-0.037,-0.002l-0.038,-0.003l-0.039,-0.003l-0.039,-0.003l-0.037,-0.003l-0.038,-0.004l-0.038,-0.004l-0.04,-0.005l-0.073,-0.008l-0.075,-0.011l-0.075,-0.011l-0.075,-0.012l-0.074,-0.013l-0.075,-0.014l-0.074,-0.015l-0.075,-0.016l-0.074,-0.016l-0.075,-0.017l-0.075,-0.018l-0.075,-0.019l-0.074,-0.02l-0.075,-0.02l-0.075,-0.021l-0.075,-0.022l-0.076,-0.022l-0.076,-0.023l-0.076,-0.024l-0.076,-0.025l-0.077,-0.025l-0.076,-0.025l-0.078,-0.027l-0.077,-0.027l-0.078,-0.027l-0.079,-0.029l-0.078,-0.029l-0.078,-0.029l-0.08,-0.03l-0.079,-0.031l-0.08,-0.031l-0.08,-0.032l-0.081,-0.033l-0.08,-0.033l-0.081,-0.033l-0.082,-0.035l-0.083,-0.035l-0.082,-0.035l-0.083,-0.036l-0.083,-0.036l-0.084,-0.037l-0.084,-0.038l-0.084,-0.038l-0.085,-0.038l-0.085,-0.04l-0.085,-0.039l-0.087,-0.04l-0.086,-0.041l-0.087,-0.041l-0.087,-0.042l-0.087,-0.042l-0.088,-0.043l-0.088,-0.043l-0.089,-0.044l-0.089,-0.044l-0.089,-0.044l-0.09,-0.045l-0.091,-0.046l-0.091,-0.046l-0.09,-0.046l-0.091,-0.047l-0.092,-0.047l-0.093,-0.048l-0.092,-0.048l-0.092,-0.049l-0.094,-0.049l-0.093,-0.049l-0.094,-0.05l-0.094,-0.05l-0.095,-0.051l-0.095,-0.051l-0.19,-0.103l-0.192,-0.105l-0.194,-0.106l-0.194,-0.108l-0.196,-0.109l-0.197,-0.11l-0.198,-0.112l-0.199,-0.113l-0.201,-0.114l-0.201,-0.116l-0.203,-0.116l-0.203,-0.118l-0.204,-0.119l-0.206,-0.119l-0.206,-0.121l-0.207,-0.122l-0.207,-0.123l-0.209,-0.123l-0.209,-0.124l-0.21,-0.125l-0.21,-0.126l-0.212,-0.126l-0.211,-0.127l-0.212,-0.128l-0.213,-0.128l-0.213,-0.129l-0.214,-0.129l-0.428,-0.259l-0.429,-0.261l-0.43,-0.262l-0.431,-0.262l-0.43,-0.263l-0.861,-0.524l-0.429,-0.261l-0.428,-0.26l-0.426,-0.259l-0.212,-0.128l-0.213,-0.128l-0.211,-0.128l-0.21,-0.127l-0.211,-0.126l-0.209,-0.125l-0.208,-0.125l-0.209,-0.124l-0.206,-0.123l-0.206,-0.122l-0.206,-0.121l-0.204,-0.121l-0.203,-0.119l-0.202,-0.118l-0.201,-0.117l-0.2,-0.116l-0.199,-0.115l-0.197,-0.113l-0.196,-0.112l-0.195,-0.111l-0.193,-0.109l-0.192,-0.108l-0.191,-0.106l-0.189,-0.105l-0.187,-0.104l-0.185,-0.101l-0.185,-0.1l-0.091,-0.05l-0.09,-0.048l-0.091,-0.049l-0.09,-0.048l-0.089,-0.047l-0.089,-0.047l-0.089,-0.047l-0.087,-0.046l-0.088,-0.046l-0.087,-0.045l-0.087,-0.045l-0.086,-0.044l-0.085,-0.043l-0.085,-0.043l-0.084,-0.043l-0.084,-0.042l-0.083,-0.042l-0.083,-0.041l-0.082,-0.04l-0.081,-0.04l-0.081,-0.039l-0.081,-0.039l-0.08,-0.039l-0.079,-0.037l-0.078,-0.037l-0.078,-0.037l-0.077,-0.036l-0.076,-0.035l-0.076,-0.035l-0.076,-0.034l-0.115,-0.052l-0.115,-0.051l-0.116,-0.052l-0.116,-0.051l-0.116,-0.051l-0.117,-0.051l-0.116,-0.051l-0.117,-0.051l-0.117,-0.05l-0.118,-0.05l-0.118,-0.051l-0.118,-0.049l-0.118,-0.05l-0.118,-0.05l-0.119,-0.049l-0.119,-0.049l-0.119,-0.049l-0.119,-0.049l-0.119,-0.049l-0.12,-0.048l-0.12,-0.049l-0.121,-0.048l-0.12,-0.048l-0.121,-0.048l-0.121,-0.047l-0.121,-0.048l-0.121,-0.047l-0.122,-0.047l-0.122,-0.047l-0.122,-0.047l-0.122,-0.046l-0.122,-0.047l-0.123,-0.046l-0.123,-0.046l-0.124,-0.046l-0.123,-0.046l-0.123,-0.045l-0.124,-0.046l-0.124,-0.045l-0.124,-0.045l-0.125,-0.045l-0.125,-0.044l-0.124,-0.045l-0.125,-0.044l-0.126,-0.044l-0.125,-0.045l-0.126,-0.043l-0.126,-0.044l-0.126,-0.044l-0.126,-0.043l-0.127,-0.043l-0.127,-0.043l-0.127,-0.043l-0.127,-0.043l-0.127,-0.042l-0.127,-0.042l-0.128,-0.043l-0.129,-0.042l-0.127,-0.042l-0.129,-0.041l-0.128,-0.042l-0.129,-0.041l-0.129,-0.041l-0.129,-0.041l-0.129,-0.041l-0.13,-0.041l-0.13,-0.041l-0.129,-0.04l-0.13,-0.04l-0.131,-0.04l-0.13,-0.04l-0.131,-0.04l-0.131,-0.039l-0.131,-0.04l-0.131,-0.039l-0.131,-0.039l-0.132,-0.039l-0.131,-0.039l-0.132,-0.038l-0.132,-0.039l-0.133,-0.038l-0.132,-0.038l-0.133,-0.038l-0.132,-0.038l-0.134,-0.038l-0.132,-0.037l-0.134,-0.037l-0.134,-0.038l-0.133,-0.037l-0.134,-0.036l-0.134,-0.037l-0.134,-0.037l-0.134,-0.036l-0.135,-0.036l-0.134,-0.037l-0.135,-0.035l-0.135,-0.036l-0.135,-0.036l-0.136,-0.035l-0.135,-0.036l-0.136,-0.035l-0.135,-0.035l-0.136,-0.035l-0.137,-0.034l-0.136,-0.035l-0.136,-0.034l-0.137,-0.035l-0.136,-0.034l-0.137,-0.034l-0.137,-0.033l-0.138,-0.034l-0.137,-0.034l-0.137,-0.033l-0.138,-0.033l-0.138,-0.033l-0.138,-0.033l-0.138,-0.033l-0.137,-0.032l-0.278,-0.065l-0.277,-0.064l-0.278,-0.064l-0.279,-0.063l-0.279,-0.062l-0.279,-0.062l-0.28,-0.061l-0.281,-0.061l-0.281,-0.06l-0.282,-0.06l-0.282,-0.059l-0.283,-0.058l-0.283,-0.058l-0.284,-0.057l-0.284,-0.057l-0.285,-0.056l-0.285,-0.056l-0.285,-0.055l-0.286,-0.054l-0.287,-0.054l-0.287,-0.054l-0.287,-0.053l-0.287,-0.052l-0.288,-0.052l-0.289,-0.051l-0.289,-0.051l-0.289,-0.05l-0.29,-0.05l-0.29,-0.049l-0.29,-0.049l-0.291,-0.048l-0.291,-0.048l-0.292,-0.047l-0.292,-0.047l-0.292,-0.046l-0.292,-0.045l-0.293,-0.046l-0.294,-0.044l-0.293,-0.044l-0.294,-0.044l-0.294,-0.043l-0.294,-0.043l-0.295,-0.042l-0.295,-0.042l-0.295,-0.041l-0.295,-0.041l-0.296,-0.04l-0.296,-0.04l-0.296,-0.039l-0.296,-0.039l-0.297,-0.038l-0.296,-0.038l-0.298,-0.038l-0.297,-0.037l-0.297,-0.036l-0.298,-0.037l-0.298,-0.035l-0.297,-0.035l-0.299,-0.035l-0.298,-0.035l-0.298,-0.034l-0.299,-0.033l-0.299,-0.033l-0.298,-0.033l-0.299,-0.032l-0.299,-0.032l-0.3,-0.031l-0.299,-0.031l-0.299,-0.031l-0.3,-0.03l-0.299,-0.029l-0.3,-0.03l-0.3,-0.029l-0.3,-0.028l-0.299,-0.028l-0.3,-0.028l-0.3,-0.027l-0.3,-0.027l-0.3,-0.027l-0.3,-0.026l-0.3,-0.025l-0.3,-0.026l-0.3,-0.025l-0.3,-0.024l-0.3,-0.025l-0.3,-0.024l-0.3,-0.023l-0.3,-0.023l-0.3,-0.023l-0.299,-0.022l-0.3,-0.023l-0.3,-0.021l-0.299,-0.022l-0.3,-0.021l-0.299,-0.02l-0.3,-0.021l-0.299,-0.02l-0.299,-0.019l-0.299,-0.02l-0.299,-0.019l-0.299,-0.018l-0.299,-0.019l-0.298,-0.018l-0.299,-0.017l-0.298,-0.018l-0.298,-0.017l-0.298,-0.017l-0.298,-0.016l-0.297,-0.016l-0.297,-0.016l-0.297,-0.016l-0.298,-0.015l-0.296,-0.015l-0.297,-0.014l-0.296,-0.015l-0.296,-0.014l-0.296,-0.014l-0.296,-0.013l-0.295,-0.013l-0.295,-0.013l-0.295,-0.013l-0.294,-0.013l-0.295,-0.012l-0.294,-0.012l-0.293,-0.011l-0.294,-0.012l-0.293,-0.011l-0.293,-0.011l-0.292,-0.01l-0.292,-0.01l-0.292,-0.011l-0.291,-0.009l-0.292,-0.01l-0.29,-0.009l-0.291,-0.01l-0.29,-0.009l-0.29,-0.008l-0.289,-0.009l-0.288,-0.008l-0.289,-0.008l-0.288,-0.008l-0.288,-0.007l-0.287,-0.008l-0.287,-0.007l-0.286,-0.007l-0.286,-0.007l-0.286,-0.006l-0.285,-0.007l-0.285,-0.006l-0.284,-0.006l-0.283,-0.005l-0.566,-0.011l-0.564,-0.011l-0.562,-0.009l-0.56,-0.009l-0.558,-0.008l-0.556,-0.008l-0.553,-0.007l-0.551,-0.006l-0.549,-0.006l-0.546,-0.005l-0.544,-0.005l-0.541,-0.004l-0.539,-0.004l-0.536,-0.003l-0.534,-0.003l-0.531,-0.003l-0.528,-0.002l-0.525,-0.001l-0.522,-0.002l-0.519,0l-0.517,-0.001l-0.513,-0.001l-0.509,0l-0.085,0l-0.086,0.001l-0.088,0.001l-0.09,0.001l-0.091,0.001l-0.094,0.001l-0.095,0.002l-0.098,0.003l-0.099,0.002l-0.1,0.003l-0.103,0.003l-0.104,0.003l-0.107,0.004l-0.107,0.004l-0.11,0.004l-0.111,0.005l-0.112,0.005l-0.115,0.005l-0.115,0.006l-0.118,0.005l-0.119,0.007l-0.12,0.006l-0.122,0.007l-0.123,0.007l-0.125,0.008l-0.127,0.008l-0.127,0.008l-0.13,0.008l-0.13,0.009l-0.132,0.009l-0.133,0.01l-0.135,0.009l-0.135,0.01l-0.137,0.011l-0.139,0.011l-0.139,0.011l-0.141,0.011l-0.142,0.012l-0.143,0.012l-0.145,0.013l-0.146,0.013l-0.146,0.013l-0.148,0.014l-0.149,0.013l-0.15,0.015l-0.151,0.014l-0.152,0.015l-0.153,0.015l-0.154,0.016l-0.156,0.016l-0.156,0.017l-0.157,0.016l-0.158,0.017l-0.159,0.018l-0.16,0.018l-0.16,0.018l-0.162,0.018l-0.162,0.019l-0.164,0.019l-0.163,0.02l-0.166,0.02l-0.165,0.02l-0.166,0.021l-0.168,0.021l-0.168,0.022l-0.168,0.022l-0.17,0.022l-0.169,0.022l-0.171,0.023l-0.171,0.024l-0.172,0.023l-0.173,0.024l-0.173,0.025l-0.173,0.025l-0.175,0.025l-0.174,0.026l-0.176,0.026l-0.175,0.026l-0.177,0.027l-0.176,0.027l-0.177,0.028l-0.178,0.028l-0.178,0.028l-0.178,0.029l-0.179,0.029l-0.179,0.029l-0.18,0.03l-0.179,0.031l-0.18,0.03l-0.181,0.031l-0.18,0.032l-0.181,0.032l-0.181,0.032l-0.182,0.033l-0.181,0.033l-0.182,0.034l-0.182,0.033l-0.182,0.035l-0.182,0.035l-0.182,0.035l-0.183,0.035l-0.182,0.036l-0.183,0.037l-0.182,0.036l-0.183,0.038l-0.182,0.037l-0.183,0.038l-0.183,0.039l-0.182,0.038l-0.182,0.04l-0.183,0.039l-0.182,0.04l-0.182,0.041l-0.182,0.041l-0.182,0.041l-0.182,0.042l-0.181,0.042l-0.181,0.043l-0.182,0.043l-0.18,0.043l-0.181,0.044l-0.18,0.045l-0.18,0.044l-0.18,0.045l-0.179,0.046l-0.179,0.046l-0.179,0.046l-0.178,0.047l-0.178,0.048l-0.177,0.047l-0.177,0.048l-0.177,0.049l-0.176,0.049l-0.175,0.049l-0.175,0.05l-0.175,0.05l-0.174,0.051l-0.173,0.051l-0.173,0.052l-0.172,0.052l-0.172,0.052l-0.17,0.053l-0.171,0.053l-0.169,0.054l-0.169,0.054l-0.168,0.055l-0.168,0.055l-0.166,0.055l-0.166,0.056l-0.165,0.056l-0.165,0.057l-0.163,0.057l-0.164,0.058l-0.08,0.029l-0.08,0.029l-0.081,0.029l-0.08,0.029l-0.081,0.029l-0.08,0.03l-0.079,0.029l-0.079,0.03l-0.08,0.03l-0.079,0.03l-0.079,0.03l-0.077,0.03l-0.079,0.03l-0.078,0.03l-0.078,0.031l-0.077,0.03l-0.078,0.031l-0.077,0.031l-0.076,0.03l-0.076,0.031l-0.077,0.031l-0.076,0.031l-0.075,0.032l-0.075,0.031l-0.075,0.031l-0.076,0.032l-0.074,0.031l-0.074,0.032l-0.074,0.032l-0.074,0.032l-0.074,0.032l-0.072,0.032l-0.073,0.032l-0.073,0.033l-0.072,0.032l-0.072,0.032l-0.071,0.033l-0.072,0.033l-0.071,0.033l-0.071,0.033l-0.07,0.033l-0.07,0.033l-0.07,0.033l-0.069,0.033l-0.07,0.034l-0.068,0.033l-0.069,0.034l-0.067,0.033l-0.069,0.034l-0.067,0.034l-0.067,0.034l-0.067,0.034l-0.066,0.034l-0.066,0.034l-0.066,0.034l-0.065,0.035l-0.066,0.034l-0.065,0.035l-0.064,0.034l-0.064,0.035l-0.064,0.035l-0.063,0.035l-0.062,0.035l-0.063,0.035l-0.063,0.035l-0.061,0.035l-0.062,0.036l-0.061,0.035l-0.06,0.035l-0.06,0.036l-0.061,0.036l-0.059,0.036l-0.06,0.035l-0.058,0.036l-0.058,0.036l-0.058,0.035l-0.057,0.037l-0.058,0.036l-0.056,0.036l-0.057,0.037l-0.056,0.036l-0.055,0.036l-0.056,0.037l-0.054,0.036l-0.054,0.037l-0.054,0.036l-0.053,0.037l-0.054,0.037l-0.052,0.037l-0.052,0.036l-0.052,0.038l-0.052,0.037l-0.05,0.037l-0.05,0.037l-0.05,0.037l-0.05,0.037l-0.049,0.037l-0.048,0.037l-0.049,0.038l-0.047,0.037l-0.047,0.037l-0.048,0.038l-0.046,0.038l-0.045,0.037l-0.046,0.037l-0.046,0.039l-0.044,0.037l-0.044,0.037l-0.044,0.038l-0.043,0.038l-0.042,0.037l-0.042,0.038l-0.042,0.038l-0.042,0.038l-0.04,0.038l-0.04,0.037l-0.041,0.039l-0.039,0.038l-0.039,0.037l-0.039,0.038l-0.037,0.038l-0.037,0.038l-0.037,0.037l-0.037,0.039l-0.036,0.038l-0.035,0.037l-0.035,0.038l-0.035,0.038l-0.035,0.038l-0.033,0.038l-0.033,0.038l-0.033,0.038l-0.031,0.037l-0.032,0.037l-0.032,0.039l-0.03,0.037l-0.03,0.038l-0.03,0.038l-0.029,0.037l-0.029,0.038l-0.028,0.038l-0.029,0.038l-0.026,0.037l-0.027,0.037l-0.026,0.038l-0.027,0.038l-0.025,0.037l-0.024,0.037l-0.025,0.038l-0.024,0.037l-0.023,0.037l-0.024,0.038l-0.022,0.037l-0.022,0.037l-0.022,0.037l-0.021,0.037l-0.02,0.037l-0.02,0.037l-0.021,0.038l-0.019,0.037l-0.019,0.036l-0.018,0.037l-0.018,0.037l-0.018,0.037l-0.017,0.037l-0.016,0.036l-0.016,0.037l-0.017,0.037l-0.015,0.037l-0.015,0.036l-0.014,0.036l-0.015,0.039l-0.013,0.036l-0.013,0.036l-0.013,0.037l-0.012,0.036l-0.012,0.037l-0.011,0.036l-0.012,0.038l-0.011,0.038l-0.01,0.034l-0.01,0.037l-0.01,0.038l-0.009,0.037l-0.008,0.037l-0.009,0.037l-0.007,0.037l-0.008,0.037l-0.007,0.037l-0.007,0.036l-0.006,0.037l-0.006,0.04l-0.005,0.036l-0.006,0.038l-0.004,0.038l-0.005,0.037l-0.004,0.038l-0.003,0.037l-0.003,0.039l-0.003,0.04l-0.002,0.037l-0.002,0.04l-0.001,0.038l-0.001,0.038l-0.001,0.04l0,0.05l-0.111,0.603l-0.309,0.529l-0.472,0.391l-0.578,0.206l-0.613,-0.003l-0.574,-0.213l-0.468,-0.397l-0.303,-0.533l-0.103,-0.604l0.001,-0.068l0.001,-0.076l0.002,-0.077l0.003,-0.078l0.004,-0.076l0.004,-0.077l0.006,-0.076l0.006,-0.075l0.007,-0.078l0.008,-0.075l0.008,-0.077l0.01,-0.075l0.01,-0.075l0.011,-0.077l0.012,-0.072l0.012,-0.075l0.014,-0.076l0.014,-0.074l0.015,-0.074l0.016,-0.074l0.016,-0.074l0.018,-0.073l0.018,-0.073l0.018,-0.072l0.02,-0.073l0.021,-0.074l0.021,-0.071l0.021,-0.071l0.023,-0.071l0.023,-0.072l0.024,-0.072l0.024,-0.069l0.026,-0.071l0.026,-0.071l0.026,-0.068l0.028,-0.07l0.028,-0.07l0.029,-0.068l0.029,-0.068l0.03,-0.068l0.031,-0.069l0.031,-0.067l0.032,-0.067l0.033,-0.067l0.033,-0.066l0.034,-0.068l0.035,-0.066l0.034,-0.064l0.036,-0.065l0.036,-0.065l0.037,-0.065l0.038,-0.064l0.038,-0.065l0.038,-0.063l0.039,-0.063l0.04,-0.063l0.04,-0.063l0.04,-0.062l0.042,-0.062l0.042,-0.062l0.042,-0.061l0.042,-0.06l0.044,-0.062l0.045,-0.061l0.044,-0.059l0.044,-0.06l0.045,-0.059l0.047,-0.06l0.046,-0.058l0.047,-0.059l0.048,-0.059l0.046,-0.056l0.049,-0.058l0.049,-0.058l0.049,-0.057l0.05,-0.057l0.05,-0.056l0.05,-0.055l0.05,-0.056l0.052,-0.056l0.052,-0.056l0.052,-0.054l0.052,-0.054l0.054,-0.055l0.053,-0.054l0.055,-0.055l0.054,-0.053l0.055,-0.053l0.055,-0.054l0.055,-0.051l0.056,-0.053l0.057,-0.053l0.056,-0.052l0.057,-0.051l0.057,-0.051l0.059,-0.052l0.058,-0.051l0.058,-0.05l0.06,-0.051l0.059,-0.05l0.059,-0.049l0.06,-0.05l0.062,-0.05l0.061,-0.049l0.06,-0.049l0.062,-0.049l0.062,-0.049l0.062,-0.048l0.063,-0.048l0.063,-0.048l0.063,-0.047l0.064,-0.047l0.064,-0.048l0.065,-0.047l0.064,-0.046l0.065,-0.046l0.066,-0.047l0.066,-0.046l0.065,-0.046l0.067,-0.045l0.066,-0.046l0.067,-0.045l0.068,-0.045l0.068,-0.045l0.068,-0.044l0.068,-0.045l0.068,-0.044l0.069,-0.044l0.069,-0.044l0.07,-0.043l0.07,-0.044l0.07,-0.043l0.071,-0.043l0.071,-0.043l0.07,-0.042l0.071,-0.042l0.072,-0.043l0.073,-0.042l0.072,-0.042l0.072,-0.042l0.073,-0.041l0.073,-0.041l0.073,-0.041l0.074,-0.041l0.074,-0.041l0.074,-0.041l0.074,-0.04l0.076,-0.041l0.075,-0.04l0.074,-0.039l0.076,-0.04l0.076,-0.04l0.076,-0.039l0.077,-0.04l0.076,-0.038l0.077,-0.039l0.078,-0.039l0.076,-0.038l0.079,-0.039l0.077,-0.038l0.079,-0.038l0.078,-0.038l0.079,-0.038l0.079,-0.037l0.079,-0.038l0.079,-0.037l0.08,-0.037l0.08,-0.037l0.08,-0.037l0.08,-0.036l0.081,-0.037l0.081,-0.036l0.081,-0.036l0.081,-0.036l0.082,-0.036l0.081,-0.036l0.083,-0.035l0.082,-0.036l0.082,-0.035l0.083,-0.035l0.082,-0.035l0.083,-0.034l0.084,-0.035l0.084,-0.035l0.083,-0.034l0.084,-0.034l0.084,-0.034l0.085,-0.034l0.084,-0.034l0.085,-0.033l0.085,-0.034l0.085,-0.033l0.085,-0.033l0.085,-0.033l0.086,-0.033l0.086,-0.033l0.086,-0.032l0.086,-0.033l0.087,-0.032l0.087,-0.032l0.086,-0.032l0.087,-0.032l0.088,-0.032l0.087,-0.031l0.087,-0.032l0.089,-0.031l0.175,-0.062l0.176,-0.062l0.177,-0.061l0.178,-0.061l0.179,-0.06l0.178,-0.059l0.18,-0.059l0.18,-0.059l0.181,-0.058l0.181,-0.057l0.182,-0.057l0.182,-0.056l0.183,-0.056l0.183,-0.055l0.184,-0.055l0.184,-0.055l0.185,-0.053l0.185,-0.054l0.185,-0.052l0.186,-0.053l0.186,-0.052l0.186,-0.051l0.187,-0.051l0.187,-0.05l0.188,-0.05l0.187,-0.049l0.188,-0.049l0.189,-0.048l0.188,-0.048l0.189,-0.048l0.189,-0.047l0.189,-0.046l0.189,-0.046l0.19,-0.046l0.189,-0.045l0.19,-0.044l0.19,-0.045l0.19,-0.043l0.19,-0.044l0.19,-0.042l0.19,-0.043l0.191,-0.041l0.19,-0.042l0.19,-0.041l0.19,-0.04l0.19,-0.04l0.19,-0.04l0.191,-0.039l0.19,-0.039l0.19,-0.038l0.19,-0.038l0.189,-0.037l0.19,-0.037l0.189,-0.037l0.189,-0.036l0.189,-0.035l0.189,-0.036l0.189,-0.034l0.188,-0.035l0.188,-0.034l0.188,-0.033l0.187,-0.033l0.188,-0.033l0.187,-0.032l0.186,-0.032l0.187,-0.031l0.185,-0.031l0.186,-0.031l0.185,-0.03l0.185,-0.03l0.184,-0.029l0.184,-0.029l0.183,-0.029l0.183,-0.028l0.182,-0.028l0.182,-0.027l0.181,-0.027l0.181,-0.026l0.18,-0.026l0.18,-0.026l0.179,-0.025l0.178,-0.025l0.178,-0.025l0.177,-0.024l0.176,-0.024l0.176,-0.023l0.175,-0.023l0.175,-0.023l0.173,-0.022l0.173,-0.022l0.172,-0.021l0.172,-0.021l0.17,-0.021l0.17,-0.02l0.169,-0.02l0.168,-0.02l0.168,-0.019l0.166,-0.019l0.165,-0.018l0.165,-0.018l0.164,-0.018l0.162,-0.017l0.162,-0.017l0.161,-0.017l0.16,-0.016l0.159,-0.016l0.158,-0.015l0.156,-0.016l0.156,-0.014l0.155,-0.015l0.153,-0.014l0.153,-0.014l0.151,-0.013l0.151,-0.013l0.149,-0.013l0.148,-0.012l0.147,-0.012l0.145,-0.012l0.145,-0.011l0.143,-0.011l0.142,-0.01l0.141,-0.011l0.139,-0.01l0.138,-0.009l0.137,-0.009l0.136,-0.009l0.134,-0.009l0.133,-0.008l0.131,-0.008l0.131,-0.008l0.129,-0.007l0.127,-0.007l0.126,-0.006l0.125,-0.006l0.123,-0.006l0.121,-0.006l0.121,-0.005l0.118,-0.005l0.118,-0.005l0.116,-0.004l0.114,-0.004l0.113,-0.004l0.111,-0.003l0.11,-0.003l0.108,-0.003l0.107,-0.002l0.105,-0.002l0.103,-0.002l0.102,-0.001l0.101,-0.002l0.098,0l0.097,-0.001l0.095,0l0.513,0Z"/><g id="text2" transform="matrix(0.192847,-0.142863,0.142863,0.192847,1079.14,541.517)"><text x="627.174px" y="377.232px" style="font-family:'ArialRoundedMTBold', 'Arial Rounded MT Bold', sans-serif;font-size:395.833px;">FRESH</text><text x="498.451px" y="773.065px" style="font-family:'ArialRoundedMTBold', 'Arial Rounded MT Bold', sans-serif;font-size:395.833px;">B<tspan x="768.074px 1042.91px 1356.41px 1620.43px 1844.44px " y="773.065px 773.065px 773.065px 773.065px 773.065px ">AGELS</tspan></text></g><g id="text1" transform="matrix(0.24,0,0,0.24,91.3447,1219.95)"><text x="628.803px" y="380.265px" style="font-family:'ArialRoundedMTBold', 'Arial Rounded MT Bold', sans-serif;font-size:400px;fill:#ede5e5;">NY</text><text x="268.159px" y="780.265px" style="font-family:'ArialRoundedMTBold', 'Arial Rounded MT Bold', sans-serif;font-size:400px;fill:#ede5e5;">STYLE</text></g></g></svg>