<?xml version="1.0" encoding="UTF-8" standalone="no"?><!DOCTYPE svg PUBLIC "-//W3C//DTD SVG 1.1//EN" "http://www.w3.org/Graphics/SVG/1.1/DTD/svg11.dtd"><svg width="100%" height="100%" viewBox="0 0 296 296" version="1.1" xmlns="http://www.w3.org/2000/svg" xmlns:xlink="http://www.w3.org/1999/xlink" xml:space="preserve" xmlns:serif="http://www.serif.com/" style="fill-rule:evenodd;clip-rule:evenodd;stroke-linecap:round;stroke-linejoin:round;stroke-miterlimit:1.5;"><path d="M287.529,78c0,-38.634 -31.366,-70 -70,-70l-140,0c-38.634,0 -70,31.366 -70,70l0,140c0,38.634 31.366,70 70,70l140,0c38.634,0 70,-31.366 70,-70l0,-140Z" style="fill:none;stroke:#000;stroke-width:9.5px;"/><g id="BREAD"><path d="M44.138,188.335c-2.502,-3.912 -3.994,-9.221 -2.732,-14.065c7.721,-28.021 28.755,-57.841 59.923,-80.868c33.04,-24.409 70.031,-35.689 100.074,-33.164c4.626,0.451 8.857,2.856 11.631,6.611c7.382,9.933 22.924,30.947 33.671,45.484c3.016,4.079 4.459,9.062 4.012,13.855c-0.449,4.791 -2.751,8.999 -6.401,11.695c-31.508,23.278 -108.591,80.225 -139.978,103.413c-7.632,5.638 -18.926,3.306 -25.247,-5.213c-11.99,-15.87 -29.679,-39.5 -34.953,-47.748Z" style="fill:none;stroke:#040404;stroke-width:9.92px;stroke-linejoin:miter;stroke-miterlimit:4;"/><path d="M66.303,133.058l-0.793,0.585l12.113,16.395l0.792,-0.585l-12.112,-16.395Z" style="fill:none;stroke:#040404;stroke-width:9.75px;stroke-linejoin:miter;stroke-miterlimit:4;"/><path d="M81.83,113.771l-0.792,0.585l24.225,32.791l0.792,-0.586l-24.225,-32.79Z" style="fill:none;stroke:#040404;stroke-width:9.72px;stroke-linejoin:miter;stroke-miterlimit:4;"/><path d="M102.657,95.137l-0.793,0.586l30.281,40.988l0.793,-0.586l-30.281,-40.988Z" style="fill:none;stroke:#040404;stroke-width:8.63px;stroke-linejoin:miter;stroke-miterlimit:4;"/><path d="M125.704,81.398l-0.792,0.585l24.225,32.791l0.792,-0.586l-24.225,-32.79Z" style="fill:none;stroke:#040404;stroke-width:9.89px;stroke-linejoin:miter;stroke-miterlimit:4;"/><path d="M155.578,73.423l-0.792,0.586l12.112,16.395l0.793,-0.585l-12.113,-16.396Z" style="fill:none;stroke:#040404;stroke-width:9.67px;stroke-linejoin:miter;stroke-miterlimit:4;"/></g></svg>