<?xml version="1.0" encoding="UTF-8" standalone="no"?><!DOCTYPE svg PUBLIC "-//W3C//DTD SVG 1.1//EN" "http://www.w3.org/Graphics/SVG/1.1/DTD/svg11.dtd"><svg width="100%" height="100%" viewBox="0 0 296 296" version="1.1" xmlns="http://www.w3.org/2000/svg" xmlns:xlink="http://www.w3.org/1999/xlink" xml:space="preserve" xmlns:serif="http://www.serif.com/" style="fill-rule:evenodd;clip-rule:evenodd;stroke-linecap:round;stroke-linejoin:round;stroke-miterlimit:1.5;"><path d="M287.529,78c0,-38.634 -31.366,-70 -70,-70l-140,0c-38.634,0 -70,31.366 -70,70l0,140c0,38.634 31.366,70 70,70l140,0c38.634,0 70,-31.366 70,-70l0,-140Z" style="fill:none;stroke:#000;stroke-width:9.5px;"/><path d="M230.934,106.407c-17.292,-8.548 -45.732,-18.736 -83.025,-18.736c-37.209,0 -65.606,10.149 -82.876,18.663c-11.065,5.454 -18.214,17.746 -18.214,31.315l0,36.228c0,14.457 10.441,26.219 23.275,26.219l155.63,0c12.834,0 23.276,-11.762 23.276,-26.219l0,-36.229c0,-13.553 -7.092,-25.816 -18.066,-31.241Zm6.219,67.47c0,7.099 -5.127,12.874 -11.429,12.874l-155.63,0c-6.302,0 -11.429,-5.775 -11.429,-12.874l0,-36.228c0,-8.267 4.364,-15.761 11.117,-19.091c3.843,-1.894 8.28,-3.873 13.27,-5.793l0,23.129l11.847,0l0,-27.189c5.41,-1.635 11.291,-3.122 17.62,-4.344l0,43.359l11.847,0l0,-45.24c5.589,-0.702 11.464,-1.181 17.62,-1.37l0,58.437l11.846,0l0,-58.437c6.155,0.189 12.031,0.667 17.621,1.369l0,45.241l11.846,0l0,-43.36c6.328,1.223 12.209,2.709 17.62,4.344l0,27.19l11.847,0l0,-23.13c5.047,1.941 9.53,3.945 13.408,5.862c6.669,3.297 10.979,10.764 10.979,19.022l0,36.229Z" style="fill-rule:nonzero;"/></svg>