<?xml version="1.0" encoding="UTF-8" standalone="no"?><!DOCTYPE svg PUBLIC "-//W3C//DTD SVG 1.1//EN" "http://www.w3.org/Graphics/SVG/1.1/DTD/svg11.dtd"><svg width="100%" height="100%" viewBox="0 0 296 296" version="1.1" xmlns="http://www.w3.org/2000/svg" xmlns:xlink="http://www.w3.org/1999/xlink" xml:space="preserve" xmlns:serif="http://www.serif.com/" style="fill-rule:evenodd;clip-rule:evenodd;stroke-linecap:round;stroke-linejoin:round;stroke-miterlimit:1.5;"><g><path d="M67.137,212.872c1.538,0 8.596,9.044 10.87,10.364c0.335,0.194 8.06,7.215 17.456,11.921c4.692,2.35 11.698,6.165 19.073,7.983c9.71,2.394 19.731,3.958 23.157,4.14c1.161,0.061 16.331,2.002 30.879,-1.227c5.442,-1.208 11.441,-2.419 16.161,-4.557c8.79,-3.981 14.982,-7.575 15.39,-7.822c0.782,-0.473 12.023,-8.789 14.689,-11.063c6.092,-5.199 11.087,-10.875 11.107,-10.875" style="fill:none;stroke:#040404;stroke-width:9px;"/><path d="M73.577,218.956c-18.471,-18.825 -29.891,-44.751 -29.891,-73.356c0,-57.46 46.079,-104.111 102.835,-104.111c56.757,0 102.835,46.651 102.835,104.111c0,27.027 -10.194,51.663 -26.9,70.177c-25.063,-54.298 -26.854,7.273 -55.634,7.273c-19.254,0 -31.722,-30.078 -42.398,-9.371c-12.932,25.081 -35.749,-11.513 -50.847,5.277Zm72.944,-115.77c23.122,0 41.895,19.005 41.895,42.414c0,23.409 -18.773,42.414 -41.895,42.414c-23.122,0 -41.894,-19.005 -41.894,-42.414c0,-23.409 18.772,-42.414 41.894,-42.414Z" style="fill:none;stroke:#2b0303;stroke-width:9.5px;"/><path d="M82.376,106.965c-3.276,-4.46 -5.253,-6.926 -5.803,-7.198c-1.045,-0.522 -2.24,0.456 -2.108,1.667c0.136,1.152 10.741,15.897 11.787,16.419c1.681,0.796 2.777,-1.807 1.514,-3.543c-0.233,-0.303 -2.657,-3.612 -5.39,-7.345Z" style="fill-rule:nonzero;stroke:#2b0303;stroke-width:4.92px;stroke-linecap:butt;stroke-linejoin:miter;stroke-miterlimit:4;"/><path d="M228.768,147.686c-0.288,-0.948 -1.126,-1.694 -6.65,-6.022c-6.6,-5.199 -7.619,-5.755 -8.757,-4.56c-0.31,0.326 -0.526,1.053 -0.415,1.624c0.148,0.97 0.523,1.327 6.691,6.166c3.595,2.853 6.86,5.239 7.265,5.314c1.122,0.135 2.233,-1.344 1.866,-2.522Z" style="fill-rule:nonzero;stroke:#2b0303;stroke-width:4.73px;stroke-linecap:butt;stroke-linejoin:miter;stroke-miterlimit:4;"/><path d="M204.525,88.777c4.57,-3.12 7.103,-5.011 7.393,-5.552c0.558,-1.027 -0.378,-2.254 -1.593,-2.164c-1.156,0.097 -16.257,10.189 -16.815,11.215c-0.853,1.654 1.712,2.838 3.489,1.636c0.311,-0.223 3.702,-2.532 7.526,-5.135Z" style="fill-rule:nonzero;stroke:#2b0303;stroke-width:4.92px;stroke-linecap:butt;stroke-linejoin:miter;stroke-miterlimit:4;"/></g><path d="M287.529,78c0,-38.634 -31.366,-70 -70,-70l-140,0c-38.634,0 -70,31.366 -70,70l0,140c0,38.634 31.366,70 70,70l140,0c38.634,0 70,-31.366 70,-70l0,-140Z" style="fill:none;stroke:#000;stroke-width:9.5px;"/><path d="M127.392,76.999c0.854,0.502 1.975,0.485 8.971,-0.068c8.377,-0.641 9.504,-0.921 9.532,-2.571c0.008,-0.45 -0.325,-1.131 -0.793,-1.477c-0.766,-0.614 -1.283,-0.623 -9.099,-0.009c-4.577,0.332 -8.596,0.787 -8.945,1.006c-0.917,0.659 -0.733,2.5 0.334,3.119Z" style="fill-rule:nonzero;stroke:#2b0303;stroke-width:4.73px;stroke-linecap:butt;stroke-linejoin:miter;stroke-miterlimit:4;"/></svg>