<?xml version="1.0" encoding="UTF-8" standalone="no"?><!DOCTYPE svg PUBLIC "-//W3C//DTD SVG 1.1//EN" "http://www.w3.org/Graphics/SVG/1.1/DTD/svg11.dtd"><svg width="100%" height="100%" viewBox="0 0 296 296" version="1.1" xmlns="http://www.w3.org/2000/svg" xmlns:xlink="http://www.w3.org/1999/xlink" xml:space="preserve" xmlns:serif="http://www.serif.com/" style="fill-rule:evenodd;clip-rule:evenodd;stroke-linecap:round;stroke-linejoin:round;stroke-miterlimit:1.5;"><path d="M287.529,78c0,-38.634 -31.366,-70 -70,-70l-140,0c-38.634,0 -70,31.366 -70,70l0,140c0,38.634 31.366,70 70,70l140,0c38.634,0 70,-31.366 70,-70l0,-140Z" style="fill:none;stroke:#000;stroke-width:9.5px;"/><g><path d="M205.687,168.45c-1.655,-0.262 -3.207,0.867 -3.469,2.52l-8.788,55.437c-0.261,1.654 0.866,3.207 2.52,3.469c0.161,0.025 0.321,0.038 0.478,0.038c1.466,0 2.755,-1.065 2.991,-2.558l8.787,-55.437c0.263,-1.654 -0.865,-3.207 -2.519,-3.469Z" style="fill-rule:nonzero;stroke:#040404;stroke-width:3px;stroke-linecap:butt;stroke-miterlimit:1.41421;"/><path d="M186.276,168.442c-1.669,-0.174 -3.158,1.031 -3.334,2.696l-2.292,21.682c-0.177,1.666 1.03,3.158 2.696,3.334c0.108,0.012 0.215,0.018 0.322,0.018c1.531,0 2.847,-1.157 3.011,-2.714l2.293,-21.682c0.176,-1.665 -1.03,-3.158 -2.696,-3.334Z" style="fill-rule:nonzero;stroke:#040404;stroke-width:3px;stroke-linecap:butt;stroke-miterlimit:1.41421;"/><path d="M182.708,202.184c-1.668,-0.174 -3.158,1.031 -3.334,2.696l-2.293,21.682c-0.176,1.666 1.031,3.158 2.696,3.334c0.109,0.012 0.216,0.018 0.323,0.018c1.531,0 2.847,-1.157 3.011,-2.714l2.293,-21.682c0.176,-1.665 -1.031,-3.158 -2.696,-3.334Z" style="fill-rule:nonzero;stroke:#040404;stroke-width:3px;stroke-linecap:butt;stroke-miterlimit:1.41421;"/><path d="M166.863,168.441c-1.663,-0.093 -3.1,1.195 -3.188,2.868l-2.936,55.412c-0.089,1.672 1.195,3.1 2.867,3.188c0.055,0.003 0.109,0.005 0.163,0.005c1.601,0 2.939,-1.255 3.025,-2.872l2.936,-55.413c0.089,-1.672 -1.195,-3.099 -2.867,-3.188Z" style="fill-rule:nonzero;stroke:#040404;stroke-width:3px;stroke-linecap:butt;stroke-miterlimit:1.41421;"/><path d="M147.448,168.449c-1.675,0 -3.032,1.358 -3.032,3.032l-0.01,55.4c-0.001,1.675 1.356,3.032 3.031,3.033c1.675,0 3.032,-1.357 3.032,-3.032l0.011,-55.4c0,-1.675 -1.357,-3.032 -3.032,-3.033Z" style="fill-rule:nonzero;stroke:#040404;stroke-width:3px;stroke-linecap:butt;stroke-miterlimit:1.41421;"/><path d="M131.22,171.334c-0.088,-1.672 -1.503,-2.971 -3.187,-2.868c-1.672,0.088 -2.956,1.515 -2.868,3.187l2.915,55.388c0.085,1.618 1.424,2.873 3.025,2.873c0.054,0 0.108,-0.002 0.162,-0.005c1.672,-0.088 2.956,-1.515 2.868,-3.187l-2.915,-55.388Z" style="fill-rule:nonzero;stroke:#040404;stroke-width:3px;stroke-linecap:butt;stroke-miterlimit:1.41421;"/><path d="M111.953,171.187c-0.176,-1.665 -1.664,-2.866 -3.333,-2.697c-1.665,0.176 -2.873,1.668 -2.697,3.334l5.84,55.376c0.164,1.557 1.48,2.714 3.012,2.714c0.106,0 0.213,-0.006 0.322,-0.017c1.665,-0.176 2.872,-1.668 2.697,-3.333l-5.841,-55.377Z" style="fill-rule:nonzero;stroke:#040404;stroke-width:3px;stroke-linecap:butt;stroke-miterlimit:1.41421;"/><path d="M92.678,171.044c-0.262,-1.654 -1.813,-2.782 -3.469,-2.52c-1.654,0.262 -2.782,1.815 -2.521,3.469l8.768,55.363c0.236,1.494 1.525,2.558 2.99,2.558c0.158,0 0.317,-0.012 0.478,-0.037c1.654,-0.262 2.783,-1.815 2.521,-3.469l-8.767,-55.364Z" style="fill-rule:nonzero;stroke:#040404;stroke-width:3px;stroke-linecap:butt;stroke-miterlimit:1.41421;"/><path d="M242.448,147.041c0,-7.491 -5.364,-13.753 -12.452,-15.148c-0.254,-7.754 -1.586,-15.239 -3.843,-22.314c-0.047,-0.241 -0.125,-0.47 -0.225,-0.686c-10.842,-32.976 -41.923,-56.852 -78.48,-56.852c-36.558,0 -67.639,23.876 -78.481,56.852c-0.101,0.217 -0.177,0.445 -0.224,0.686c-2.258,7.075 -3.589,14.56 -3.843,22.314c-7.089,1.395 -12.452,7.657 -12.452,15.148c0,7.661 5.61,14.034 12.937,15.233l16.341,77.362c0.296,1.402 1.533,2.405 2.966,2.405l125.511,0c1.433,0 2.67,-1.003 2.966,-2.405l16.342,-77.362c7.327,-1.199 12.937,-7.572 12.937,-15.233Zm-95,-88.936c32.654,0 60.592,20.561 71.562,49.414c-4.8,0.93 -7.748,3.399 -10.407,5.637c-3.054,2.57 -5.466,4.6 -10.671,4.6c-5.205,0 -7.617,-2.03 -10.67,-4.6c-3.355,-2.823 -7.158,-6.024 -14.576,-6.024c-7.417,0 -11.219,3.201 -14.574,6.025c-3.053,2.569 -5.464,4.599 -10.668,4.599c-5.205,0 -7.617,-2.03 -10.67,-4.6c-3.355,-2.823 -7.157,-6.024 -14.574,-6.024c-7.417,0 -11.219,3.201 -14.574,6.025c-3.053,2.569 -5.464,4.599 -10.668,4.599c-5.205,0 -7.616,-2.03 -10.669,-4.6c-2.659,-2.238 -5.606,-4.707 -10.405,-5.637c10.971,-28.853 38.909,-49.414 71.564,-49.414Zm60.296,177.872l-120.593,0l-15.525,-73.497l151.644,0l-15.526,73.497Zm19.265,-79.561l-159.123,0c-5.169,0 -9.375,-4.205 -9.375,-9.375c0,-5.169 4.206,-9.374 9.375,-9.374c1.675,0 3.032,-1.357 3.032,-3.032c0,-7.387 1.056,-14.531 3.017,-21.294c3.74,0.5 5.869,2.282 8.45,4.454c3.354,2.824 7.157,6.025 14.574,6.025c7.416,0 11.218,-3.2 14.573,-6.024c3.053,-2.57 5.464,-4.6 10.669,-4.6c5.204,0 7.616,2.03 10.669,4.599c3.355,2.824 7.157,6.025 14.574,6.025c7.417,0 11.219,-3.201 14.574,-6.025c3.053,-2.569 5.465,-4.599 10.669,-4.599c5.206,0 7.617,2.03 10.671,4.6c3.355,2.824 7.157,6.024 14.575,6.024c7.418,0 11.22,-3.2 14.575,-6.024c2.582,-2.173 4.711,-3.955 8.452,-4.455c1.962,6.763 3.018,13.907 3.018,21.294c0,1.675 1.357,3.032 3.032,3.032c5.169,0 9.374,4.205 9.374,9.374c0,5.17 -4.206,9.375 -9.375,9.375Z" style="fill-rule:nonzero;stroke:#040404;stroke-width:3px;stroke-linecap:butt;stroke-miterlimit:1.41421;"/></g></svg>