<?xml version="1.0" encoding="UTF-8" standalone="no"?><!DOCTYPE svg PUBLIC "-//W3C//DTD SVG 1.1//EN" "http://www.w3.org/Graphics/SVG/1.1/DTD/svg11.dtd"><svg width="100%" height="100%" viewBox="0 0 296 296" version="1.1" xmlns="http://www.w3.org/2000/svg" xmlns:xlink="http://www.w3.org/1999/xlink" xml:space="preserve" xmlns:serif="http://www.serif.com/" style="fill-rule:evenodd;clip-rule:evenodd;stroke-linecap:round;stroke-linejoin:round;stroke-miterlimit:1.5;"><path d="M287.529,78c0,-38.634 -31.366,-70 -70,-70l-140,0c-38.634,0 -70,31.366 -70,70l0,140c0,38.634 31.366,70 70,70l140,0c38.634,0 70,-31.366 70,-70l0,-140Z" style="fill:none;stroke:#000;stroke-width:9.5px;"/><g><path d="M130.572,188.299l-66.79,-80.146" style="fill:none;stroke:#000;stroke-width:11px;stroke-miterlimit:4;"/><path d="M170.645,188.299l66.789,-80.146" style="fill:none;stroke:#000;stroke-width:11px;stroke-miterlimit:4;"/><path d="M63.782,108.153c21.667,-25.411 53.432,-40.071 86.826,-40.071c33.394,0 65.159,14.66 86.826,40.071" style="fill:none;stroke:#000;stroke-width:11px;stroke-miterlimit:4;"/><path d="M130.572,188.299c11.839,-8.879 28.234,-8.879 40.073,0" style="fill:none;stroke:#000;stroke-width:11px;stroke-miterlimit:4;"/><path d="M71.664,117.637l-16.163,28.452c-2.961,5.2 -2.083,11.786 2.137,16.029l30.856,30.857c4.833,4.916 12.718,5.325 18.033,0.935l16.965,-14.16" style="fill:none;stroke:#000;stroke-width:11px;stroke-miterlimit:4;"/><path d="M229.553,117.637l16.163,28.452c2.961,5.2 2.083,11.786 -2.137,16.029l-30.857,30.857c-4.833,4.916 -12.718,5.325 -18.033,0.935l-16.964,-14.16" style="fill:none;stroke:#000;stroke-width:11px;stroke-miterlimit:4;"/><path d="M63.782,168.263c-7.627,14.422 -8.793,31.423 -3.205,46.752c10.861,-5.167 20.068,-13.264 26.582,-23.376" style="fill:none;stroke:#000;stroke-width:11px;stroke-miterlimit:4;"/><path d="M237.434,168.263c7.628,14.422 8.794,31.423 3.206,46.752c-10.862,-5.167 -20.069,-13.264 -26.582,-23.376" style="fill:none;stroke:#000;stroke-width:11px;stroke-miterlimit:4;"/></g></svg>