<svg width="100%" height="100%" viewBox="0 0 296 296" id="PASTRY"
style="fill-rule:evenodd;clip-rule:evenodd;stroke-linecap:round;stroke-linejoin:round;stroke-miterlimit:1.5;" stroke="currentStroke" stroke-width="currentWidth" fill="currentFill">
<path d="M72.8,77.732c-14.032,14.032 -27.807,44.866 -25.71,74.357c1.069,15.05 7.218,27.457 14.858,38.889c6.804,10.182 15.435,22.014 26.884,31.055c11.586,9.149 30.037,20.057 52.139,20.058c0,0 0.003,0 0.004,0c10.531,0 20.833,-3.217 31.018,-6.688c18.864,-6.43 46.472,-19.24 62.382,-42.147c9.856,-14.189 12.696,-29.706 12.492,-45.609c-0.25,-19.521 -6.776,-50.34 -25.564,-71.375c-12.548,-14.049 -28.492,-20.276 -45.541,-23.653c-10.015,-1.984 -21.265,-4.665 -32.843,-4.665c-16.092,0 -31.117,3.379 -43.446,9.771c-6.101,3.164 -18.464,11.798 -26.673,20.007Zm160.453,57.75c-0.514,1.092 -13.613,27.838 -43.616,27.841c-0.001,0 -0.004,0 -0.005,0c-2.303,0 -4.676,-0.159 -7.094,-0.463c-0.933,-11.224 3.112,-24.321 6.879,-32.438c11.228,-24.21 6.189,-43.673 -0.017,-55.738c-1.21,-2.352 -2.51,-4.518 -3.829,-6.489c9.572,2.822 18.201,8.497 25.772,16.973c12.612,14.122 20.092,34.233 21.91,50.314Zm-102.359,29.321c-1.501,-10.161 -4.575,-19.568 -8.94,-27.118c-0.474,-0.819 -0.963,-1.606 -1.462,-2.374c8.58,-5.512 15.78,-12.13 20.783,-19.087c10.025,9.727 21.247,16.446 31.866,19.204c-2.801,8.642 -4.239,17.36 -4.075,25.1c-4.066,-0.542 -8.148,-0.824 -12.078,-0.824c-10.223,0 -19.015,1.765 -26.094,5.099Zm32.69,-101.322c0.072,0.057 8.718,7.16 13.94,17.313c6.757,13.138 6.96,27.3 0.617,42.118c-11.312,-2.283 -22.939,-11.122 -30.699,-19.476c-12.939,-13.928 -28.88,-21.291 -46.098,-21.291c-4.694,0 -9.057,0.54 -12.932,1.335c15.763,-19.716 42.305,-22.17 54.507,-22.17c7.05,0 14.172,0.777 20.665,2.171Zm-31.999,42.917c-5.145,7.993 -14.649,16.374 -25.908,22.008c-23.862,11.936 -32.042,30.303 -34.701,43.606c-0.518,2.593 -0.85,5.095 -1.045,7.455c-5.553,-7.924 -8.743,-17.398 -9.519,-28.324c-1.22,-17.143 3.977,-35.547 11.335,-49.24c0.013,0.006 -0.014,-0.004 0,0c0.001,-0.005 0,0 0,0c0.101,-0.059 16.006,-6.402 29.598,-6.402c10.865,0 21.314,3.667 30.24,10.897c-0.001,0.001 0.002,-0.001 0,0Zm-47.798,92.562c-0.352,-1.449 -7.751,-38.686 25.033,-57.105c5.822,8.417 9.021,20.818 9.646,32.706c1.399,26.654 14.957,41.495 26.085,49.252c2.162,1.507 4.315,2.809 6.395,3.928c-3.271,0.661 -6.598,0.994 -9.971,0.994c-0.001,0 -0.002,0 -0.002,0c-21.971,-0.002 -43.535,-14.205 -57.186,-29.775Zm139.619,-13.323c-12.925,18.611 -35.922,31.934 -52.77,35.404c-3.443,-0.676 -33.562,-7.547 -38.302,-41.606c7.133,-5.333 17.607,-6.376 24.654,-6.376c5.486,0 11.336,0.643 16.919,1.859c5.365,1.168 10.655,1.76 15.725,1.76c0.001,0 0.005,0 0.007,0c21.123,-0.003 35.402,-9.857 44.119,-19.035c-0.654,9.641 -4.112,19.01 -10.352,27.994Z" />
<path d="M287.529,78c0,-38.634 -31.366,-70 -70,-70l-140,0c-38.634,0 -70,31.366 -70,70l0,140c0,38.634 31.366,70 70,70l140,0c38.634,0 70,-31.366 70,-70l0,-140Z"/>
 </svg>