<?xml version="1.0" encoding="UTF-8" standalone="no"?>
<!DOCTYPE svg PUBLIC "-//W3C//DTD SVG 1.1//EN" "http://www.w3.org/Graphics/SVG/1.1/DTD/svg11.dtd">
<svg width="100%" height="100%" viewBox="0 0 287 288" 
version="1.1" xmlns="http://www.w3.org/2000/svg" xmlns:xlink="http://www.w3.org/1999/xlink" 
xml:space="preserve" xmlns:serif="http://www.serif.com/" 
style="fill-rule:evenodd;clip-rule:evenodd;stroke-linecap:round;stroke-linejoin:round;stroke-miterlimit:1.5;">
<path id="Frame" d="M283.529,74c0,-38.634 -31.366,-70 -70,-70l-140,0c-38.634,0 -70,31.366 -70,70l0,140c0,38.634 31.366,70 70,70l140,0c38.634,0 70,-31.366 70,-70l0,-140Z" 
style="fill:none;stroke:#000;stroke-width:3.5px;"/>
<g id="Roll">
<path d="M144.6,88.221c66.617,0.82 120.432,23.333 120.1,50.241c-0.331,26.909 -54.684,48.09 -121.3,47.27c-66.617,-0.82 -120.432,-23.333 -120.1,-50.241c0.331,-26.909 54.684,-48.09 121.3,-47.27Z" 
style="fill:none;stroke:#000;stroke-width:3.29px;"/>
<path d="M163.752,88.961c-5.743,4.24 -38.119,41.386 -39.668,42.529c-0.485,0.358 1.291,-0.606 1.776,-0.964" 
style="fill:none;stroke:#000;stroke-width:3.5px;"/>
<path d="M134.52,88.097c-3.482,2.57 -24.128,24.795 -25.067,25.488c-0.294,0.217 0.756,-0.376 1.05,-0.593" 
style="fill:none;stroke:#000;stroke-width:3.5px;"/>
<path d="M188.516,92.199c-3.482,2.57 -24.128,24.794 -25.067,25.487c-0.294,0.217 0.756,-0.375 1.05,-0.592" 
style="fill:none;stroke:#000;stroke-width:3.5px;"/></g></svg>