<?xml version="1.0" encoding="UTF-8" standalone="no"?><!DOCTYPE svg PUBLIC "-//W3C//DTD SVG 1.1//EN" "http://www.w3.org/Graphics/SVG/1.1/DTD/svg11.dtd"><svg width="100%" height="100%" viewBox="0 0 197 200" version="1.1" xmlns="http://www.w3.org/2000/svg" xmlns:xlink="http://www.w3.org/1999/xlink" xml:space="preserve" xmlns:serif="http://www.serif.com/" style="fill-rule:evenodd;clip-rule:evenodd;stroke-linejoin:round;stroke-miterlimit:1.41421;"><g id="MuffinSvg"><path d="M16.387,115.285l163.912,0.991l-16.13,76.36c-0.296,1.402 -1.533,2.405 -2.966,2.405l-125.511,0c-1.433,0 -2.67,-1.003 -2.966,-2.405l-16.339,-77.351Zm81.91,-110.244c0.05,0 0.101,0 0.151,0c25.472,0 48.286,11.592 63.446,29.777l0.024,0.028c1.656,1.825 3.202,3.902 4.643,6.129c4.387,6.386 7.901,13.417 10.367,20.918c0.1,0.216 0.178,0.445 0.225,0.686c2.257,7.075 3.589,14.56 3.843,22.314c7.088,1.395 12.452,7.657 12.452,15.148c0,7.661 -5.61,14.034 -12.937,15.233l-0.186,0.88c-4.587,-2.479 -149.435,-0.889 -163.938,-0.871l-0.002,-0.009c-7.327,-1.199 -12.937,-7.572 -12.937,-15.233c0,-7.491 5.363,-13.753 12.452,-15.148c0.254,-7.754 1.585,-15.239 3.843,-22.314c0.047,-0.241 0.123,-0.469 0.224,-0.686c1.101,-3.349 2.411,-6.604 3.914,-9.749c0.741,-1.571 1.552,-3.137 2.429,-4.692c4.681,-8.371 10.775,-15.848 17.959,-22.105c1.498,-1.333 3.072,-2.603 4.708,-3.809c13.572,-10.186 30.37,-16.295 48.562,-16.492c0.253,-0.003 0.506,-0.005 0.757,-0.005l0.001,0c-0.253,0.001 -0.506,0.002 -0.758,0.005c-14.893,0.187 -34.148,5.865 -48.562,16.492c-1.616,1.212 -3.186,2.483 -4.708,3.809c-7.198,6.404 -13.442,14.097 -17.959,22.105c-0.858,1.534 -1.668,3.099 -2.429,4.691l0,0.001c-3.033,6.43 -4.174,13.112 -6.32,18.756c1.987,0.385 4.51,-1.935 7.531,-3.856c4.522,-2.874 10.639,-2.116 12.197,-0.888c3.134,2.47 5.464,4.6 10.669,4.6c5.204,0 7.615,-2.03 10.668,-4.599c3.355,-2.824 7.157,-6.025 14.574,-6.025c7.417,0 11.219,3.201 14.574,6.024c3.053,2.57 5.465,4.6 10.67,4.6c5.204,0 7.615,-2.03 10.668,-4.599c3.355,-2.824 7.157,-6.025 14.574,-6.025c7.418,0 11.221,3.201 14.576,6.024c3.053,2.57 5.465,4.6 10.67,4.6c5.205,0 5.672,-5.255 8.726,-7.825c1.339,-1.128 7.28,-3.215 11.455,-1.98c4.11,1.215 6.446,4.707 8.827,4.245c-2.668,-7.018 -6.395,-16.516 -11.379,-24.221c-1.454,-2.116 -3.004,-4.161 -4.643,-6.129c-16.163,-17.808 -41.207,-29.804 -63.621,-29.805Z" style="fill:none;stroke:#040404;stroke-width:3px;"/><g id="Right"><path d="M157.658,123.982c0,3.881 -12.009,55.574 -12.009,55.5" style="fill:none;stroke:#000;stroke-width:3.5px;stroke-linecap:round;stroke-miterlimit:1.5;"/><path d="M122.068,124.546c-1.565,5.846 -6.919,53.79 -7.341,55.366c-0.132,0.493 0.442,-0.922 0.575,-1.416" style="fill:none;stroke:#000;stroke-width:3.5px;stroke-linecap:round;stroke-miterlimit:1.5;"/><g id="BrokenLine"><path d="M139.265,124.131c-0.104,3.611 -3.9,23.855 -3.937,25.149" style="fill:none;stroke:#000;stroke-width:3px;stroke-linecap:round;stroke-miterlimit:1.5;"/><path d="M134.328,155.771c0,1.821 -4.248,23.556 -4.248,24.462" style="fill:none;stroke:#000;stroke-width:3px;stroke-linecap:round;stroke-miterlimit:1.5;"/></g></g><g id="Left"><path d="M100.708,124.086c-0.965,5.974 -1.438,54.214 -1.698,55.825c-0.081,0.504 0.347,-0.962 0.428,-1.467" style="fill:none;stroke:#000;stroke-width:3.5px;stroke-linecap:round;stroke-miterlimit:1.5;"/><path d="M80.173,123.982c-0.474,6.033 2.989,54.15 2.861,55.777c-0.04,0.51 0.267,-0.987 0.307,-1.497" style="fill:none;stroke:#000;stroke-width:3.5px;stroke-linecap:round;stroke-miterlimit:1.5;"/><path d="M62.22,124.238c-0.128,6.05 6.084,53.89 6.049,55.521c-0.011,0.511 0.21,-1 0.221,-1.512" style="fill:none;stroke:#000;stroke-width:3.5px;stroke-linecap:round;stroke-miterlimit:1.5;"/><path d="M45.68,124.308c0,6.052 7.228,53.749 7.228,55.381c0,0.511 0.188,-1.005 0.188,-1.516" style="fill:none;stroke:#000;stroke-width:3.5px;stroke-linecap:round;stroke-miterlimit:1.5;"/></g></g></svg>