<svg width="100%" height="100%" viewBox="0 0 287 286"
     xmlns="http://www.w3.org/2000/svg"
     xmlns:dc="http://pavelkrotov.com/pfolio/app/">
<title property="dc:title">Bagel Land Pastry</title>
<desc property="dc:creator">Pavel Krotov</desc>
     style="fill-rule:evenodd;clip-rule:evenodd;stroke-linejoin:round;stroke-miterlimit:1.41421;">
    <path id="Frame" d="M283.529,73c0,-38.634 -31.366,-70 -70,-70l-140,0c-38.634,0 -70,31.366 -70,70l0,140c0,38.634 31.366,70 70,70l140,0c38.634,0 70,-31.366 70,-70l0,-140Z"
          style="fill:none;stroke:#0b1611;stroke-width:2px;"/>
    <g id="Pastry">
        <path d="M64.009,111.486c-0.034,0.006 10.112,-26.997 30.618,-42.708c12.094,-9.265 33.086,-13.785 43.704,-13.833c32.703,-0.146 48.939,53.458 48.233,62.045c-1.389,16.885 -3.715,30.034 -6.441,31.656c-0.158,0.094 -15.914,-33.375 -42.846,-47.76c-3.361,-1.795 -9.387,-5.19 -16.751,-6.047c-1.206,-0.14 -8.068,-1.257 -15.928,-0.205c-8.77,1.173 -18.632,4.564 -20.159,5.145c-11.741,4.464 -20.055,11.64 -20.43,11.707Z"
              style="fill:none;stroke:#000;stroke-width:2px;stroke-linecap:round;stroke-miterlimit:1.5;"/>
        <path d="M54.233,132.937c0.658,-3.237 3.921,-12.914 6.968,-17.166c3.829,-5.344 8.326,-8.835 9.076,-9.296c17.724,-10.88 45.872,-14.031 55.951,-10.402c15.94,5.739 29.006,15.884 29.861,18.938c0.05,0.178 -35.894,1.661 -56.798,23.916c-6.448,6.864 -14.469,19.923 -18.382,28.292c-8.821,18.869 3.264,36.259 3.085,38.291c-0.012,0.138 -19.808,-20.703 -27.978,-42.294c-5.931,-15.67 -0.945,-33.977 -1.035,-34.084"
              style="fill:none;stroke:#000;stroke-width:2.5px;stroke-linecap:round;stroke-miterlimit:1.5;"/>
        <path d="M186.646,218.203c0.094,0.036 -5.627,1.554 -13.261,5.045c-10.809,4.942 -26.896,8.024 -39.94,7.795c-18.261,-0.321 -32.02,-9.082 -32.485,-9.35c-9.062,-5.223 -14.916,-13.285 -18.558,-21.18c-4.681,-10.146 -4.779,-20.056 -4.268,-23.272c1.537,-9.673 6.372,-17.237 10.313,-22.724c1.201,-1.672 4.922,-8.966 9.945,-14.58c5.604,-6.264 12.554,-10.81 13.797,-10.805c0.184,0.001 -1.098,36.518 14.586,62.715c5.501,9.188 13.075,17.189 22.093,20.965c16.793,7.033 35.988,4.707 37.778,5.391Z"
              style="fill:none;stroke:#000;stroke-width:2px;stroke-linecap:round;stroke-miterlimit:1.5;"/>
        <path d="M234.018,132.94c0.35,2.574 -1.53,41.868 -18.753,65.052c-5.91,7.957 -15.803,16.777 -27.075,19.378c-4.693,1.083 -16.335,1.115 -27.179,-1.178c-10.614,-2.244 -20.465,-6.781 -22.29,-8.832c-12.943,-14.542 -20.764,-33.822 -19.649,-35.119c0.07,-0.082 34.232,16.35 63.241,5.708c28.777,-10.557 51.66,-45.339 51.705,-45.009"
              style="fill:none;stroke:#000;stroke-width:2px;stroke-linecap:round;stroke-miterlimit:1.5;"/>
        <path d="M167.246,55.769c1.831,0.071 17.137,5.258 29.416,14.059c13.501,9.677 24.019,23.109 24.73,24.585c0.45,0.936 9.051,10.698 11.647,22.746c0.574,2.662 3.166,9.471 1.015,15.778c-0.939,2.754 -12.117,16.012 -15.783,20.082c-13.07,14.506 -34.287,24.929 -37.981,25.771c-9.685,2.207 -19.384,2.961 -17.561,3.171c2.77,0.321 26.931,-37.039 23.917,-69.366c-0.445,-4.773 -5.471,-17.156 -11.757,-28.519c-5.072,-9.17 -11.152,-17.779 -14.862,-20.385c-3.41,-2.395 -6.87,-5.075 -9.818,-6.3c-4.178,-1.737 -7.012,-1.535 -4.476,-1.937c8.221,-1.306 21.513,0.315 21.513,0.315Z"
              style="fill:none;stroke:#000;stroke-width:2px;stroke-linecap:round;stroke-miterlimit:1.5;"/>
    </g></svg>