<svg id="ItemBaker" width="100%" height="100%" viewBox="0 0 300 300"
     xmlns="http://www.w3.org/2000/svg"
     xmlns:dc="http://pavelkrotov.com/pfolio/app/">
    <title property="dc:title">Bagel Land Baker Icon</title>
    <desc property="dc:creator">Pavel Krotov</desc>
    <path class="Frame" id="BakeFrame" d="M1566.75,402.747c0,-213.944 -173.695,-387.638 -387.638,-387.638l-775.276,0c-213.943,0 -387.637,173.694 -387.637,387.638l0,775.275c0,213.943 173.694,387.638 387.637,387.638l775.276,0c213.943,0 387.638,-173.695 387.638,-387.638l0,-775.275Z" />
    <g id="BoldFace">
        <g id="face-group" stroke="white" stroke-width="14px">
            <ellipse class="eye" stroke-width="12px" id="LeftEye" cx="151.511" cy="11" rx="7.561" ry="3"/>
            <path class="eye" id="RightEye" d="M180.819,161.835c4.119,-0.621 8.267,3.461 9.257,9.112c0.99,5.65 -1.55,10.742 -5.67,11.363c-4.119,0.622 -8.267,-3.461 -9.257,-9.111c-0.99,-5.65 1.55,-10.742 5.67,-11.364Z"/>
            <path id="MouthUp" fill="none" d="M148.934,228.831c-4.569,-3.939 -11.907,-15.928 -6.757,-14.86c0.244,0.051 -0.252,-0.068 0,0c3.298,0.894 6.985,5.298 11.723,6.377c6.105,1.39 13.459,-0.384 13.801,-0.815c0.09,-0.115 -2.127,13.04 -2.11,13.252c0.138,1.7 -8.116,3.41 -16.657,-3.954Z" />
            <path id="Nose" fill="none" d="M168.696,183.605c0.34,0.837 0.963,8.76 4.817,15.245c3.421,5.758 10.254,10.049 8.704,12.25c-1.92,2.726 -7.805,0.2 -10.641,0.991c-1.008,0.281 -2.349,0.895 -2.349,1.473c0,0.264 -1.525,7.289 -1.525,6.754"/>
            <path d="M163.905,136.653l0.089,0.001l0.06,0.004l0.058,0.011l0.057,0.017l0.053,0.024l0.05,0.03l0.046,0.036l0.04,0.04l0.035,0.045l0.028,0.049l0.021,0.052l0.015,0.053l0.007,0.055l-0.001,0.055l-0.008,0.055l-0.015,0.053l-0.023,0.052l-0.029,0.048l-0.035,0.044l-0.041,0.04l-0.046,0.035l-0.051,0.029l-0.054,0.023l-0.057,0.017l-0.058,0.01l-0.06,0.003l-0.028,-0.001l-0.027,0l-0.028,0l-0.027,0l-0.028,0l-0.027,0l-0.028,0.001l-0.027,0l-0.027,0l-0.027,0.001l-0.027,0l-0.027,0.001l-0.027,0l-0.027,0.001l-0.026,0.001l-0.027,0l-0.027,0.001l-0.026,0.001l-0.027,0.001l-0.026,0.001l-0.027,0.001l-0.026,0.002l-0.027,0.001l-0.026,0.001l-0.026,0.002l-0.026,0.001l-0.026,0.001l-0.027,0.002l-0.025,0.002l-0.026,0.002l-0.026,0.001l-0.026,0.002l-0.026,0.002l-0.025,0.002l-0.026,0.002l-0.026,0.002l-0.025,0.002l-0.026,0.002l-0.025,0.003l-0.026,0.002l-0.025,0.003l-0.025,0.002l-0.025,0.003l-0.026,0.002l-0.025,0.003l-0.025,0.003l-0.025,0.002l-0.025,0.003l-0.025,0.003l-0.024,0.003l-0.025,0.003l-0.025,0.003l-0.025,0.003l-0.024,0.004l-0.025,0.003l-0.024,0.003l-0.025,0.004l-0.024,0.003l-0.024,0.004l-0.025,0.003l-0.024,0.004l-0.024,0.004l-0.024,0.003l-0.024,0.004l-0.025,0.004l-0.024,0.004l-0.023,0.004l-0.024,0.004l-0.024,0.004l-0.024,0.004l-0.024,0.005l-0.024,0.004l-0.023,0.004l-0.024,0.005l-0.023,0.004l-0.024,0.005l-0.023,0.004l-0.024,0.005l-0.023,0.005l-0.023,0.004l-0.024,0.005l-0.023,0.005l-0.023,0.005l-0.023,0.005l-0.023,0.005l-0.023,0.005l-0.023,0.006l-0.023,0.005l-0.023,0.005l-0.023,0.005l-0.023,0.006l-0.022,0.005l-0.023,0.006l-0.023,0.005l-0.022,0.006l-0.023,0.006l-0.022,0.005l-0.023,0.006l-0.022,0.006l-0.023,0.006l-0.022,0.006l-0.022,0.006l-0.022,0.006l-0.023,0.006l-0.022,0.006l-0.022,0.006l-0.022,0.007l-0.022,0.006l-0.022,0.006l-0.022,0.007l-0.022,0.006l-0.022,0.007l-0.022,0.006l-0.021,0.007l-0.022,0.007l-0.022,0.006l-0.021,0.007l-0.022,0.007l-0.022,0.007l-0.021,0.007l-0.021,0.007l-0.022,0.007l-0.021,0.007l-0.022,0.008l-0.021,0.007l-0.021,0.007l-0.043,0.015l-0.042,0.015l-0.042,0.015l-0.042,0.015l-0.042,0.016l-0.041,0.016l-0.042,0.016l-0.041,0.016l-0.041,0.016l-0.041,0.017l-0.041,0.016l-0.041,0.017l-0.04,0.018l-0.041,0.017l-0.04,0.018l-0.04,0.017l-0.04,0.018l-0.04,0.019l-0.039,0.018l-0.04,0.018l-0.039,0.019l-0.04,0.019l-0.039,0.019l-0.039,0.02l-0.039,0.019l-0.038,0.02l-0.039,0.02l-0.039,0.02l-0.038,0.02l-0.038,0.021l-0.038,0.02l-0.038,0.021l-0.038,0.021l-0.038,0.021l-0.037,0.022l-0.038,0.021l-0.037,0.022l-0.037,0.022l-0.038,0.022l-0.037,0.022l-0.036,0.023l-0.037,0.022l-0.037,0.023l-0.036,0.023l-0.037,0.023l-0.036,0.024l-0.036,0.023l-0.036,0.024l-0.036,0.024l-0.036,0.024l-0.036,0.024l-0.036,0.024l-0.035,0.025l-0.036,0.025l-0.035,0.024l-0.035,0.025l-0.035,0.025l-0.035,0.026l-0.035,0.025l-0.035,0.026l-0.035,0.026l-0.035,0.026l-0.034,0.026l-0.034,0.026l-0.035,0.027l-0.034,0.027l-0.034,0.027l-0.034,0.026l-0.034,0.027l-0.034,0.028l-0.034,0.027l-0.034,0.028l-0.034,0.027l-0.033,0.028l-0.034,0.028l-0.033,0.029l-0.033,0.028l-0.033,0.028l-0.033,0.029l-0.034,0.029l-0.032,0.029l-0.033,0.029l-0.033,0.029l-0.033,0.029l-0.033,0.03l-0.032,0.029l-0.033,0.03l-0.032,0.03l-0.032,0.03l-0.033,0.03l-0.032,0.031l-0.032,0.03l-0.032,0.031l-0.032,0.03l-0.032,0.031l-0.032,0.031l-0.032,0.031l-0.031,0.031l-0.032,0.032l-0.032,0.031l-0.031,0.032l-0.031,0.032l-0.032,0.032l-0.031,0.032l-0.032,0.032l-0.031,0.032l-0.031,0.032l-0.031,0.033l-0.031,0.032l-0.031,0.033l-0.031,0.033l-0.031,0.033l-0.031,0.033l-0.03,0.033l-0.031,0.033l-0.031,0.034l-0.03,0.033l-0.031,0.034l-0.03,0.034l-0.031,0.033l-0.03,0.034l-0.03,0.034l-0.031,0.034l-0.03,0.035l-0.03,0.034l-0.03,0.034l-0.03,0.035l-0.031,0.035l-0.03,0.035l-0.03,0.034l-0.03,0.035l-0.029,0.035l-0.03,0.035l-0.03,0.036l-0.03,0.035l-0.03,0.035l-0.03,0.036l-0.029,0.035l-0.03,0.036l-0.029,0.036l-0.03,0.036l-0.03,0.036l-0.029,0.036l-0.03,0.036l-0.029,0.036l-0.03,0.036l-0.029,0.037l-0.029,0.036l-0.03,0.036l-0.058,0.074l-0.059,0.073l-0.059,0.074l-0.058,0.074l-0.058,0.075l-0.059,0.074l-0.058,0.075l-0.058,0.075l-0.058,0.076l-0.058,0.075l-0.059,0.076l-0.058,0.076l-0.058,0.077l-0.058,0.076l-0.058,0.077l-0.058,0.076l-0.058,0.077l-0.058,0.078l-0.117,0.154l-0.116,0.156l-0.234,0.312l-0.117,0.156l-0.118,0.157l-0.059,0.079l-0.06,0.078l-0.059,0.079l-0.059,0.079l-0.06,0.078l-0.06,0.079l-0.06,0.079l-0.06,0.078l-0.061,0.079l-0.06,0.079l-0.061,0.078l-0.061,0.079l-0.061,0.078l-0.061,0.079l-0.062,0.078l-0.062,0.078l-0.062,0.079l-0.062,0.078l-0.063,0.078l-0.031,0.039l-0.031,0.039l-0.032,0.039l-0.032,0.039l-0.031,0.038l-0.032,0.039l-0.032,0.039l-0.032,0.039l-0.032,0.039l-0.032,0.038l-0.032,0.039l-0.032,0.039l-0.032,0.038l-0.033,0.039l-0.032,0.038l-0.033,0.039l-0.032,0.038l-0.033,0.038l-0.032,0.039l-0.033,0.038l-0.033,0.038l-0.033,0.038l-0.033,0.038l-0.034,0.038l-0.033,0.039l-0.033,0.038l-0.034,0.037l-0.033,0.038l-0.034,0.038l-0.034,0.038l-0.034,0.037l-0.033,0.038l-0.034,0.038l-0.035,0.037l-0.034,0.038l-0.034,0.037l-0.035,0.037l-0.034,0.037l-0.035,0.038l-0.035,0.037l-0.035,0.037l-0.034,0.037l-0.036,0.037l-0.035,0.036l-0.035,0.037l-0.035,0.037l-0.036,0.036l-0.036,0.037l-0.035,0.036l-0.036,0.037l-0.036,0.036l-0.036,0.036l-0.036,0.036l-0.037,0.036l-0.036,0.036l-0.037,0.036l-0.037,0.036l-0.036,0.035l-0.037,0.036l-0.037,0.035l-0.038,0.036l-0.037,0.035l-0.037,0.035l-0.038,0.035l-0.038,0.035l-0.038,0.035l-0.037,0.035l-0.039,0.035l-0.038,0.034l-0.038,0.035l-0.039,0.034l-0.038,0.035l-0.039,0.034l-0.039,0.034l-0.039,0.034l-0.039,0.034l-0.04,0.033l-0.039,0.034l-0.04,0.034l-0.04,0.033l-0.04,0.033l-0.04,0.033l-0.04,0.033l-0.04,0.033l-0.041,0.033l-0.041,0.033l-0.04,0.032l-0.041,0.033l-0.042,0.032l-0.041,0.032l-0.041,0.032l-0.042,0.032l-0.042,0.032l-0.041,0.032l-0.043,0.031l-0.042,0.032l-0.042,0.031l-0.043,0.031l-0.043,0.031l-0.042,0.031l-0.044,0.031l-0.043,0.03l-0.043,0.031l-0.044,0.03l-0.043,0.03l-0.044,0.03l-0.044,0.03l-0.045,0.03l-0.044,0.029l-0.045,0.03l-0.044,0.029l-0.045,0.029l-0.046,0.029l-0.045,0.029l-0.045,0.028l-0.046,0.029l-0.046,0.028l-0.046,0.028l-0.046,0.028l-0.046,0.028l-0.047,0.028l-0.047,0.027l-0.046,0.028l-0.048,0.027l-0.047,0.027l-0.047,0.027l-0.048,0.026l-0.048,0.027l-0.048,0.026l-0.048,0.026l-0.049,0.026l-0.048,0.026l-0.049,0.025l-0.049,0.026l-0.049,0.025l-0.05,0.025l-0.049,0.025l-0.05,0.025l-0.05,0.024l-0.05,0.025l-0.051,0.024l-0.05,0.024l-0.051,0.023l-0.051,0.024l-0.051,0.023l-0.052,0.023l-0.051,0.023l-0.052,0.023l-0.052,0.023l-0.052,0.022l-0.053,0.022l-0.052,0.022l-0.053,0.022l-0.053,0.021l-0.053,0.022l-0.054,0.021l-0.054,0.021l-0.054,0.021l-0.054,0.02l-0.054,0.021l-0.054,0.02l-0.055,0.02l-0.055,0.019l-0.055,0.02l-0.055,0.019l-0.028,0.009l-0.028,0.01l-0.028,0.009l-0.028,0.01l-0.028,0.009l-0.028,0.009l-0.028,0.009l-0.028,0.01l-0.029,0.009l-0.028,0.009l-0.028,0.009l-0.029,0.009l-0.028,0.008l-0.029,0.009l-0.028,0.009l-0.029,0.009l-0.029,0.008l-0.028,0.009l-0.029,0.008l-0.029,0.009l-0.029,0.008l-0.029,0.009l-0.029,0.008l-0.029,0.008l-0.029,0.008l-0.029,0.009l-0.029,0.008l-0.029,0.008l-0.03,0.008l-0.029,0.007l-0.03,0.008l-0.029,0.008l-0.03,0.008l-0.029,0.007l-0.03,0.008l-0.03,0.008l-0.029,0.007l-0.031,0.008l-0.029,0.007l-0.03,0.007l-0.03,0.007l-0.03,0.007l-0.031,0.008l-0.03,0.007l-0.03,0.007l-0.03,0.007l-0.031,0.006l-0.03,0.007l-0.031,0.007l-0.03,0.007l-0.031,0.006l-0.03,0.007l-0.031,0.006l-0.031,0.007l-0.031,0.006l-0.031,0.007l-0.031,0.006l-0.031,0.006l-0.031,0.006l-0.031,0.006l-0.031,0.006l-0.031,0.006l-0.032,0.006l-0.031,0.006l-0.032,0.006l-0.031,0.005l-0.032,0.006l-0.031,0.006l-0.032,0.005l-0.032,0.005l-0.031,0.006l-0.033,0.005l-0.031,0.005l-0.032,0.005l-0.059,0.007l-0.059,-0.001l-0.059,-0.008l-0.058,-0.015l-0.055,-0.021l-0.051,-0.027l-0.048,-0.033l-0.043,-0.039l-0.037,-0.043l-0.031,-0.047l-0.025,-0.05l-0.017,-0.053l-0.01,-0.055l-0.003,-0.055l0.004,-0.055l0.012,-0.054l0.02,-0.052l0.026,-0.05l0.033,-0.046l0.038,-0.042l0.044,-0.037l0.049,-0.032l0.053,-0.026l0.055,-0.019l0.058,-0.013l0.031,-0.005l0.029,-0.005l0.03,-0.005l0.029,-0.005l0.03,-0.005l0.029,-0.005l0.03,-0.005l0.029,-0.005l0.029,-0.006l0.029,-0.005l0.029,-0.006l0.029,-0.005l0.029,-0.005l0.029,-0.006l0.029,-0.006l0.029,-0.005l0.029,-0.006l0.028,-0.006l0.029,-0.006l0.029,-0.006l0.028,-0.006l0.028,-0.006l0.029,-0.006l0.028,-0.006l0.028,-0.006l0.029,-0.006l0.028,-0.007l0.028,-0.006l0.028,-0.006l0.028,-0.007l0.028,-0.006l0.028,-0.007l0.027,-0.007l0.028,-0.006l0.028,-0.007l0.028,-0.007l0.027,-0.007l0.028,-0.006l0.027,-0.007l0.027,-0.007l0.028,-0.007l0.027,-0.008l0.027,-0.007l0.028,-0.007l0.027,-0.007l0.027,-0.008l0.027,-0.007l0.027,-0.007l0.027,-0.008l0.026,-0.007l0.027,-0.008l0.027,-0.008l0.027,-0.007l0.026,-0.008l0.027,-0.008l0.026,-0.008l0.027,-0.008l0.026,-0.008l0.026,-0.008l0.027,-0.008l0.026,-0.008l0.026,-0.008l0.026,-0.008l0.026,-0.009l0.026,-0.008l0.026,-0.008l0.026,-0.009l0.026,-0.008l0.026,-0.009l0.026,-0.008l0.025,-0.009l0.026,-0.009l0.026,-0.008l0.025,-0.009l0.051,-0.018l0.051,-0.018l0.051,-0.018l0.05,-0.018l0.05,-0.018l0.05,-0.019l0.05,-0.019l0.049,-0.019l0.05,-0.019l0.049,-0.02l0.049,-0.019l0.048,-0.02l0.049,-0.02l0.048,-0.02l0.049,-0.021l0.047,-0.02l0.048,-0.021l0.048,-0.021l0.047,-0.021l0.048,-0.021l0.047,-0.022l0.047,-0.021l0.046,-0.022l0.047,-0.022l0.046,-0.022l0.046,-0.023l0.046,-0.022l0.046,-0.023l0.046,-0.023l0.045,-0.023l0.045,-0.023l0.045,-0.023l0.045,-0.024l0.045,-0.024l0.045,-0.024l0.044,-0.024l0.044,-0.024l0.044,-0.024l0.044,-0.025l0.044,-0.025l0.044,-0.025l0.043,-0.025l0.044,-0.025l0.043,-0.025l0.043,-0.026l0.042,-0.025l0.043,-0.026l0.043,-0.026l0.042,-0.026l0.042,-0.027l0.042,-0.026l0.042,-0.027l0.042,-0.027l0.041,-0.027l0.042,-0.027l0.041,-0.027l0.041,-0.027l0.041,-0.028l0.041,-0.027l0.041,-0.028l0.04,-0.028l0.041,-0.028l0.04,-0.029l0.04,-0.028l0.04,-0.028l0.04,-0.029l0.04,-0.029l0.039,-0.029l0.04,-0.029l0.039,-0.029l0.039,-0.03l0.039,-0.029l0.039,-0.03l0.039,-0.03l0.039,-0.03l0.038,-0.03l0.039,-0.03l0.038,-0.03l0.038,-0.03l0.038,-0.031l0.038,-0.031l0.038,-0.03l0.037,-0.031l0.038,-0.031l0.037,-0.032l0.038,-0.031l0.037,-0.031l0.037,-0.032l0.037,-0.032l0.037,-0.031l0.037,-0.032l0.036,-0.032l0.037,-0.033l0.036,-0.032l0.036,-0.032l0.036,-0.033l0.036,-0.032l0.037,-0.033l0.035,-0.033l0.036,-0.033l0.036,-0.033l0.035,-0.033l0.035,-0.033l0.036,-0.034l0.035,-0.033l0.035,-0.034l0.035,-0.033l0.035,-0.034l0.035,-0.034l0.034,-0.034l0.035,-0.034l0.035,-0.034l0.034,-0.035l0.034,-0.034l0.035,-0.034l0.034,-0.035l0.034,-0.035l0.034,-0.035l0.034,-0.034l0.033,-0.035l0.034,-0.035l0.034,-0.035l0.033,-0.036l0.033,-0.035l0.034,-0.035l0.033,-0.036l0.033,-0.035l0.033,-0.036l0.033,-0.036l0.033,-0.036l0.033,-0.035l0.033,-0.036l0.032,-0.037l0.033,-0.036l0.032,-0.036l0.033,-0.036l0.032,-0.036l0.033,-0.037l0.032,-0.036l0.032,-0.037l0.032,-0.037l0.032,-0.036l0.032,-0.037l0.032,-0.037l0.032,-0.037l0.031,-0.037l0.032,-0.037l0.032,-0.037l0.031,-0.037l0.032,-0.037l0.031,-0.038l0.031,-0.037l0.032,-0.037l0.031,-0.038l0.031,-0.037l0.031,-0.038l0.031,-0.037l0.031,-0.038l0.031,-0.038l0.031,-0.038l0.031,-0.038l0.03,-0.037l0.031,-0.038l0.031,-0.038l0.03,-0.038l0.062,-0.077l0.06,-0.076l0.061,-0.076l0.061,-0.077l0.06,-0.077l0.06,-0.077l0.06,-0.077l0.06,-0.077l0.06,-0.077l0.06,-0.078l0.059,-0.077l0.06,-0.078l0.059,-0.078l0.059,-0.078l0.059,-0.077l0.059,-0.078l0.059,-0.078l0.059,-0.078l0.058,-0.078l0.118,-0.157l0.117,-0.156l0.234,-0.312l0.117,-0.156l0.116,-0.155l0.059,-0.078l0.059,-0.078l0.058,-0.077l0.059,-0.078l0.059,-0.077l0.058,-0.077l0.059,-0.077l0.059,-0.077l0.059,-0.077l0.059,-0.077l0.06,-0.076l0.059,-0.076l0.06,-0.077l0.059,-0.075l0.06,-0.076l0.06,-0.076l0.06,-0.075l0.06,-0.075l0.03,-0.038l0.031,-0.037l0.03,-0.038l0.03,-0.037l0.031,-0.037l0.03,-0.038l0.03,-0.037l0.031,-0.037l0.03,-0.037l0.031,-0.037l0.031,-0.037l0.031,-0.036l0.03,-0.037l0.031,-0.037l0.031,-0.036l0.031,-0.037l0.031,-0.036l0.031,-0.037l0.031,-0.036l0.031,-0.036l0.031,-0.036l0.032,-0.037l0.031,-0.036l0.032,-0.035l0.031,-0.036l0.032,-0.036l0.031,-0.036l0.032,-0.035l0.032,-0.036l0.032,-0.035l0.032,-0.036l0.032,-0.035l0.032,-0.035l0.032,-0.035l0.032,-0.035l0.033,-0.035l0.032,-0.035l0.033,-0.034l0.032,-0.035l0.033,-0.034l0.033,-0.035l0.032,-0.034l0.033,-0.034l0.033,-0.034l0.033,-0.034l0.033,-0.034l0.034,-0.034l0.033,-0.034l0.033,-0.033l0.034,-0.034l0.034,-0.033l0.033,-0.033l0.034,-0.033l0.034,-0.033l0.034,-0.033l0.034,-0.033l0.034,-0.033l0.035,-0.032l0.034,-0.032l0.035,-0.033l0.034,-0.032l0.035,-0.032l0.035,-0.032l0.035,-0.032l0.035,-0.031l0.035,-0.032l0.036,-0.031l0.035,-0.032l0.036,-0.031l0.035,-0.031l0.036,-0.031l0.036,-0.03l0.036,-0.031l0.036,-0.031l0.036,-0.03l0.036,-0.03l0.037,-0.03l0.037,-0.03l0.036,-0.03l0.037,-0.029l0.037,-0.03l0.037,-0.029l0.037,-0.03l0.038,-0.029l0.037,-0.028l0.038,-0.029l0.038,-0.029l0.037,-0.028l0.038,-0.029l0.039,-0.028l0.038,-0.028l0.038,-0.027l0.039,-0.028l0.039,-0.028l0.038,-0.027l0.039,-0.027l0.04,-0.027l0.039,-0.027l0.039,-0.026l0.04,-0.027l0.039,-0.026l0.04,-0.027l0.04,-0.025l0.04,-0.026l0.041,-0.026l0.04,-0.025l0.041,-0.026l0.04,-0.025l0.041,-0.025l0.041,-0.024l0.042,-0.025l0.041,-0.024l0.042,-0.024l0.041,-0.024l0.042,-0.024l0.042,-0.024l0.042,-0.023l0.042,-0.023l0.043,-0.023l0.043,-0.023l0.042,-0.023l0.043,-0.022l0.043,-0.022l0.044,-0.022l0.043,-0.022l0.044,-0.022l0.044,-0.021l0.044,-0.021l0.044,-0.021l0.044,-0.021l0.045,-0.021l0.044,-0.02l0.045,-0.02l0.045,-0.02l0.045,-0.02l0.045,-0.02l0.046,-0.019l0.046,-0.019l0.045,-0.019l0.046,-0.018l0.047,-0.019l0.046,-0.018l0.047,-0.018l0.046,-0.018l0.047,-0.017l0.047,-0.017l0.048,-0.017l0.047,-0.017l0.047,-0.017l0.025,-0.008l0.024,-0.008l0.024,-0.008l0.024,-0.008l0.024,-0.008l0.024,-0.008l0.024,-0.008l0.024,-0.008l0.025,-0.007l0.024,-0.008l0.024,-0.008l0.024,-0.007l0.025,-0.008l0.025,-0.007l0.024,-0.007l0.025,-0.008l0.024,-0.007l0.025,-0.007l0.025,-0.007l0.024,-0.007l0.025,-0.007l0.025,-0.007l0.025,-0.007l0.025,-0.007l0.025,-0.007l0.025,-0.006l0.025,-0.007l0.025,-0.006l0.026,-0.007l0.025,-0.006l0.025,-0.007l0.025,-0.006l0.026,-0.006l0.025,-0.006l0.026,-0.006l0.025,-0.007l0.026,-0.005l0.026,-0.006l0.025,-0.006l0.026,-0.006l0.026,-0.006l0.026,-0.005l0.025,-0.006l0.026,-0.006l0.026,-0.005l0.026,-0.005l0.026,-0.006l0.026,-0.005l0.027,-0.005l0.026,-0.005l0.026,-0.005l0.026,-0.005l0.027,-0.005l0.026,-0.005l0.026,-0.005l0.027,-0.005l0.027,-0.004l0.026,-0.005l0.027,-0.005l0.027,-0.004l0.026,-0.004l0.027,-0.005l0.027,-0.004l0.027,-0.004l0.027,-0.004l0.027,-0.004l0.027,-0.004l0.027,-0.004l0.027,-0.004l0.028,-0.004l0.027,-0.004l0.027,-0.003l0.027,-0.004l0.028,-0.003l0.027,-0.004l0.028,-0.003l0.027,-0.004l0.028,-0.003l0.028,-0.003l0.027,-0.003l0.028,-0.003l0.028,-0.003l0.028,-0.003l0.028,-0.003l0.028,-0.002l0.084,-0.008l0.085,-0.008l0.085,-0.006l0.085,-0.006l0.086,-0.005l0.087,-0.005l0.087,-0.004l0.088,-0.003l0.088,-0.003l0.088,-0.002l0.089,-0.001l0.09,-0.001l0.06,0l0,0Z" />
        </g>
        <path id="Ear" d="M82.207,158.381c9.53,0 14.958,4.608 15.305,12.133c0.144,3.119 -3.71,7.859 -5.38,11.859c-0.973,2.327 4.056,4.935 4.056,2.66"/>
        <path id="Collar" d="M104.886,272.441c0,0 26.096,8.117 51.562,-7.881c0.156,-0.098 -28.189,-4.904 -41.424,-12.505c-4.994,-2.869 -8.666,-6.713 -9.192,-6.688c-0.49,0.024 -1.593,27.105 -0.946,27.074Z" />
        <path id="Hat" d="M87.664,135.151c1.097,3.474 13.181,-12.022 32.06,-17.559c12.076,-3.541 30.917,-5.282 42.203,-5.624c26.872,-0.816 42.911,11.515 43.315,11.016c2.067,-2.555 4.305,-29.575 4.198,-31.153c-0.073,-1.091 35.942,-37.743 35.35,-42.228c-0.979,-7.426 -51.549,-24.817 -97.143,-25.062c-48.017,-0.259 -100.401,19.945 -101.269,21.112c-4.522,6.079 35.126,48.578 35.628,44.781c0.304,-2.301 5.658,44.717 5.658,44.717Z" />
        <path id="HatStripe" d="M129.086,90.434c-0.252,-2.926 8.338,-4.527 10.735,-4.704c6.877,-0.509 16.556,-1.033 23.185,1.174c2.246,0.748 6.506,3.195 7.721,3.105"/>
        <path d="M205.729,123.779c4.269,8.794 14.979,55.411 -1.588,93.453c-11.691,26.846 -50.864,50.011 -54.542,50.011c-37.195,0 -67.393,-42.087 -67.393,-93.926c0,-18.212 0.164,-23.261 6.612,-37.664c0,0 17.135,-17.275 46.369,-20.837c11.899,-1.45 23.563,-4.327 36.099,-2.429c6.373,0.966 12.705,1.742 18.18,3.616c8.538,2.923 14.99,7.083 16.263,7.776Z"/>
    </g>
</svg>