<svg>
    <g id="gRoll" style="fill: red; stroke:green; stroke-width: 18px;">
        <path d="M173.437,361.096l-24.358,0l0,110.31c0,14.521 -3.201,25.216 -9.602,32.086c-6.402,6.87 -14.755,10.305 -25.06,10.305c-11.086,0 -19.673,-3.591 -25.763,-10.773c-6.089,-7.182 -9.134,-17.722 -9.134,-31.618l0,-264.183c0,-14.989 3.357,-25.84 10.071,-32.554c6.714,-6.714 17.566,-10.071 32.555,-10.071l113.121,0c15.613,0 28.963,0.664 40.049,1.991c11.085,1.327 21.078,4.02 29.978,8.08c10.773,4.528 20.297,11.007 28.573,19.439c8.275,8.431 14.559,18.229 18.853,29.393c4.294,11.163 6.441,22.991 6.441,35.482c0,25.606 -7.221,46.06 -21.664,61.361c-14.443,15.302 -36.341,26.153 -65.695,32.555c12.335,6.557 24.124,16.238 35.365,29.041c11.242,12.803 21.274,26.426 30.096,40.869c8.821,14.442 15.691,27.48 20.61,39.112c4.918,11.632 7.377,19.634 7.377,24.006c0,4.528 -1.444,9.017 -4.333,13.467c-2.888,4.45 -6.831,7.963 -11.827,10.539c-4.996,2.576 -10.773,3.864 -17.331,3.864c-7.807,0 -14.365,-1.834 -19.673,-5.504c-5.309,-3.669 -9.876,-8.314 -13.701,-13.935c-3.826,-5.621 -9.017,-13.896 -15.575,-24.825l-27.87,-46.373c-9.993,-17.019 -18.932,-29.978 -26.817,-38.878c-7.885,-8.9 -15.887,-14.989 -24.006,-18.268c-8.119,-3.279 -18.346,-4.918 -30.68,-4.918Zm39.814,-144.27l-64.172,0l0,94.384l62.299,0c16.706,0 30.759,-1.444 42.157,-4.333c11.397,-2.888 20.102,-7.806 26.113,-14.755c6.012,-6.948 9.017,-16.511 9.017,-28.69c0,-9.524 -2.42,-17.916 -7.26,-25.177c-4.84,-7.26 -11.554,-12.686 -20.142,-16.277c-8.119,-3.435 -24.123,-5.152 -48.012,-5.152Z" />
        <path d="M221.214,545.53c35.599,0 66.163,7.221 91.691,21.664c25.529,14.442 44.851,34.974 57.966,61.595c13.116,26.622 19.673,57.888 19.673,93.799c0,26.544 -3.591,50.667 -10.773,72.37c-7.182,21.703 -17.956,40.517 -32.32,56.443c-14.365,15.926 -32.008,28.105 -52.931,36.536c-20.922,8.431 -44.889,12.647 -71.9,12.647c-26.856,0 -50.901,-4.333 -72.136,-12.998c-21.234,-8.666 -38.956,-20.884 -53.164,-36.653c-14.208,-15.77 -24.943,-34.741 -32.203,-56.912c-7.26,-22.171 -10.891,-46.138 -10.891,-71.901c0,-26.387 3.787,-50.588 11.359,-72.603c7.573,-22.016 18.541,-40.752 32.906,-56.21c14.365,-15.457 31.852,-27.284 52.462,-35.482c20.61,-8.197 44.03,-12.295 70.261,-12.295Zm98.835,176.59c0,-25.138 -4.06,-46.919 -12.179,-65.343c-8.119,-18.424 -19.712,-32.359 -34.779,-41.806c-15.068,-9.446 -32.36,-14.169 -51.877,-14.169c-13.896,0 -26.738,2.615 -38.526,7.846c-11.789,5.23 -21.938,12.842 -30.447,22.835c-8.509,9.993 -15.223,22.757 -20.142,38.292c-4.918,15.536 -7.377,32.984 -7.377,52.345c0,19.517 2.459,37.161 7.377,52.93c4.919,15.77 11.867,28.847 20.845,39.23c8.977,10.383 19.282,18.15 30.915,23.303c11.632,5.152 24.396,7.729 38.292,7.729c17.8,0 34.155,-4.45 49.066,-13.35c14.911,-8.9 26.777,-22.64 35.599,-41.22c8.822,-18.58 13.233,-41.454 13.233,-68.622Z"/>
        <path d="M149.079,1093.45l0,249.896l140.991,0c11.242,0 19.869,2.732 25.88,8.197c6.011,5.465 9.017,12.335 9.017,20.61c0,8.432 -2.967,15.263 -8.9,20.493c-5.933,5.231 -14.599,7.846 -25.997,7.846l-167.924,0c-15.146,0 -26.036,-3.357 -32.672,-10.071c-6.636,-6.714 -9.954,-17.565 -9.954,-32.554l0,-264.417c0,-14.053 3.162,-24.592 9.486,-31.618c6.323,-7.026 14.638,-10.539 24.943,-10.539c10.461,0 18.931,3.474 25.411,10.422c6.479,6.948 9.719,17.526 9.719,31.735Z" />
        <path d="M271.894,1262.51l3.357,-249.874l-140.979,-1.894c-11.24,-0.151 -19.829,-2.999 -25.767,-8.544c-5.937,-5.545 -8.85,-12.455 -8.739,-20.73c0.113,-8.43 3.171,-15.221 9.174,-20.371c6.003,-5.15 14.703,-7.649 26.1,-7.496l167.91,2.256c15.144,0.203 25.988,3.706 32.533,10.509c6.545,6.802 9.717,17.697 9.516,32.685l-3.553,264.393c-0.188,14.051 -3.491,24.547 -9.909,31.488c-6.417,6.94 -14.778,10.341 -25.082,10.203c-10.46,-0.141 -18.883,-3.728 -25.269,-10.763c-6.386,-7.034 -9.483,-17.655 -9.292,-31.862Z"/>
        <path d="M338.668,1732.49c0,20.767 -5.348,39.425 -16.043,55.975c-10.695,16.551 -26.348,29.51 -46.958,38.878c-20.61,9.369 -45.046,14.053 -73.306,14.053c-33.882,0 -61.83,-6.402 -83.845,-19.205c-15.614,-9.212 -28.3,-21.508 -38.059,-36.887c-9.758,-15.38 -14.638,-30.33 -14.638,-44.851c0,-8.431 2.928,-15.652 8.783,-21.664c5.855,-6.011 13.311,-9.016 22.367,-9.016c7.338,0 13.545,2.342 18.619,7.026c5.074,4.684 9.407,11.632 12.998,20.844c4.372,10.93 9.095,20.064 14.17,27.402c5.074,7.338 12.217,13.389 21.429,18.151c9.212,4.762 21.313,7.143 36.302,7.143c20.61,0 37.356,-4.801 50.237,-14.404c12.881,-9.602 19.322,-21.585 19.322,-35.95c0,-11.398 -3.474,-20.649 -10.422,-27.753c-6.948,-7.104 -15.926,-12.53 -26.934,-16.277c-11.007,-3.748 -25.723,-7.729 -44.147,-11.945c-24.67,-5.777 -45.319,-12.53 -61.947,-20.259c-16.629,-7.728 -29.822,-18.268 -39.581,-31.617c-9.759,-13.35 -14.638,-29.939 -14.638,-49.769c0,-18.892 5.153,-35.677 15.458,-50.354c10.305,-14.677 25.216,-25.957 44.733,-33.842c19.517,-7.885 42.469,-11.828 68.856,-11.828c21.078,0 39.307,2.616 54.687,7.846c15.379,5.231 28.143,12.179 38.292,20.844c10.149,8.666 17.566,17.761 22.25,27.285c4.684,9.525 7.026,18.815 7.026,27.871c0,8.275 -2.928,15.73 -8.783,22.366c-5.855,6.636 -13.154,9.954 -21.898,9.954c-7.963,0 -14.013,-1.991 -18.151,-5.972c-4.137,-3.982 -8.626,-10.501 -13.467,-19.556c-6.245,-12.96 -13.74,-23.07 -22.483,-30.33c-8.744,-7.26 -22.796,-10.89 -42.157,-10.89c-17.956,0 -32.437,3.942 -43.445,11.827c-11.008,7.885 -16.512,17.37 -16.512,28.456c0,6.87 1.874,12.803 5.621,17.799c3.748,4.997 8.9,9.29 15.458,12.882c6.558,3.591 13.193,6.401 19.907,8.431c6.714,2.03 17.8,4.996 33.257,8.9c19.361,4.528 36.888,9.524 52.579,14.989c15.692,5.465 29.042,12.1 40.049,19.907c11.008,7.807 19.595,17.683 25.763,29.627c6.167,11.945 9.251,26.582 9.251,43.913Z" />
    </g>
</svg>
