<?xml version="1.0" standalone="no"?>
<!DOCTYPE svg PUBLIC "-//W3C//DTD SVG 20010904//EN"
 "http://www.w3.org/TR/2001/REC-SVG-20010904/DTD/svg10.dtd">
<svg version="1.0" xmlns="http://www.w3.org/2000/svg"
 width="296.000000pt" height="296.000000pt" viewBox="0 0 296.000000 296.000000"
 preserveAspectRatio="xMidYMid meet">
<metadata>
Created by potrace 1.11, written by Peter Selinger 2001-2013
</metadata>
<g transform="translate(0.000000,296.000000) scale(0.100000,-0.100000)"
fill="#000000" stroke="none">
<path d="M1236 2688 c-213 -18 -454 -82 -555 -147 -128 -82 -184 -205 -160
-353 25 -153 143 -256 296 -258 l52 0 3 -177 c3 -166 1 -182 -21 -248 -45
-130 -40 -436 11 -618 88 -321 285 -549 524 -611 118 -30 148 -22 305 85 173
119 311 268 376 407 100 215 120 573 48 856 -19 79 -22 106 -16 201 l6 109 70
26 c98 35 127 53 174 106 74 85 103 214 72 323 -16 57 -90 135 -161 171 -202
102 -667 160 -1024 128z m539 -49 c306 -38 486 -96 563 -184 63 -71 76 -149
43 -254 -34 -111 -94 -165 -230 -211 l-76 -26 -8 -104 c-5 -58 -10 -106 -11
-108 -2 -1 -29 9 -60 23 -32 14 -92 36 -134 48 -178 51 -598 11 -762 -73 -19
-10 -70 -43 -112 -74 l-78 -55 0 107 c0 59 -3 138 -7 175 l-6 69 -31 -5 c-42
-6 -132 11 -176 33 -51 26 -107 91 -122 142 -7 24 -13 75 -13 113 0 160 94
257 320 328 70 22 264 59 365 70 115 12 378 5 535 -14z m20 -844 c93 -16 226
-66 256 -96 37 -37 70 -249 70 -454 1 -229 -45 -416 -134 -552 -75 -114 -299
-310 -427 -372 -50 -25 -61 -26 -120 -19 -86 10 -206 70 -287 143 -117 106
-215 280 -264 473 -21 81 -39 248 -39 355 l0 67 29 0 c39 0 79 -34 86 -74 5
-25 0 -46 -19 -84 -14 -28 -26 -58 -26 -66 0 -23 48 -52 62 -38 13 13 2 46
-12 37 -16 -10 -12 12 11 57 47 92 8 181 -89 202 -40 9 -40 21 -6 126 l26 80
88 60 c137 94 237 127 480 159 104 14 221 12 315 -4z"/>
<path d="M1405 2181 c-33 -8 -75 -29 -75 -36 0 -3 93 -5 208 -4 l207 1 -45 21
c-36 17 -67 22 -155 24 -60 1 -123 -2 -140 -6z"/>
<path d="M1584 1640 c-11 -4 -40 -32 -64 -60 -24 -29 -59 -59 -77 -67 -44 -18
-44 -43 -1 -43 27 0 43 11 94 65 34 36 64 65 67 65 3 0 17 4 31 10 17 6 24 14
20 25 -7 16 -37 19 -70 5z"/>
<path d="M1777 1368 c-47 -37 -37 -140 18 -180 23 -17 65 -8 81 17 26 39 14
122 -20 152 -30 26 -54 29 -79 11z"/>
<path d="M1466 1331 c-61 -67 -18 -196 59 -177 52 13 74 119 34 170 -24 31
-68 35 -93 7z"/>
<path d="M1670 1185 c0 -8 17 -43 38 -77 63 -103 96 -168 89 -175 -4 -3 -41
-8 -83 -11 l-76 -5 6 -51 c3 -28 9 -68 12 -90 l7 -38 -34 7 c-61 13 -123 37
-159 61 -42 29 -57 30 -65 4 -29 -90 86 -257 153 -221 32 17 28 35 -7 28 -23
-5 -34 0 -58 26 -17 18 -35 41 -40 52 -12 22 -26 95 -20 95 3 0 24 -11 48 -24
47 -26 147 -56 188 -56 23 0 24 2 18 58 -4 31 -9 72 -13 90 -6 32 -6 32 32 32
50 0 109 16 124 35 9 11 5 26 -23 72 -19 32 -53 91 -76 131 -40 69 -61 89 -61
57z"/>
</g>
</svg>
